<svg xmlns="http://www.w3.org/2000/svg" width="15cm" height="12.1708cm" viewBox="0 0 566.929 460.000">
  <defs>
    <marker id="arrow" markerWidth="5.8" markerHeight="5.2" refX="5.3" refY="2.6" orient="auto" markerUnits="strokeWidth">
      <path d="M0,0 L5.8,2.6 L0,5.2 Z" fill="#5D6B76"/>
    </marker>
    <filter id="softShadow" x="-15%" y="-15%" width="130%" height="130%">
      <feDropShadow dx="0" dy="1.2" stdDeviation="1.2" flood-color="#8AA0B4" flood-opacity="0.14"/>
    </filter>
  </defs>
  <style>
    .text { font-family: "Times New Roman", "Songti SC", "STSong", "SimSun", serif; font-size: 10.5pt; fill: #1F3142; letter-spacing: 0; }
    .medium { font-weight: 600; }
  </style>
  <rect width="566.929" height="460.000" fill="#FFFFFF"/>
  <text x="30.00" y="38.90" text-anchor="start" class="text medium">
    <tspan x="30.00" dy="0.00">端侧评分运行链路（泳道活动图）</tspan>
  </text>

  <rect x="28.00" y="70.00" width="512.00" height="350.00" fill="#FFFFFF" stroke="#DDE5EC" stroke-width="1"/>
  <rect x="28.00" y="70.00" width="512.00" height="34.00" fill="#F7FAFC" stroke="#DDE5EC" stroke-width="1"/>
  <line x1="156.00" y1="70.00" x2="156.00" y2="420.00" stroke="#DDE5EC" stroke-width="1"/>
  <line x1="284.00" y1="70.00" x2="284.00" y2="420.00" stroke="#DDE5EC" stroke-width="1"/>
  <line x1="412.00" y1="70.00" x2="412.00" y2="420.00" stroke="#DDE5EC" stroke-width="1"/>
  <text x="92.00" y="92.90" text-anchor="middle" class="text medium">
    <tspan x="92.00" dy="0.00">评分App</tspan>
  </text>
  <text x="220.00" y="92.90" text-anchor="middle" class="text medium">
    <tspan x="220.00" dy="0.00">本地采集</tspan>
  </text>
  <text x="348.00" y="92.90" text-anchor="middle" class="text medium">
    <tspan x="348.00" dy="0.00">编码与推理</tspan>
  </text>
  <text x="476.00" y="92.90" text-anchor="middle" class="text medium">
    <tspan x="476.00" dy="0.00">结果与上报</tspan>
  </text>

  <rect x="46.00" y="128.00" width="92.00" height="44.00" fill="#ECF7EE" stroke="#5C9E5C" stroke-width="1.15"/>
  <text x="92.00" y="154.90" text-anchor="middle" class="text medium">
    <tspan x="92.00" dy="0.00">评分App启动</tspan>
  </text>
  <rect x="174.00" y="112.00" width="92.00" height="44.00" fill="#ECF7EE" stroke="#5C9E5C" stroke-width="1.15"/>
  <text x="220.00" y="129.90" text-anchor="middle" class="text medium">
    <tspan x="220.00" dy="0.00">本地Native</tspan>
    <tspan x="220.00" dy="18.00">采集</tspan>
  </text>
  <rect x="174.00" y="190.00" width="92.00" height="44.00" fill="#ECF7EE" stroke="#5C9E5C" stroke-width="1.15"/>
  <text x="220.00" y="207.90" text-anchor="middle" class="text medium">
    <tspan x="220.00" dy="0.00">本地WebView /</tspan>
    <tspan x="220.00" dy="18.00">Web探针</tspan>
  </text>
  <rect x="302.00" y="150.00" width="92.00" height="44.00" fill="#E8F5F2" stroke="#2A9D8F" stroke-width="1.15"/>
  <text x="348.00" y="167.90" text-anchor="middle" class="text medium">
    <tspan x="348.00" dy="0.00">三端payload</tspan>
    <tspan x="348.00" dy="18.00">合并</tspan>
  </text>
  <rect x="302.00" y="236.00" width="92.00" height="40.00" fill="#F0EEFA" stroke="#7A6BB5" stroke-width="1.15"/>
  <text x="348.00" y="260.90" text-anchor="middle" class="text medium">
    <tspan x="348.00" dy="0.00">端侧特征编码</tspan>
  </text>
  <rect x="302.00" y="316.00" width="92.00" height="40.00" fill="#F0EEFA" stroke="#7A6BB5" stroke-width="1.15"/>
  <text x="348.00" y="340.90" text-anchor="middle" class="text medium">
    <tspan x="348.00" dy="0.00">轻量模型推理</tspan>
  </text>
  <rect x="430.00" y="236.00" width="92.00" height="40.00" fill="#FFF4DF" stroke="#D89A24" stroke-width="1.15"/>
  <text x="476.00" y="251.90" text-anchor="middle" class="text medium">
    <tspan x="476.00" dy="0.00">风险分与</tspan>
    <tspan x="476.00" dy="16.00">风险等级</tspan>
  </text>
  <rect x="430.00" y="316.00" width="92.00" height="40.00" fill="#E8F5F2" stroke="#2A9D8F" stroke-width="1.15"/>
  <text x="476.00" y="340.90" text-anchor="middle" class="text medium">
    <tspan x="476.00" dy="0.00">上传评分摘要</tspan>
  </text>

  <line x1="138.00" y1="150.00" x2="174.00" y2="134.00" stroke="#5D6B76" stroke-width="1.12" marker-end="url(#arrow)"/>
  <line x1="138.00" y1="150.00" x2="174.00" y2="212.00" stroke="#5D6B76" stroke-width="1.12" marker-end="url(#arrow)"/>
  <polyline points="266.00,134.00 284.00,134.00 284.00,172.00 302.00,172.00" fill="none" stroke="#5D6B76" stroke-width="1.12" marker-end="url(#arrow)"/>
  <polyline points="266.00,212.00 284.00,212.00 284.00,172.00 302.00,172.00" fill="none" stroke="#5D6B76" stroke-width="1.12" marker-end="url(#arrow)"/>
  <line x1="348.00" y1="194.00" x2="348.00" y2="236.00" stroke="#5D6B76" stroke-width="1.12" marker-end="url(#arrow)"/>
  <line x1="348.00" y1="276.00" x2="348.00" y2="316.00" stroke="#5D6B76" stroke-width="1.12" marker-end="url(#arrow)"/>
  <polyline points="394.00,336.00 412.00,336.00 412.00,256.00 430.00,256.00" fill="none" stroke="#5D6B76" stroke-width="1.12" marker-end="url(#arrow)"/>
  <line x1="476.00" y1="276.00" x2="476.00" y2="316.00" stroke="#5D6B76" stroke-width="1.12" marker-end="url(#arrow)"/>

  <rect x="420.00" y="370.00" width="112.00" height="42.00" fill="#FFFFFF" stroke="#AEB8C2" stroke-width="1"/>
  <text x="476.00" y="386.90" text-anchor="middle" class="text" fill="#536575">
    <tspan x="476.00" dy="0.00">仅上传摘要</tspan>
    <tspan x="476.00" dy="18.00">不外传原始指纹</tspan>
  </text>
  <line x1="476.00" y1="356.00" x2="476.00" y2="370.00" stroke="#AEB8C2" stroke-width="1" stroke-dasharray="4 3"/>
</svg>
