<svg xmlns="http://www.w3.org/2000/svg" width="15cm" height="10.9538cm" viewBox="0 62 566.929 414.000">
  <defs>
    <marker id="arrow" markerWidth="5.8" markerHeight="5.2" refX="5.3" refY="2.6" orient="auto" markerUnits="strokeWidth">
      <path d="M0,0 L5.8,2.6 L0,5.2 Z" fill="#5D6B76"/>
    </marker>
    <filter id="softShadow" x="-15%" y="-15%" width="130%" height="130%">
      <feDropShadow dx="0" dy="1.2" stdDeviation="1.2" flood-color="#8AA0B4" flood-opacity="0.14"/>
    </filter>
  </defs>
  <style>
    .text { font-family: "Times New Roman", "Songti SC", "STSong", "SimSun", serif; font-size: 10.5pt; fill: #1F3142; letter-spacing: 0; }
    .medium { font-weight: 600; }
  </style>
  <rect width="566.929" height="500.000" fill="#FFFFFF"/>
  <rect x="28.00" y="70.00" width="512.00" height="398.00" fill="#FFFFFF" stroke="#DDE5EC" stroke-width="1"/>
  <rect x="28.00" y="70.00" width="512.00" height="34.00" fill="#F7FAFC" stroke="#DDE5EC" stroke-width="1"/>
  <line x1="140.00" y1="70.00" x2="140.00" y2="468.00" stroke="#DDE5EC" stroke-width="1"/>
  <line x1="230.00" y1="70.00" x2="230.00" y2="468.00" stroke="#DDE5EC" stroke-width="1"/>
  <line x1="350.00" y1="70.00" x2="350.00" y2="468.00" stroke="#DDE5EC" stroke-width="1"/>
  <line x1="455.00" y1="70.00" x2="455.00" y2="468.00" stroke="#DDE5EC" stroke-width="1"/>
  <text x="84.00" y="92.90" text-anchor="middle" class="text medium">
    <tspan x="84.00" dy="0.00">App</tspan>
  </text>
  <text x="185.00" y="92.90" text-anchor="middle" class="text medium">
    <tspan x="185.00" dy="0.00">Native</tspan>
  </text>
  <text x="290.00" y="92.90" text-anchor="middle" class="text medium">
    <tspan x="290.00" dy="0.00">WebView / Web</tspan>
  </text>
  <text x="402.50" y="92.90" text-anchor="middle" class="text medium">
    <tspan x="402.50" dy="0.00">后端</tspan>
  </text>
  <text x="497.50" y="92.90" text-anchor="middle" class="text medium">
    <tspan x="497.50" dy="0.00">训练与导出</tspan>
  </text>

  <rect x="48.00" y="124.00" width="72.00" height="60.00" fill="#EAF2F8" stroke="#4E79A7" stroke-width="1.15"/>
  <text x="84.00" y="142.90" text-anchor="middle" class="text medium">
    <tspan x="84.00" dy="0.00">App启动</tspan>
    <tspan x="84.00" dy="16.00">生成</tspan>
    <tspan x="84.00" dy="16.00">session_id</tspan>
  </text>

  <rect x="151.00" y="126.00" width="68.00" height="50.00" fill="#EAF2F8" stroke="#4E79A7" stroke-width="1.15"/>
  <text x="185.00" y="145.90" text-anchor="middle" class="text medium">
    <tspan x="185.00" dy="0.00">Native</tspan>
    <tspan x="185.00" dy="18.00">特征采集</tspan>
  </text>

  <rect x="242.00" y="126.00" width="96.00" height="50.00" fill="#EAF2F8" stroke="#4E79A7" stroke-width="1.15"/>
  <text x="290.00" y="145.90" text-anchor="middle" class="text medium">
    <tspan x="290.00" dy="0.00">WebView</tspan>
    <tspan x="290.00" dy="18.00">加载探针页</tspan>
  </text>
  <rect x="242.00" y="214.00" width="96.00" height="50.00" fill="#EAF2F8" stroke="#4E79A7" stroke-width="1.15"/>
  <text x="290.00" y="233.90" text-anchor="middle" class="text medium">
    <tspan x="290.00" dy="0.00">JSBridge</tspan>
    <tspan x="290.00" dy="18.00">宿主特征</tspan>
  </text>
  <rect x="242.00" y="302.00" width="96.00" height="50.00" fill="#EAF2F8" stroke="#4E79A7" stroke-width="1.15"/>
  <text x="290.00" y="321.90" text-anchor="middle" class="text medium">
    <tspan x="290.00" dy="0.00">Web前端</tspan>
    <tspan x="290.00" dy="18.00">运行环境采集</tspan>
  </text>

  <rect x="362.00" y="202.00" width="82.00" height="50.00" fill="#E7F4F1" stroke="#2A9D8F" stroke-width="1.15"/>
  <text x="403.00" y="221.90" text-anchor="middle" class="text medium">
    <tspan x="403.00" dy="0.00">按session_id</tspan>
    <tspan x="403.00" dy="18.00">合并</tspan>
  </text>
  <rect x="362.00" y="290.00" width="82.00" height="50.00" fill="#E7F4F1" stroke="#2A9D8F" stroke-width="1.15"/>
  <text x="403.00" y="309.90" text-anchor="middle" class="text medium">
    <tspan x="403.00" dy="0.00">原始数据</tspan>
    <tspan x="403.00" dy="18.00">持久化</tspan>
  </text>
  <rect x="362.00" y="378.00" width="82.00" height="50.00" fill="#FFF3E0" stroke="#E69F00" stroke-width="1.15"/>
  <text x="403.00" y="397.90" text-anchor="middle" class="text medium">
    <tspan x="403.00" dy="0.00">规则知识库</tspan>
    <tspan x="403.00" dy="18.00">+ LLM标注</tspan>
  </text>

  <rect x="464.00" y="290.00" width="66.00" height="50.00" fill="#F1EFF8" stroke="#7B6FB2" stroke-width="1.15"/>
  <text x="497.00" y="309.90" text-anchor="middle" class="text medium">
    <tspan x="497.00" dy="0.00">训练轻量</tspan>
    <tspan x="497.00" dy="18.00">评分器</tspan>
  </text>
  <rect x="464.00" y="378.00" width="66.00" height="50.00" fill="#EAF5EA" stroke="#59A14F" stroke-width="1.15"/>
  <text x="497.00" y="397.90" text-anchor="middle" class="text medium">
    <tspan x="497.00" dy="0.00">导出端侧</tspan>
    <tspan x="497.00" dy="18.00">推理代码</tspan>
  </text>

  <line x1="120.00" y1="154.00" x2="151.00" y2="154.00" stroke="#5D6B76" stroke-width="1.12" marker-end="url(#arrow)"/>
  <polyline points="120.00,154.00 132.00,154.00 132.00,118.00 290.00,118.00 290.00,126.00" fill="none" stroke="#5D6B76" stroke-width="1.12" marker-end="url(#arrow)"/>
  <polyline points="219.00,151.00 226.00,151.00 226.00,108.00 356.00,108.00 356.00,221.00 362.00,221.00" fill="none" stroke="#5D6B76" stroke-width="1.12" marker-end="url(#arrow)"/>
  <line x1="290.00" y1="176.00" x2="290.00" y2="214.00" stroke="#5D6B76" stroke-width="1.12" marker-end="url(#arrow)"/>
  <polyline points="242.00,151.00 232.00,151.00 232.00,327.00 242.00,327.00" fill="none" stroke="#5D6B76" stroke-width="1.12" marker-end="url(#arrow)"/>
  <line x1="338.00" y1="239.00" x2="362.00" y2="239.00" stroke="#5D6B76" stroke-width="1.12" marker-end="url(#arrow)"/>
  <polyline points="338.00,327.00 356.00,327.00 356.00,247.00 362.00,247.00" fill="none" stroke="#5D6B76" stroke-width="1.12" marker-end="url(#arrow)"/>
  <line x1="403.00" y1="252.00" x2="403.00" y2="290.00" stroke="#5D6B76" stroke-width="1.12" marker-end="url(#arrow)"/>
  <line x1="403.00" y1="340.00" x2="403.00" y2="378.00" stroke="#5D6B76" stroke-width="1.12" marker-end="url(#arrow)"/>
  <polyline points="444.00,403.00 455.00,403.00 455.00,315.00 464.00,315.00" fill="none" stroke="#5D6B76" stroke-width="1.12" marker-end="url(#arrow)"/>
  <line x1="497.00" y1="340.00" x2="497.00" y2="378.00" stroke="#5D6B76" stroke-width="1.12" marker-end="url(#arrow)"/>
</svg>
