<?xml version="1.0" encoding="utf-8" standalone="no"?>
<!DOCTYPE svg PUBLIC "-//W3C//DTD SVG 1.1//EN"
  "http://www.w3.org/Graphics/SVG/1.1/DTD/svg11.dtd">
<svg xmlns:xlink="http://www.w3.org/1999/xlink" width="424.8pt" height="178.56pt" viewBox="0 0 424.8 178.56" xmlns="http://www.w3.org/2000/svg" version="1.1">
 <metadata>
  <rdf:RDF xmlns:dc="http://purl.org/dc/elements/1.1/" xmlns:cc="http://creativecommons.org/ns#" xmlns:rdf="http://www.w3.org/1999/02/22-rdf-syntax-ns#">
   <cc:Work>
    <dc:type rdf:resource="http://purl.org/dc/dcmitype/StillImage"/>
    <dc:date>2026-07-21T17:40:18.463478</dc:date>
    <dc:format>image/svg+xml</dc:format>
    <dc:creator>
     <cc:Agent>
      <dc:title>Matplotlib v3.10.8, https://matplotlib.org/</dc:title>
     </cc:Agent>
    </dc:creator>
   </cc:Work>
  </rdf:RDF>
 </metadata>
 <defs>
  <style type="text/css">*{stroke-linejoin: round; stroke-linecap: butt}</style>
 </defs>
 <g id="figure_1">
  <g id="patch_1">
   <path d="M 0 178.56 
L 424.8 178.56 
L 424.8 0 
L 0 0 
z
" style="fill: #ffffff"/>
  </g>
  <g id="axes_1">
   <g id="patch_2">
    <path d="M 41.92776 89.594266 
L 127.56744 89.594266 
Q 137.12544 89.594266 137.12544 86.558746 
L 137.12544 56.93207 
Q 137.12544 53.89655 127.56744 53.89655 
L 41.92776 53.89655 
Q 32.36976 53.89655 32.36976 56.93207 
L 32.36976 86.558746 
Q 32.36976 89.594266 41.92776 89.594266 
z
" clip-path="url(#p3f86272e36)" style="fill: #eaf0f5; stroke: #dce5ed; stroke-width: 0.75; stroke-linejoin: miter"/>
   </g>
   <g id="patch_3">
    <path d="M 168.09336 89.594266 
L 253.73304 89.594266 
Q 263.29104 89.594266 263.29104 86.558746 
L 263.29104 56.93207 
Q 263.29104 53.89655 253.73304 53.89655 
L 168.09336 53.89655 
Q 158.53536 53.89655 158.53536 56.93207 
L 158.53536 86.558746 
Q 158.53536 89.594266 168.09336 89.594266 
z
" clip-path="url(#p3f86272e36)" style="fill: #cae7df; stroke: #dce5ed; stroke-width: 0.75; stroke-linejoin: miter"/>
   </g>
   <g id="patch_4">
    <path d="M 294.25896 89.594266 
L 379.89864 89.594266 
Q 389.45664 89.594266 389.45664 86.558746 
L 389.45664 56.93207 
Q 389.45664 53.89655 379.89864 53.89655 
L 294.25896 53.89655 
Q 284.70096 53.89655 284.70096 56.93207 
L 284.70096 86.558746 
Q 284.70096 89.594266 294.25896 89.594266 
z
" clip-path="url(#p3f86272e36)" style="fill: #f7e5b9; stroke: #dce5ed; stroke-width: 0.75; stroke-linejoin: miter"/>
   </g>
   <g id="patch_5">
    <path d="M 138.360373 71.745408 
Q 146.873278 71.745408 154.324051 71.745408 
" clip-path="url(#p3f86272e36)" style="fill: none; stroke: #66788a; stroke-width: 0.95; stroke-linecap: round"/>
    <path d="M 149.924051 69.545408 
L 154.324051 71.745408 
L 149.924051 73.945408 
z
" clip-path="url(#p3f86272e36)" style="fill: #66788a; stroke: #66788a; stroke-width: 0.95; stroke-linecap: round"/>
   </g>
   <g id="patch_6">
    <path d="M 264.525973 71.745408 
Q 273.038878 71.745408 280.489651 71.745408 
" clip-path="url(#p3f86272e36)" style="fill: none; stroke: #66788a; stroke-width: 0.95; stroke-linecap: round"/>
    <path d="M 276.089651 69.545408 
L 280.489651 71.745408 
L 276.089651 73.945408 
z
" clip-path="url(#p3f86272e36)" style="fill: #66788a; stroke: #66788a; stroke-width: 0.95; stroke-linecap: round"/>
   </g>
   <g id="patch_7">
    <path d="M 141.33096 138.162586 
L 284.31864 138.162586 
Q 293.87664 138.162586 293.87664 135.127066 
L 293.87664 113.999846 
Q 293.87664 110.964326 284.31864 110.964326 
L 141.33096 110.964326 
Q 131.77296 110.964326 131.77296 113.999846 
L 131.77296 135.127066 
Q 131.77296 138.162586 141.33096 138.162586 
z
" clip-path="url(#p3f86272e36)" style="fill: #e3d7ed; stroke: #dce5ed; stroke-width: 0.75; stroke-linejoin: miter"/>
   </g>
   <g id="patch_8">
    <path d="M 335.645942 90.750524 
Q 316.947991 108.590527 292.335846 111.47988 
" clip-path="url(#p3f86272e36)" style="fill: none; stroke: #66788a; stroke-width: 0.95; stroke-linecap: round"/>
    <path d="M 296.962345 113.151858 
L 292.335846 111.47988 
L 296.449328 108.781868 
z
" clip-path="url(#p3f86272e36)" style="fill: #66788a; stroke: #66788a; stroke-width: 0.95; stroke-linecap: round"/>
   </g>
   <g id="text_1">
    <text style="font-weight: 700; font-size: 9.5px; font-family: 'Times New Roman'; text-anchor: middle; fill: #9aa9b8" x="84.7476" y="69.625016" transform="rotate(-0 84.7476 69.625016)">1,064</text>
   </g>
   <g id="text_2">
    <text style="font-size: 8.2px; font-family: 'Times New Roman'; fill: #1f2933" transform="translate(64.368678 79.127966)">Raw catalog</text>
    <text style="font-size: 8.2px; font-family: 'Times New Roman'; fill: #1f2933" transform="translate(73.818538 87.730022)">entries</text>
   </g>
   <g id="text_3">
    <text style="font-weight: 700; font-size: 9.5px; font-family: 'Times New Roman'; text-anchor: middle; fill: #1d796e" x="210.9132" y="69.625016" transform="rotate(-0 210.9132 69.625016)">1,060</text>
   </g>
   <g id="text_4">
    <text style="font-size: 8.2px; font-family: 'Times New Roman'; fill: #1f2933" transform="translate(178.573169 79.135653)">After Android 4.4.x</text>
    <text style="font-size: 8.2px; font-family: 'Times New Roman'; fill: #1f2933" transform="translate(195.199309 87.722334)">exclusion</text>
   </g>
   <g id="text_5">
    <text style="font-weight: 700; font-size: 9.5px; font-family: 'Times New Roman'; text-anchor: middle; fill: #a56716" x="337.0788" y="69.625016" transform="rotate(-0 337.0788 69.625016)">1,029</text>
   </g>
   <g id="text_6">
    <text style="font-size: 8.2px; font-family: 'Times New Roman'; fill: #1f2933" transform="translate(302.002019 79.120278)">Analysis unit: unique</text>
    <text style="font-size: 8.2px; font-family: 'Times New Roman'; fill: #1f2933" transform="translate(293.249159 87.722334)">device_label configuration</text>
   </g>
   <g id="text_7">
    <text style="font-weight: 700; font-size: 8.2px; font-family: 'Times New Roman'; text-anchor: middle; fill: #d55e00" x="147.06576" y="57.849297" transform="rotate(-0 147.06576 57.849297)">exclude 4 Android 4.4.x</text>
   </g>
   <g id="text_8">
    <text style="font-size: 8.2px; font-family: 'Times New Roman'; text-anchor: middle; fill: #66788a" x="273.23136" y="57.849297" transform="rotate(-0 273.23136 57.849297)">remove 31 exact duplicate labels</text>
   </g>
   <g id="text_9">
    <text style="font-weight: 700; font-size: 9.5px; font-family: 'Times New Roman'; text-anchor: middle; fill: #583f71" x="212.8248" y="123.657272" transform="rotate(-0 212.8248 123.657272)">996</text>
   </g>
   <g id="text_10">
    <text style="font-size: 8.2px; font-family: 'Times New Roman'; text-anchor: middle; fill: #1f2933" x="212.8248" y="133.203834" transform="rotate(-0 212.8248 133.203834)">Unique device_name values (name-level audit)</text>
   </g>
   <g id="text_11">
    <text style="font-size: 8.2px; font-family: 'Times New Roman'; fill: #66788a" transform="translate(286.271797 104.626334)">33 fewer names</text>
    <text style="font-size: 8.2px; font-family: 'Times New Roman'; fill: #66788a" transform="translate(280.460688 113.213015)">than configurations</text>
   </g>
   <g id="text_12">
    <text style="font-weight: 700; font-size: 9.5px; font-family: 'Times New Roman'; text-anchor: start; fill: #1f2933" x="36.9576" y="35.080243" transform="rotate(-0 36.9576 35.080243)">Counting-unit audit</text>
   </g>
   <g id="text_13">
    <text style="font-size: 8.2px; font-family: 'Times New Roman'; text-anchor: start; fill: #66788a" x="36.9576" y="44.048563" transform="rotate(-0 36.9576 44.048563)">The 1,029 unique configurations are the denominator used throughout the figure set.</text>
   </g>
  </g>
 </g>
 <defs>
  <clipPath id="p3f86272e36">
   <rect x="25.488" y="24.9984" width="382.32" height="121.4208"/>
  </clipPath>
 </defs>
</svg>
