<?xml version="1.0" encoding="utf-8" standalone="no"?>
<!DOCTYPE svg PUBLIC "-//W3C//DTD SVG 1.1//EN"
  "http://www.w3.org/Graphics/SVG/1.1/DTD/svg11.dtd">
<svg xmlns:xlink="http://www.w3.org/1999/xlink" width="424.8pt" height="172.8pt" viewBox="0 0 424.8 172.8" xmlns="http://www.w3.org/2000/svg" version="1.1">
 <metadata>
  <rdf:RDF xmlns:dc="http://purl.org/dc/elements/1.1/" xmlns:cc="http://creativecommons.org/ns#" xmlns:rdf="http://www.w3.org/1999/02/22-rdf-syntax-ns#">
   <cc:Work>
    <dc:type rdf:resource="http://purl.org/dc/dcmitype/StillImage"/>
    <dc:date>2026-07-21T17:40:18.827100</dc:date>
    <dc:format>image/svg+xml</dc:format>
    <dc:creator>
     <cc:Agent>
      <dc:title>Matplotlib v3.10.8, https://matplotlib.org/</dc:title>
     </cc:Agent>
    </dc:creator>
   </cc:Work>
  </rdf:RDF>
 </metadata>
 <defs>
  <style type="text/css">*{stroke-linejoin: round; stroke-linecap: butt}</style>
 </defs>
 <g id="figure_1">
  <g id="patch_1">
   <path d="M 0 172.8 
L 424.8 172.8 
L 424.8 0 
L 0 0 
z
" style="fill: #ffffff"/>
  </g>
  <g id="axes_1">
   <g id="patch_2">
    <path d="M 101.952 129.6 
L 399.312 129.6 
L 399.312 27.648 
L 101.952 27.648 
z
" style="fill: #ffffff"/>
   </g>
   <g id="LineCollection_1">
    <path d="M 101.952 32.282182 
L 164.817736 32.282182 
" clip-path="url(#p817215d2e0)" style="fill: none; stroke: #dce5ed; stroke-width: 1.35"/>
    <path d="M 101.952 50.818909 
L 160.761882 50.818909 
" clip-path="url(#p817215d2e0)" style="fill: none; stroke: #dce5ed; stroke-width: 1.35"/>
    <path d="M 101.952 69.355636 
L 156.706028 69.355636 
" clip-path="url(#p817215d2e0)" style="fill: none; stroke: #dce5ed; stroke-width: 1.35"/>
    <path d="M 101.952 87.892364 
L 155.185083 87.892364 
" clip-path="url(#p817215d2e0)" style="fill: none; stroke: #dce5ed; stroke-width: 1.35"/>
    <path d="M 101.952 106.429091 
L 150.115265 106.429091 
" clip-path="url(#p817215d2e0)" style="fill: none; stroke: #dce5ed; stroke-width: 1.35"/>
    <path d="M 101.952 124.965818 
L 345.810217 124.965818 
" clip-path="url(#p817215d2e0)" style="fill: none; stroke: #dce5ed; stroke-width: 1.35"/>
   </g>
   <g id="matplotlib.axis_1">
    <g id="xtick_1">
     <g id="line2d_1">
      <defs>
       <path id="mb8608627c6" d="M 0 0 
L 0 3.5 
" style="stroke: #1f2933; stroke-width: 0.65"/>
      </defs>
      <g>
       <use xlink:href="#mb8608627c6" x="101.952" y="129.6" style="fill: #1f2933; stroke: #1f2933; stroke-width: 0.65"/>
      </g>
     </g>
     <g id="text_1">
      <text style="font-size: 8.2px; font-family: 'Times New Roman'; text-anchor: middle; fill: #1f2933" x="101.952" y="142.293875" transform="rotate(-0 101.952 142.293875)">0</text>
     </g>
    </g>
    <g id="xtick_2">
     <g id="line2d_2">
      <g>
       <use xlink:href="#mb8608627c6" x="154.120421" y="129.6" style="fill: #1f2933; stroke: #1f2933; stroke-width: 0.65"/>
      </g>
     </g>
     <g id="text_2">
      <text style="font-size: 8.2px; font-family: 'Times New Roman'; text-anchor: middle; fill: #1f2933" x="154.120421" y="142.293875" transform="rotate(-0 154.120421 142.293875)">10</text>
     </g>
    </g>
    <g id="xtick_3">
     <g id="line2d_3">
      <g>
       <use xlink:href="#mb8608627c6" x="206.288842" y="129.6" style="fill: #1f2933; stroke: #1f2933; stroke-width: 0.65"/>
      </g>
     </g>
     <g id="text_3">
      <text style="font-size: 8.2px; font-family: 'Times New Roman'; text-anchor: middle; fill: #1f2933" x="206.288842" y="142.293875" transform="rotate(-0 206.288842 142.293875)">20</text>
     </g>
    </g>
    <g id="xtick_4">
     <g id="line2d_4">
      <g>
       <use xlink:href="#mb8608627c6" x="258.457263" y="129.6" style="fill: #1f2933; stroke: #1f2933; stroke-width: 0.65"/>
      </g>
     </g>
     <g id="text_4">
      <text style="font-size: 8.2px; font-family: 'Times New Roman'; text-anchor: middle; fill: #1f2933" x="258.457263" y="142.293875" transform="rotate(-0 258.457263 142.293875)">30</text>
     </g>
    </g>
    <g id="xtick_5">
     <g id="line2d_5">
      <g>
       <use xlink:href="#mb8608627c6" x="310.625684" y="129.6" style="fill: #1f2933; stroke: #1f2933; stroke-width: 0.65"/>
      </g>
     </g>
     <g id="text_5">
      <text style="font-size: 8.2px; font-family: 'Times New Roman'; text-anchor: middle; fill: #1f2933" x="310.625684" y="142.293875" transform="rotate(-0 310.625684 142.293875)">40</text>
     </g>
    </g>
    <g id="xtick_6">
     <g id="line2d_6">
      <g>
       <use xlink:href="#mb8608627c6" x="362.794105" y="129.6" style="fill: #1f2933; stroke: #1f2933; stroke-width: 0.65"/>
      </g>
     </g>
     <g id="text_6">
      <text style="font-size: 8.2px; font-family: 'Times New Roman'; text-anchor: middle; fill: #1f2933" x="362.794105" y="142.293875" transform="rotate(-0 362.794105 142.293875)">50</text>
     </g>
    </g>
    <g id="text_7">
     <text style="font-size: 9.5px; font-family: 'Times New Roman'; text-anchor: middle; fill: #1f2933" x="250.632" y="154.644469" transform="rotate(-0 250.632 154.644469)">Share of unique configurations (%)</text>
    </g>
   </g>
   <g id="matplotlib.axis_2">
    <g id="ytick_1">
     <g id="line2d_7">
      <defs>
       <path id="md1e4d2b295" d="M 0 0 
L -3.5 0 
" style="stroke: #1f2933; stroke-width: 0.65"/>
      </defs>
      <g>
       <use xlink:href="#md1e4d2b295" x="101.952" y="32.282182" style="fill: #1f2933; stroke: #1f2933; stroke-width: 0.65"/>
      </g>
     </g>
     <g id="text_8">
      <text style="font-size: 8.2px; font-family: 'Times New Roman'; text-anchor: end; fill: #1f2933" x="94.952" y="35.129119" transform="rotate(-0 94.952 35.129119)">vivo</text>
     </g>
    </g>
    <g id="ytick_2">
     <g id="line2d_8">
      <g>
       <use xlink:href="#md1e4d2b295" x="101.952" y="50.818909" style="fill: #1f2933; stroke: #1f2933; stroke-width: 0.65"/>
      </g>
     </g>
     <g id="text_9">
      <text style="font-size: 8.2px; font-family: 'Times New Roman'; text-anchor: end; fill: #1f2933" x="94.952" y="53.665847" transform="rotate(-0 94.952 53.665847)">OPPO</text>
     </g>
    </g>
    <g id="ytick_3">
     <g id="line2d_9">
      <g>
       <use xlink:href="#md1e4d2b295" x="101.952" y="69.355636" style="fill: #1f2933; stroke: #1f2933; stroke-width: 0.65"/>
      </g>
     </g>
     <g id="text_10">
      <text style="font-size: 8.2px; font-family: 'Times New Roman'; text-anchor: end; fill: #1f2933" x="94.952" y="72.194886" transform="rotate(-0 94.952 72.194886)">Samsung</text>
     </g>
    </g>
    <g id="ytick_4">
     <g id="line2d_10">
      <g>
       <use xlink:href="#md1e4d2b295" x="101.952" y="87.892364" style="fill: #1f2933; stroke: #1f2933; stroke-width: 0.65"/>
      </g>
     </g>
     <g id="text_11">
      <text style="font-size: 8.2px; font-family: 'Times New Roman'; text-anchor: end; fill: #1f2933" x="94.952" y="90.739301" transform="rotate(-0 94.952 90.739301)">HONOR</text>
     </g>
    </g>
    <g id="ytick_5">
     <g id="line2d_11">
      <g>
       <use xlink:href="#md1e4d2b295" x="101.952" y="106.429091" style="fill: #1f2933; stroke: #1f2933; stroke-width: 0.65"/>
      </g>
     </g>
     <g id="text_12">
      <text style="font-size: 8.2px; font-family: 'Times New Roman'; text-anchor: end; fill: #1f2933" x="94.952" y="109.276028" transform="rotate(-0 94.952 109.276028)">Xiaomi</text>
     </g>
    </g>
    <g id="ytick_6">
     <g id="line2d_12">
      <g>
       <use xlink:href="#md1e4d2b295" x="101.952" y="124.965818" style="fill: #1f2933; stroke: #1f2933; stroke-width: 0.65"/>
      </g>
     </g>
     <g id="text_13">
      <text style="font-size: 8.2px; font-family: 'Times New Roman'; text-anchor: end; fill: #1f2933" x="94.952" y="127.812756" transform="rotate(-0 94.952 127.812756)">Other categories</text>
     </g>
    </g>
   </g>
   <g id="patch_3">
    <path d="M 101.952 129.6 
L 101.952 27.648 
" style="fill: none; stroke: #000000; stroke-width: 0.65; stroke-linejoin: miter; stroke-linecap: square"/>
   </g>
   <g id="patch_4">
    <path d="M 101.952 129.6 
L 399.312 129.6 
" style="fill: none; stroke: #000000; stroke-width: 0.65; stroke-linejoin: miter; stroke-linecap: square"/>
   </g>
   <g id="PathCollection_1">
    <path d="M 164.817736 37.260133 
C 166.137904 37.260133 167.404179 36.735625 168.337679 35.802125 
C 169.271179 34.868625 169.795687 33.60235 169.795687 32.282182 
C 169.795687 30.962014 169.271179 29.695738 168.337679 28.762239 
C 167.404179 27.828739 166.137904 27.30423 164.817736 27.30423 
C 163.497568 27.30423 162.231292 27.828739 161.297793 28.762239 
C 160.364293 29.695738 159.839784 30.962014 159.839784 32.282182 
C 159.839784 33.60235 160.364293 34.868625 161.297793 35.802125 
C 162.231292 36.735625 163.497568 37.260133 164.817736 37.260133 
z
" clip-path="url(#p817215d2e0)" style="fill: #2a9d8f; stroke: #ffffff; stroke-width: 0.9"/>
    <path d="M 160.761882 55.719929 
C 162.061648 55.719929 163.308353 55.203527 164.227427 54.284454 
C 165.1465 53.365381 165.662902 52.118675 165.662902 50.818909 
C 165.662902 49.519143 165.1465 48.272438 164.227427 47.353364 
C 163.308353 46.434291 162.061648 45.917889 160.761882 45.917889 
C 159.462116 45.917889 158.21541 46.434291 157.296337 47.353364 
C 156.377264 48.272438 155.860862 49.519143 155.860862 50.818909 
C 155.860862 52.118675 156.377264 53.365381 157.296337 54.284454 
C 158.21541 55.203527 159.462116 55.719929 160.761882 55.719929 
z
" clip-path="url(#p817215d2e0)" style="fill: #2a9d8f; stroke: #ffffff; stroke-width: 0.9"/>
    <path d="M 156.706028 74.178499 
C 157.985066 74.178499 159.21189 73.670331 160.116307 72.765915 
C 161.020723 71.861498 161.52889 70.634674 161.52889 69.355636 
C 161.52889 68.076598 161.020723 66.849774 160.116307 65.945358 
C 159.21189 65.040941 157.985066 64.532774 156.706028 64.532774 
C 155.42699 64.532774 154.200166 65.040941 153.295749 65.945358 
C 152.391333 66.849774 151.883166 68.076598 151.883166 69.355636 
C 151.883166 70.634674 152.391333 71.861498 153.295749 72.765915 
C 154.200166 73.670331 155.42699 74.178499 156.706028 74.178499 
z
" clip-path="url(#p817215d2e0)" style="fill: #2a9d8f; stroke: #ffffff; stroke-width: 0.9"/>
    <path d="M 155.185083 92.685588 
C 156.456261 92.685588 157.675546 92.180544 158.574404 91.281685 
C 159.473263 90.382827 159.978307 89.163542 159.978307 87.892364 
C 159.978307 86.621186 159.473263 85.401901 158.574404 84.503042 
C 157.675546 83.604184 156.456261 83.099139 155.185083 83.099139 
C 153.913905 83.099139 152.69462 83.604184 151.795761 84.503042 
C 150.896903 85.401901 150.391858 86.621186 150.391858 87.892364 
C 150.391858 89.163542 150.896903 90.382827 151.795761 91.281685 
C 152.69462 92.180544 153.913905 92.685588 155.185083 92.685588 
z
" clip-path="url(#p817215d2e0)" style="fill: #2a9d8f; stroke: #ffffff; stroke-width: 0.9"/>
    <path d="M 150.115265 111.122171 
C 151.359885 111.122171 152.553695 110.627678 153.433774 109.7476 
C 154.313853 108.867521 154.808345 107.67371 154.808345 106.429091 
C 154.808345 105.184472 154.313853 103.990661 153.433774 103.110582 
C 152.553695 102.230503 151.359885 101.736011 150.115265 101.736011 
C 148.870646 101.736011 147.676835 102.230503 146.796757 103.110582 
C 145.916678 103.990661 145.422185 105.184472 145.422185 106.429091 
C 145.422185 107.67371 145.916678 108.867521 146.796757 109.7476 
C 147.676835 110.627678 148.870646 111.122171 150.115265 111.122171 
z
" clip-path="url(#p817215d2e0)" style="fill: #2a9d8f; stroke: #ffffff; stroke-width: 0.9"/>
    <path d="M 345.810217 132.627084 
C 347.842009 132.627084 349.790857 131.819845 351.22755 130.383151 
C 352.664244 128.946458 353.471483 126.99761 353.471483 124.965818 
C 353.471483 122.934027 352.664244 120.985178 351.22755 119.548485 
C 349.790857 118.111791 347.842009 117.304552 345.810217 117.304552 
C 343.778425 117.304552 341.829577 118.111791 340.392884 119.548485 
C 338.95619 120.985178 338.148951 122.934027 338.148951 124.965818 
C 338.148951 126.99761 338.95619 128.946458 340.392884 130.383151 
C 341.829577 131.819845 343.778425 132.627084 345.810217 132.627084 
z
" clip-path="url(#p817215d2e0)" style="fill: #8063a3; stroke: #ffffff; stroke-width: 0.9"/>
   </g>
   <g id="text_14">
    <text style="font-weight: 700; font-size: 8.2px; font-family: 'Times New Roman'; text-anchor: start; fill: #1f2933" x="171.860473" y="34.12526" transform="rotate(-0 171.860473 34.12526)">124  (12.1%)</text>
   </g>
   <g id="text_15">
    <text style="font-weight: 700; font-size: 8.2px; font-family: 'Times New Roman'; text-anchor: start; fill: #1f2933" x="167.804619" y="52.661987" transform="rotate(-0 167.804619 52.661987)">116  (11.3%)</text>
   </g>
   <g id="text_16">
    <text style="font-weight: 700; font-size: 8.2px; font-family: 'Times New Roman'; text-anchor: start; fill: #1f2933" x="163.748765" y="71.198714" transform="rotate(-0 163.748765 71.198714)">108  (10.5%)</text>
   </g>
   <g id="text_17">
    <text style="font-weight: 700; font-size: 8.2px; font-family: 'Times New Roman'; text-anchor: start; fill: #1f2933" x="162.22782" y="89.735442" transform="rotate(-0 162.22782 89.735442)">105  (10.2%)</text>
   </g>
   <g id="text_18">
    <text style="font-weight: 700; font-size: 8.2px; font-family: 'Times New Roman'; text-anchor: start; fill: #1f2933" x="157.158002" y="108.272169" transform="rotate(-0 157.158002 108.272169)">95  (9.2%)</text>
   </g>
   <g id="text_19">
    <text style="font-weight: 700; font-size: 8.2px; font-family: 'Times New Roman'; text-anchor: start; fill: #1f2933" x="352.852954" y="126.808896" transform="rotate(-0 352.852954 126.808896)">481  (46.7%)</text>
   </g>
   <g id="text_20">
    <text style="font-weight: 700; font-size: 8.2px; font-family: 'Times New Roman'; text-anchor: end; fill: #1d796e" x="397.8252" y="40.342703" transform="rotate(-0 397.8252 40.342703)">Top five named categories: 548 (53.3%)</text>
   </g>
   <g id="text_21">
    <text style="font-size: 9.5px; font-family: 'Times New Roman'; text-anchor: start; fill: #1f2933" x="101.952" y="17.648" transform="rotate(-0 101.952 17.648)">Normalized brand-category concentration</text>
   </g>
  </g>
  <g id="text_22">
   <text style="font-size: 8.2px; font-family: 'Times New Roman'; text-anchor: start; fill: #66788a" x="101.952" y="161.802234" transform="rotate(-0 101.952 161.802234)">“Other categories” pools the remaining normalized labels; not a market-share estimate.</text>
  </g>
 </g>
 <defs>
  <clipPath id="p817215d2e0">
   <rect x="101.952" y="27.648" width="297.36" height="101.952"/>
  </clipPath>
 </defs>
</svg>
