<svg xmlns="http://www.w3.org/2000/svg" width="180mm" height="89.2mm" viewBox="0 0 1800 892" role="img" aria-labelledby="title desc">
<title id="title">HybridGuard: multi-view observations, constrained rule development, and current-record decisions</title>
<desc id="desc">Style preview inspired by the visual organization of Figure 1 in the supplied Lower Barriers, Greater Threat paper. Native, WebView Host and App Web are App observations; the independent browser is separate. Development fixes App rules, freezes them, and accepts cross-endpoint timezone C1. Two current-record interfaces return T, F or U, with selected execution or binding errors recorded as FAILED. Host geometry and resource checks are separate studies, not integrated additions. No experiments or statistics were changed.</desc>
<style>text {font-family:'Times New Roman',Times,serif} use {fill:none;stroke:currentColor;stroke-width:2.6;stroke-linecap:round;stroke-linejoin:round}</style>
<defs>
<marker id="arrow" markerWidth="9" markerHeight="9" refX="8" refY="4.5" orient="auto" markerUnits="userSpaceOnUse"><path d="M0,0 L9,4.5 L0,9 L2.5,4.5 Z" fill="#343434"/></marker>
<symbol id="chip" viewBox="0 0 48 48"><rect x="11" y="11" width="26" height="26" rx="4"/><rect x="17" y="17" width="14" height="14" rx="2"/><path d="M17 5v6m7-6v6m7-6v6M17 37v6m7-6v6m7-6v6M5 17h6m-6 7h6m-6 7h6M37 17h6m-6 7h6m-6 7h6"/></symbol>
<symbol id="host" viewBox="0 0 48 48"><rect x="5" y="7" width="38" height="33" rx="4"/><path d="M5 15h38M11 11h1m5 0h1"/><rect x="13" y="22" width="22" height="12" rx="1"/><path d="M9 27h4m22 0h4M24 18v4m0 12v3"/></symbol>
<symbol id="web" viewBox="0 0 48 48"><rect x="4" y="7" width="40" height="34" rx="4"/><path d="M4 16h40M11 12h1m5 0h1M17 23l-6 6 6 6m14-12l6 6-6 6m-5-14l-4 16"/></symbol>
<symbol id="chain" viewBox="0 0 48 48"><path d="M20 30l-3 3a9 9 0 0 1-13-13l9-9a9 9 0 0 1 13 0m2 7l3-3a9 9 0 0 1 13 13l-9 9a9 9 0 0 1-13 0M17 31l14-14" transform="translate(1 -1) scale(.94)"/></symbol>
<symbol id="records" viewBox="0 0 48 48"><path d="M13 5h24v32H13zM7 12H4v32h25v-3M19 13h12m-12 8h12m-12 8h8"/></symbol>
<symbol id="alarm" viewBox="0 0 48 48"><path d="M11 31c5-6 4-11 4-16a9 9 0 0 1 18 0c0 5-1 10 4 16zM20 38a4 4 0 0 0 8 0M24 3v3"/></symbol>
<symbol id="coverage" viewBox="0 0 48 48"><circle cx="24" cy="24" r="17"/><path d="M15 24l6 7 13-15"/></symbol>
<symbol id="tree" viewBox="0 0 48 48"><rect x="19" y="4" width="10" height="10" rx="2"/><rect x="5" y="33" width="10" height="10" rx="2"/><rect x="33" y="33" width="10" height="10" rx="2"/><path d="M24 14v9M10 33V23h28v10"/></symbol>
<symbol id="rules" viewBox="0 0 48 48"><rect x="7" y="5" width="33" height="38" rx="4"/><path d="M13 15l3 3 4-6m5 3h9M13 26l3 3 4-6m5 3h9M13 36h21"/></symbol>
<symbol id="clocks" viewBox="0 0 48 48"><circle cx="16" cy="18" r="12"/><circle cx="33" cy="32" r="12"/><path d="M16 11v8l5 3m12 3v8l5 2M29 7h11v11m-1-10l-8 8M7 29v11h11m-10-1l8-8"/></symbol>
<symbol id="lock" viewBox="0 0 48 48"><rect x="10" y="21" width="28" height="22" rx="4"/><path d="M16 21v-9a8 8 0 0 1 16 0v9M24 29v7"/></symbol>
<symbol id="chart" viewBox="0 0 48 48"><path d="M7 6v36h35M15 34V22m10 12V12m10 22V17"/></symbol>
<symbol id="cost" viewBox="0 0 48 48"><circle cx="25" cy="25" r="17"/><path d="M25 14v12l8 5M19 3h12M25 3v5"/></symbol>
</defs>
<rect x="0" y="0" width="1800" height="892" rx="0" fill="white" stroke="none" stroke-width="1.8"/>
<text x="24" y="39" font-size="34" font-weight="bold" text-anchor="start" fill="#343434">HybridGuard: cross-view fingerprint consistency</text>
<text x="1776" y="39" font-size="27" font-weight="normal" text-anchor="end" fill="#606060">METHOD OVERVIEW</text>
<g id="observations">
<rect x="24" y="94" width="478" height="662" rx="0" fill="white" stroke="#777777" stroke-width="1.8" stroke-dasharray="5 5"/>
<circle cx="41" cy="94" r="20" fill="#507cc4" stroke="none" stroke-width="1.8"/>
<text x="41" y="103" font-size="28" font-weight="normal" text-anchor="middle" fill="white">1</text>
<rect x="66" y="70" width="424" height="39" rx="0" fill="white" stroke="none" stroke-width="1.8"/>
<text x="76" y="103" font-size="32" font-weight="bold" text-anchor="start" fill="#343434">Multi-view observations</text>
<text x="263" y="145" font-size="29" font-weight="normal" text-anchor="middle" fill="#606060" font-style="italic">Same physical device</text>
<rect x="48" y="176" width="252" height="338" rx="21" fill="white" stroke="#343434" stroke-width="2.2"/>
<text x="174" y="211" font-size="31" font-weight="bold" text-anchor="middle" fill="#343434">App177</text>
<rect x="64" y="228" width="220" height="73" rx="13" fill="#faf0e2" stroke="none" stroke-width="1.8"/>
<use href="#chip" x="78" y="244" width="43" height="43" color="#bd8b47"/>
<text x="137" y="258" font-size="30" font-weight="bold" text-anchor="start" fill="#343434">Native</text>
<text x="137" y="289" font-size="29" font-weight="normal" text-anchor="start" fill="#343434">84 signals</text>
<rect x="64" y="310" width="220" height="73" rx="13" fill="#e9f0f9" stroke="none" stroke-width="1.8"/>
<use href="#host" x="78" y="326" width="43" height="43" color="#507cc4"/>
<text x="137" y="340" font-size="30" font-weight="bold" text-anchor="start" fill="#343434">Host</text>
<text x="137" y="371" font-size="29" font-weight="normal" text-anchor="start" fill="#343434">26 signals</text>
<rect x="64" y="392" width="220" height="73" rx="13" fill="#edf3e9" stroke="none" stroke-width="1.8"/>
<use href="#web" x="78" y="408" width="43" height="43" color="#65855a"/>
<text x="137" y="422" font-size="30" font-weight="bold" text-anchor="start" fill="#343434">App Web</text>
<text x="137" y="453" font-size="29" font-weight="normal" text-anchor="start" fill="#343434">67 signals</text>
<path d="M147,490 L201,490" fill="none" stroke="#8a8a8a" stroke-width="3"/>
<text x="402" y="224" font-size="29" font-weight="normal" text-anchor="middle" fill="#606060" font-style="italic">Independent</text>
<rect x="326" y="248" width="151" height="167" rx="13" fill="white" stroke="#343434" stroke-width="2"/>
<path d="M326,275 L477,275" fill="none" stroke="#666666" stroke-width="1.8"/>
<circle cx="341" cy="261" r="3" fill="#898989" stroke="none" stroke-width="1.8"/>
<circle cx="353" cy="261" r="3" fill="#898989" stroke="none" stroke-width="1.8"/>
<circle cx="365" cy="261" r="3" fill="#898989" stroke="none" stroke-width="1.8"/>
<use href="#web" x="371" y="292" width="62" height="62" color="#65855a"/>
<text x="401.5" y="390" font-size="29" font-weight="bold" text-anchor="middle" fill="#343434">Browser67</text>
<path d="M174 514 V552 H270 V584" fill="none" stroke="#343434" stroke-width="2" stroke-linejoin="round" stroke-linecap="round" marker-end="url(#arrow)"/>
<path d="M402 415 V552 H270" fill="none" stroke="#343434" stroke-width="2" stroke-linejoin="round" stroke-linecap="round"/>
<circle cx="270" cy="552" r="3.7" fill="#343434" stroke="none" stroke-width="1.8"/>
<rect x="53" y="589" width="420" height="94" rx="16" fill="#f6f6f3" stroke="#343434" stroke-width="1.6"/>
<use href="#chain" x="74" y="615" width="44" height="44" color="#507cc4"/>
<text x="132" y="624" font-size="29" font-weight="bold" text-anchor="start" fill="#343434">Session / receipt binding</text>
<text x="132" y="661" font-size="31" font-weight="normal" text-anchor="start" fill="#343434">paired244</text>
<text x="263" y="732" font-size="29" font-weight="normal" text-anchor="middle" fill="#606060" font-style="italic">Binding IDs are not features</text>
</g>
<path d="M509 422 H552" fill="none" stroke="#343434" stroke-width="2.2" stroke-linejoin="round" stroke-linecap="round" marker-end="url(#arrow)"/>
<g id="development">
<rect x="560" y="94" width="662" height="662" rx="0" fill="white" stroke="#777777" stroke-width="1.8" stroke-dasharray="5 5"/>
<circle cx="577" cy="94" r="20" fill="#507cc4" stroke="none" stroke-width="1.8"/>
<text x="577" y="103" font-size="28" font-weight="normal" text-anchor="middle" fill="white">2</text>
<rect x="602" y="70" width="608" height="39" rx="0" fill="white" stroke="none" stroke-width="1.8"/>
<text x="612" y="103" font-size="32" font-weight="bold" text-anchor="start" fill="#343434">Constrained rule development</text>
<rect x="583" y="145" width="616" height="94" rx="18" fill="#faf0e2" stroke="none" stroke-width="1.8"/>
<use href="#records" x="604" y="169" width="48" height="48" color="#bd8b47"/>
<text x="669" y="180" font-size="29" font-weight="bold" text-anchor="start" fill="#343434">Controlled changes + normal controls</text>
<text x="669" y="218" font-size="29" font-weight="normal" text-anchor="start" fill="#343434">MTC630 normal training records</text>
<path d="M891 241 V259" fill="none" stroke="#343434" stroke-width="2" stroke-linejoin="round" stroke-linecap="round" marker-end="url(#arrow)"/>
<rect x="585" y="269" width="612" height="81" rx="18" fill="#e3e9f7" stroke="none" stroke-width="1.8"/>
<use href="#alarm" x="671" y="277" width="32" height="32" color="#507cc4"/>
<text x="687" y="338" font-size="29" font-weight="normal" text-anchor="middle" fill="#343434">Normal alarms</text>
<use href="#coverage" x="875" y="277" width="32" height="32" color="#507cc4"/>
<text x="891" y="338" font-size="29" font-weight="normal" text-anchor="middle" fill="#343434">Defined output</text>
<use href="#tree" x="1079" y="277" width="32" height="32" color="#507cc4"/>
<text x="1095" y="338" font-size="29" font-weight="normal" text-anchor="middle" fill="#343434">Complexity</text>
<path d="M891 351 V374" fill="none" stroke="#343434" stroke-width="2" stroke-linejoin="round" stroke-linecap="round" marker-end="url(#arrow)"/>
<rect x="594" y="381" width="592" height="93" rx="16" fill="#e9f0f9" stroke="#343434" stroke-width="1.6"/>
<use href="#rules" x="618" y="402" width="47" height="47" color="#507cc4"/>
<text x="686" y="416" font-size="33" font-weight="bold" text-anchor="start" fill="#343434">Fixed App rules</text>
<text x="686" y="451" font-size="29" font-weight="normal" text-anchor="start" fill="#343434">Select within-App candidates</text>
<path d="M891 476 V517" fill="none" stroke="#343434" stroke-width="2" stroke-linejoin="round" stroke-linecap="round" marker-end="url(#arrow)"/>
<text x="921" y="504" font-size="29" font-weight="normal" text-anchor="start" fill="#606060" font-style="italic">Freeze App</text>
<rect x="594" y="523" width="592" height="94" rx="16" fill="#edf3e9" stroke="#343434" stroke-width="1.6"/>
<use href="#clocks" x="618" y="548" width="47" height="47" color="#65855a"/>
<text x="686" y="558" font-size="33" font-weight="bold" text-anchor="start" fill="#343434">App + C1</text>
<text x="686" y="594" font-size="29" font-weight="normal" text-anchor="start" fill="#343434">Accept cross-endpoint timezone</text>
<rect x="594" y="649" width="592" height="77" rx="12" fill="white" stroke="#949494" stroke-width="1.6" stroke-dasharray="5 4"/>
<text x="890" y="680" font-size="29" font-weight="normal" text-anchor="middle" fill="#343434">Host geometry / resource checks</text>
<text x="890" y="713" font-size="29" font-weight="normal" text-anchor="middle" fill="#606060" font-style="italic">Tested separately; not integrated</text>
</g>
<g id="decision">
<rect x="1280" y="94" width="496" height="662" rx="0" fill="white" stroke="#777777" stroke-width="1.8" stroke-dasharray="5 5"/>
<circle cx="1297" cy="94" r="20" fill="#507cc4" stroke="none" stroke-width="1.8"/>
<text x="1297" y="103" font-size="28" font-weight="normal" text-anchor="middle" fill="white">3</text>
<rect x="1322" y="70" width="442" height="39" rx="0" fill="white" stroke="none" stroke-width="1.8"/>
<text x="1332" y="103" font-size="32" font-weight="bold" text-anchor="start" fill="#343434">Current-record decision</text>
<rect x="1302" y="145" width="452" height="94" rx="16" fill="white" stroke="none" stroke-width="1.8"/>
<use href="#records" x="1316" y="169" width="46" height="46" color="#507cc4"/>
<text x="1380" y="180" font-size="31" font-weight="bold" text-anchor="start" fill="#343434">Current observations</text>
<text x="1380" y="217" font-size="29" font-weight="normal" text-anchor="start" fill="#343434">App only / bound pair</text>
<path d="M1528 240 V269" fill="none" stroke="#343434" stroke-width="2" stroke-linejoin="round" stroke-linecap="round" marker-end="url(#arrow)"/>
<rect x="1330" y="279" width="396" height="53" rx="13" fill="#faf0e2" stroke="none" stroke-width="1.8"/>
<text x="1528" y="314" font-size="30" font-weight="normal" text-anchor="middle" fill="#343434">Required-input checks</text>
<path d="M1528 335 V372" fill="none" stroke="#343434" stroke-width="2" stroke-linejoin="round" stroke-linecap="round" marker-end="url(#arrow)"/>
<rect x="1304" y="381" width="448" height="242" rx="16" fill="white" stroke="#808080" stroke-width="1.5"/>
<rect x="1317" y="390" width="422" height="76" rx="12" fill="#e9f0f9" stroke="none" stroke-width="1.8"/>
<text x="1528" y="421" font-size="31" font-weight="bold" text-anchor="middle" fill="#343434">App-only interface</text>
<text x="1528" y="453" font-size="29" font-weight="normal" text-anchor="middle" fill="#343434">Fixed App rules</text>
<path d="M1336,499 L1487,499" fill="none" stroke="#b1b1b1" stroke-width="1.3" stroke-dasharray="4 4"/>
<text x="1528" y="508" font-size="29" font-weight="normal" text-anchor="middle" fill="#606060" font-style="italic">or</text>
<path d="M1569,499 L1720,499" fill="none" stroke="#b1b1b1" stroke-width="1.3" stroke-dasharray="4 4"/>
<rect x="1317" y="534" width="422" height="76" rx="12" fill="#edf3e9" stroke="none" stroke-width="1.8"/>
<text x="1528" y="565" font-size="31" font-weight="bold" text-anchor="middle" fill="#343434">Paired interface</text>
<text x="1528" y="597" font-size="29" font-weight="normal" text-anchor="middle" fill="#343434">Fixed App + C1</text>
<path d="M1528 625 V657" fill="none" stroke="#343434" stroke-width="2" stroke-linejoin="round" stroke-linecap="round" marker-end="url(#arrow)"/>
<circle cx="1328" cy="682" r="16" fill="#bd5049" stroke="none" stroke-width="1.8"/>
<text x="1328" y="692" font-size="28" font-weight="bold" text-anchor="middle" fill="white">T</text>
<text x="1352" y="692" font-size="29" font-weight="normal" text-anchor="start" fill="#343434">Alarm</text>
<circle cx="1467" cy="682" r="16" fill="#65855a" stroke="none" stroke-width="1.8"/>
<text x="1467" y="692" font-size="28" font-weight="bold" text-anchor="middle" fill="white">F</text>
<text x="1491" y="692" font-size="29" font-weight="normal" text-anchor="start" fill="#343434">No alarm</text>
<circle cx="1627" cy="682" r="16" fill="#bd8b47" stroke="none" stroke-width="1.8"/>
<text x="1627" y="692" font-size="28" font-weight="bold" text-anchor="middle" fill="white">U</text>
<text x="1651" y="692" font-size="29" font-weight="normal" text-anchor="start" fill="#343434">Unknown</text>
<text x="1528" y="737" font-size="29" font-weight="normal" text-anchor="middle" fill="#606060">Execution / binding error → FAILED</text>
</g>
<path d="M1187 428 H1310" fill="none" stroke="#343434" stroke-width="2.2" stroke-linejoin="round" stroke-linecap="round" marker-end="url(#arrow)"/>
<rect x="1227" y="394" width="56" height="26" rx="0" fill="white" stroke="none" stroke-width="1.8"/>
<text x="1255" y="416" font-size="29" font-weight="normal" text-anchor="middle" fill="#606060" font-style="italic">load</text>
<path d="M1187 571 H1310" fill="none" stroke="#343434" stroke-width="2.2" stroke-linejoin="round" stroke-linecap="round" marker-end="url(#arrow)"/>
<rect x="1227" y="537" width="56" height="26" rx="0" fill="white" stroke="none" stroke-width="1.8"/>
<text x="1255" y="559" font-size="29" font-weight="normal" text-anchor="middle" fill="#606060" font-style="italic">load</text>
<g id="evaluation-evidence">
<rect x="24" y="791" width="1752" height="68" rx="10" fill="#f6f6f3" stroke="#bebeba" stroke-width="1.3"/>
<text x="47" y="834" font-size="31" font-weight="bold" text-anchor="start" fill="#343434">Saved evaluation</text>
<path d="M281,805 L281,845" fill="none" stroke="#c0c0ba" stroke-width="1.3"/>
<path d="M642,805 L642,845" fill="none" stroke="#c0c0ba" stroke-width="1.3"/>
<path d="M1014,805 L1014,845" fill="none" stroke="#c0c0ba" stroke-width="1.3"/>
<path d="M1361,805 L1361,845" fill="none" stroke="#c0c0ba" stroke-width="1.3"/>
<use href="#chart" x="306" y="809" width="33" height="33" color="#507cc4"/>
<text x="354" y="834" font-size="30" font-weight="normal" text-anchor="start" fill="#343434">App + ablations</text>
<use href="#records" x="665" y="809" width="33" height="33" color="#507cc4"/>
<text x="711" y="834" font-size="30" font-weight="normal" text-anchor="start" fill="#343434">MTC: 144 / 117</text>
<use href="#chain" x="1038" y="809" width="33" height="33" color="#65855a"/>
<text x="1086" y="834" font-size="30" font-weight="normal" text-anchor="start" fill="#343434">Paired studies</text>
<use href="#cost" x="1385" y="809" width="33" height="33" color="#bd8b47"/>
<text x="1432" y="834" font-size="30" font-weight="normal" text-anchor="start" fill="#343434">Specialists + cost</text>
</g>
</svg>
