<svg xmlns="http://www.w3.org/2000/svg" width="24" height="24" viewBox="0 0 24 24"><path d="M16 17v2a2 2 0 0 1 -2 2h-7a2 2 0 0 1 -2 -2v-10a2 2 0 0 1 2 -2h2" stroke="#80649b" stroke-width="0.66" fill="#d6c5e6" stroke-linecap="round" stroke-linejoin="round"/><path d="M18 17h-7a2 2 0 0 1 -2 -2v-10a2 2 0 0 1 2 -2h4l5 5v7a2 2 0 0 1 -2 2z" stroke="#80649b" stroke-width="0.68" fill="white" stroke-linecap="round" stroke-linejoin="round"/><path d="M15 3v4a1 1 0 0 0 1 1h4Z" stroke="none" stroke-width="0" fill="#d6c5e6" stroke-linecap="round" stroke-linejoin="round"/><path d="M15 3v4a1 1 0 0 0 1 1h4" stroke="#80649b" stroke-width="0.58" fill="none" stroke-linecap="round" stroke-linejoin="round"/><path d="M12 11h5M12 13.5h3.5" stroke="#80649b" stroke-width="0.4" fill="none" stroke-linecap="round" stroke-linejoin="round"/></svg>
