<svg xmlns="http://www.w3.org/2000/svg" width="24" height="24" viewBox="0 0 24 24"><path d="M17 21h-10a2 2 0 0 1 -2 -2v-14a2 2 0 0 1 2 -2h7l5 5v11a2 2 0 0 1 -2 2z" stroke="#80649b" stroke-width="0.66" fill="white" stroke-linecap="round" stroke-linejoin="round"/><path d="M14 3v4a1 1 0 0 0 1 1h4Z" stroke="none" stroke-width="0" fill="#d6c5e6" stroke-linecap="round" stroke-linejoin="round"/><path d="M14 3v4a1 1 0 0 0 1 1h4" stroke="#80649b" stroke-width="0.58" fill="none" stroke-linecap="round" stroke-linejoin="round"/><path d="M9 9l1 0" stroke="#80649b" stroke-width="0.44" fill="none" stroke-linecap="round" stroke-linejoin="round"/><path d="M9 13l6 0" stroke="#80649b" stroke-width="0.44" fill="none" stroke-linecap="round" stroke-linejoin="round"/><path d="M9 17l6 0" stroke="#80649b" stroke-width="0.44" fill="none" stroke-linecap="round" stroke-linejoin="round"/></svg>
