<svg xmlns="http://www.w3.org/2000/svg" width="24" height="24" viewBox="0 0 24 24" role="img" aria-labelledby="title desc"><title id="title">native adapted icon</title><desc id="desc">Three observations in the same app on one device. Solid blue compares Native and App Web; dashed ochre Host–App Web geometry is not in the current detector; dotted gray Native–Host is shared context only and has no arrow. The observations are not trusted ground truth. A review sample only; the rest of the method remains in the unchanged formal figure.</desc><style>text {font-family:'Times New Roman',Times,serif}</style><!-- Adapted Tabler Icons v3.34.1; MIT, Copyright (c) 2020-2024 Pawel Kuna. Full notice and modifications: assets/tabler/LICENSE and assets/SOURCES.md. --><path d="M6 5a2 2 0 0 1 2 -2h8a2 2 0 0 1 2 2v14a2 2 0 0 1 -2 2h-8a2 2 0 0 1 -2 -2v-14z" stroke="#806442" stroke-width="0.6" fill="#ecd8b9" stroke-linecap="round" stroke-linejoin="round"/><rect x="7.35" y="5.65" width="9.3" height="11.5" rx="0.7" fill="white" stroke="#806442" stroke-width="0.28"/><path d="M11 4h2" stroke="#806442" stroke-width="0.52" fill="none" stroke-linecap="round" stroke-linejoin="round"/><path d="M11.1 19h1.8" stroke="#806442" stroke-width="0.52" fill="none" stroke-linecap="round" stroke-linejoin="round"/><g transform="translate(7.65 7.2) scale(.36)"><path d="M14 6m-2 0a2 2 0 1 0 4 0a2 2 0 1 0 -4 0" stroke="#806442" stroke-width="1.35" fill="none" stroke-linecap="round" stroke-linejoin="round"/><path d="M4 6l8 0" stroke="#806442" stroke-width="1.35" fill="none" stroke-linecap="round" stroke-linejoin="round"/><path d="M16 6l4 0" stroke="#806442" stroke-width="1.35" fill="none" stroke-linecap="round" stroke-linejoin="round"/><path d="M8 12m-2 0a2 2 0 1 0 4 0a2 2 0 1 0 -4 0" stroke="#806442" stroke-width="1.35" fill="none" stroke-linecap="round" stroke-linejoin="round"/><path d="M4 12l2 0" stroke="#806442" stroke-width="1.35" fill="none" stroke-linecap="round" stroke-linejoin="round"/><path d="M10 12l10 0" stroke="#806442" stroke-width="1.35" fill="none" stroke-linecap="round" stroke-linejoin="round"/><path d="M17 18m-2 0a2 2 0 1 0 4 0a2 2 0 1 0 -4 0" stroke="#806442" stroke-width="1.35" fill="none" stroke-linecap="round" stroke-linejoin="round"/><path d="M4 18l11 0" stroke="#806442" stroke-width="1.35" fill="none" stroke-linecap="round" stroke-linejoin="round"/><path d="M19 18l1 0" stroke="#806442" stroke-width="1.35" fill="none" stroke-linecap="round" stroke-linejoin="round"/></g></svg>