<svg width="800" height="800" viewBox="0 0 32 32" xmlns="http://www.w3.org/2000/svg" xmlns:xlink="http://www.w3.org/1999/xlink" id="Glyph" stroke="#3366CC" fill="#3366CC" xml:space="preserve" overflow="hidden"><g id="SVGRepo_bgCarrier" stroke-width="0"></g><g id="SVGRepo_tracerCarrier" stroke-linecap="round" stroke-linejoin="round"></g><g id="SVGRepo_iconCarrier"><path d="M16 13C14.346 13 13 14.346 13 16 13 17.654 14.346 19 16 19 17.654 19 19 17.654 19 16 19 14.346 17.654 13 16 13Z" id="XMLID_287_"/><path d="M6 13C4.346 13 3 14.346 3 16 3 17.654 4.346 19 6 19 7.654 19 9 17.654 9 16 9 14.346 7.654 13 6 13Z" id="XMLID_289_"/><path d="M26 13C24.346 13 23 14.346 23 16 23 17.654 24.346 19 26 19 27.654 19 29 17.654 29 16 29 14.346 27.654 13 26 13Z" id="XMLID_291_"/></g></svg>