<?xml version="1.0" encoding="utf-8" standalone="no"?>
<!DOCTYPE svg PUBLIC "-//W3C//DTD SVG 1.1//EN"
  "http://www.w3.org/Graphics/SVG/1.1/DTD/svg11.dtd">
<svg xmlns:xlink="http://www.w3.org/1999/xlink" width="240.944882pt" height="320.314961pt" viewBox="0 0 240.944882 320.314961" xmlns="http://www.w3.org/2000/svg" version="1.1">
 <metadata>
  <rdf:RDF xmlns:dc="http://purl.org/dc/elements/1.1/" xmlns:cc="http://creativecommons.org/ns#" xmlns:rdf="http://www.w3.org/1999/02/22-rdf-syntax-ns#">
   <cc:Work>
    <dc:type rdf:resource="http://purl.org/dc/dcmitype/StillImage"/>
    <dc:format>image/svg+xml</dc:format>
    <dc:creator>
     <cc:Agent>
      <dc:title>Matplotlib v3.10.6, https://matplotlib.org/</dc:title>
     </cc:Agent>
    </dc:creator>
   </cc:Work>
  </rdf:RDF>
 </metadata>
 <defs>
  <style type="text/css">*{stroke-linejoin: round; stroke-linecap: butt}</style>
 </defs>
 <g id="figure_1">
  <g id="patch_1">
   <path d="M 0 320.314961 
L 240.944882 320.314961 
L 240.944882 0 
L 0 0 
z
" style="fill: #ffffff"/>
  </g>
  <g id="axes_1">
   <g id="patch_2">
    <path d="M 96.377953 201.798425 
L 228.897638 201.798425 
L 228.897638 51.250394 
L 96.377953 51.250394 
z
" style="fill: #ffffff"/>
   </g>
   <g id="QuadMesh_1">
    <path d="M 96.377953 51.250394 
L 162.637795 51.250394 
L 162.637795 88.887402 
L 96.377953 88.887402 
L 96.377953 51.250394 
" clip-path="url(#paa0f5c02cc)" style="fill: #f1f5f8; stroke: #ffffff; stroke-width: 0.6"/>
    <path d="M 162.637795 51.250394 
L 228.897638 51.250394 
L 228.897638 88.887402 
L 162.637795 88.887402 
L 162.637795 51.250394 
" clip-path="url(#paa0f5c02cc)" style="fill: #f1f5f8; stroke: #ffffff; stroke-width: 0.6"/>
    <path d="M 96.377953 88.887402 
L 162.637795 88.887402 
L 162.637795 126.524409 
L 96.377953 126.524409 
L 96.377953 88.887402 
" clip-path="url(#paa0f5c02cc)" style="fill: #1b5578; stroke: #ffffff; stroke-width: 0.6"/>
    <path d="M 162.637795 88.887402 
L 228.897638 88.887402 
L 228.897638 126.524409 
L 162.637795 126.524409 
L 162.637795 88.887402 
" clip-path="url(#paa0f5c02cc)" style="fill: #1b5578; stroke: #ffffff; stroke-width: 0.6"/>
    <path d="M 96.377953 126.524409 
L 162.637795 126.524409 
L 162.637795 164.161417 
L 96.377953 164.161417 
L 96.377953 126.524409 
" clip-path="url(#paa0f5c02cc)" style="fill: #f1f5f8; stroke: #ffffff; stroke-width: 0.6"/>
    <path d="M 162.637795 126.524409 
L 228.897638 126.524409 
L 228.897638 164.161417 
L 162.637795 164.161417 
L 162.637795 126.524409 
" clip-path="url(#paa0f5c02cc)" style="fill: #f1f5f8; stroke: #ffffff; stroke-width: 0.6"/>
    <path d="M 96.377953 164.161417 
L 162.637795 164.161417 
L 162.637795 201.798425 
L 96.377953 201.798425 
L 96.377953 164.161417 
" clip-path="url(#paa0f5c02cc)" style="fill: #f1f5f8; stroke: #ffffff; stroke-width: 0.6"/>
    <path d="M 162.637795 164.161417 
L 228.897638 164.161417 
L 228.897638 201.798425 
L 162.637795 201.798425 
L 162.637795 164.161417 
" clip-path="url(#paa0f5c02cc)" style="fill: #1b5578; stroke: #ffffff; stroke-width: 0.6"/>
   </g>
   <g id="matplotlib.axis_1">
    <g id="xtick_1">
     <g id="line2d_1"/>
     <g id="text_1">
      <text style="font-size: 8px; font-family: 'DejaVu Sans'; text-anchor: middle" x="129.507874" y="213.877175" transform="rotate(-0 129.507874 213.877175)">Full App</text>
     </g>
    </g>
    <g id="xtick_2">
     <g id="line2d_2"/>
     <g id="text_2">
      <text style="font-size: 8px; font-family: 'DejaVu Sans'" transform="translate(170.246467 213.877175)">App + cross-</text>
      <text style="font-size: 8px; font-family: 'DejaVu Sans'" transform="translate(171.576467 222.835425)">endpoint TZ</text>
     </g>
    </g>
   </g>
   <g id="matplotlib.axis_2">
    <g id="ytick_1">
     <g id="line2d_3"/>
     <g id="text_3">
      <text style="font-size: 8px; font-family: 'DejaVu Sans'; text-anchor: end" x="90.377953" y="73.108273" transform="rotate(-0 90.377953 73.108273)">App language</text>
     </g>
    </g>
    <g id="ytick_2">
     <g id="line2d_4"/>
     <g id="text_4">
      <text style="font-size: 8px; font-family: 'DejaVu Sans'; text-anchor: end" x="90.377953" y="110.745281" transform="rotate(-0 90.377953 110.745281)">App timezone</text>
     </g>
    </g>
    <g id="ytick_3">
     <g id="line2d_5"/>
     <g id="text_5">
      <text style="font-size: 8px; font-family: 'DejaVu Sans'; text-anchor: end" x="90.377953" y="148.382288" transform="rotate(-0 90.377953 148.382288)">Browser language</text>
     </g>
    </g>
    <g id="ytick_4">
     <g id="line2d_6"/>
     <g id="text_6">
      <text style="font-size: 8px; font-family: 'DejaVu Sans'; text-anchor: end" x="90.377953" y="186.019296" transform="rotate(-0 90.377953 186.019296)">Browser timezone</text>
     </g>
    </g>
   </g>
   <g id="text_7">
    <text style="font-size: 9px; font-family: 'DejaVu Sans'; text-anchor: middle; fill: #192a35" x="129.507874" y="72.552335" transform="rotate(-0 129.507874 72.552335)">0/2</text>
   </g>
   <g id="text_8">
    <text style="font-size: 9px; font-family: 'DejaVu Sans'; text-anchor: middle; fill: #ffffff" x="129.507874" y="110.189343" transform="rotate(-0 129.507874 110.189343)">2/2</text>
   </g>
   <g id="text_9">
    <text style="font-size: 9px; font-family: 'DejaVu Sans'; text-anchor: middle; fill: #192a35" x="129.507874" y="147.826351" transform="rotate(-0 129.507874 147.826351)">0/5</text>
   </g>
   <g id="text_10">
    <text style="font-size: 9px; font-family: 'DejaVu Sans'; text-anchor: middle; fill: #192a35" x="129.507874" y="185.463359" transform="rotate(-0 129.507874 185.463359)">0/5</text>
   </g>
   <g id="text_11">
    <text style="font-size: 9px; font-family: 'DejaVu Sans'; text-anchor: middle; fill: #192a35" x="195.767717" y="72.552335" transform="rotate(-0 195.767717 72.552335)">0/2</text>
   </g>
   <g id="text_12">
    <text style="font-size: 9px; font-family: 'DejaVu Sans'; text-anchor: middle; fill: #ffffff" x="195.767717" y="110.189343" transform="rotate(-0 195.767717 110.189343)">2/2</text>
   </g>
   <g id="text_13">
    <text style="font-size: 9px; font-family: 'DejaVu Sans'; text-anchor: middle; fill: #192a35" x="195.767717" y="147.826351" transform="rotate(-0 195.767717 147.826351)">0/5</text>
   </g>
   <g id="text_14">
    <text style="font-size: 9px; font-family: 'DejaVu Sans'; text-anchor: middle; fill: #ffffff" x="195.767717" y="185.463359" transform="rotate(-0 195.767717 185.463359)">5/5</text>
   </g>
  </g>
  <g id="axes_2">
   <g id="patch_3">
    <path d="M 98.787402 248.244094 
L 221.669291 248.244094 
L 221.669291 240.23622 
L 98.787402 240.23622 
z
" style="fill: #ffffff"/>
   </g>
   <g id="QuadMesh_2">
    <path d="M 98.787402 248.244094 
L 98.787402 240.23622 
L 99.267409 240.23622 
L 99.267409 248.244094 
L 98.787402 248.244094 
" clip-path="url(#p0caf3ec2d7)" style="fill: #f1f5f8"/>
    <path d="M 99.267409 248.244094 
L 99.267409 240.23622 
L 99.747416 240.23622 
L 99.747416 248.244094 
L 99.267409 248.244094 
" clip-path="url(#p0caf3ec2d7)" style="fill: #f0f4f7"/>
    <path d="M 99.747416 248.244094 
L 99.747416 240.23622 
L 100.227424 240.23622 
L 100.227424 248.244094 
L 99.747416 248.244094 
" clip-path="url(#p0caf3ec2d7)" style="fill: #eff4f7"/>
    <path d="M 100.227424 248.244094 
L 100.227424 240.23622 
L 100.707431 240.23622 
L 100.707431 248.244094 
L 100.227424 248.244094 
" clip-path="url(#p0caf3ec2d7)" style="fill: #eef3f6"/>
    <path d="M 100.707431 248.244094 
L 100.707431 240.23622 
L 101.187438 240.23622 
L 101.187438 248.244094 
L 100.707431 248.244094 
" clip-path="url(#p0caf3ec2d7)" style="fill: #eef2f6"/>
    <path d="M 101.187438 248.244094 
L 101.187438 240.23622 
L 101.667446 240.23622 
L 101.667446 248.244094 
L 101.187438 248.244094 
" clip-path="url(#p0caf3ec2d7)" style="fill: #edf2f5"/>
    <path d="M 101.667446 248.244094 
L 101.667446 240.23622 
L 102.147453 240.23622 
L 102.147453 248.244094 
L 101.667446 248.244094 
" clip-path="url(#p0caf3ec2d7)" style="fill: #ecf1f5"/>
    <path d="M 102.147453 248.244094 
L 102.147453 240.23622 
L 102.627461 240.23622 
L 102.627461 248.244094 
L 102.147453 248.244094 
" clip-path="url(#p0caf3ec2d7)" style="fill: #ebf1f4"/>
    <path d="M 102.627461 248.244094 
L 102.627461 240.23622 
L 103.107468 240.23622 
L 103.107468 248.244094 
L 102.627461 248.244094 
" clip-path="url(#p0caf3ec2d7)" style="fill: #eaf0f4"/>
    <path d="M 103.107468 248.244094 
L 103.107468 240.23622 
L 103.587475 240.23622 
L 103.587475 248.244094 
L 103.107468 248.244094 
" clip-path="url(#p0caf3ec2d7)" style="fill: #e9eff3"/>
    <path d="M 103.587475 248.244094 
L 103.587475 240.23622 
L 104.067483 240.23622 
L 104.067483 248.244094 
L 103.587475 248.244094 
" clip-path="url(#p0caf3ec2d7)" style="fill: #e9eff3"/>
    <path d="M 104.067483 248.244094 
L 104.067483 240.23622 
L 104.54749 240.23622 
L 104.54749 248.244094 
L 104.067483 248.244094 
" clip-path="url(#p0caf3ec2d7)" style="fill: #e8eef2"/>
    <path d="M 104.54749 248.244094 
L 104.54749 240.23622 
L 105.027498 240.23622 
L 105.027498 248.244094 
L 104.54749 248.244094 
" clip-path="url(#p0caf3ec2d7)" style="fill: #e7edf2"/>
    <path d="M 105.027498 248.244094 
L 105.027498 240.23622 
L 105.507505 240.23622 
L 105.507505 248.244094 
L 105.027498 248.244094 
" clip-path="url(#p0caf3ec2d7)" style="fill: #e6edf1"/>
    <path d="M 105.507505 248.244094 
L 105.507505 240.23622 
L 105.987512 240.23622 
L 105.987512 248.244094 
L 105.507505 248.244094 
" clip-path="url(#p0caf3ec2d7)" style="fill: #e5ecf1"/>
    <path d="M 105.987512 248.244094 
L 105.987512 240.23622 
L 106.46752 240.23622 
L 106.46752 248.244094 
L 105.987512 248.244094 
" clip-path="url(#p0caf3ec2d7)" style="fill: #e4ecf0"/>
    <path d="M 106.46752 248.244094 
L 106.46752 240.23622 
L 106.947527 240.23622 
L 106.947527 248.244094 
L 106.46752 248.244094 
" clip-path="url(#p0caf3ec2d7)" style="fill: #e4ebf0"/>
    <path d="M 106.947527 248.244094 
L 106.947527 240.23622 
L 107.427534 240.23622 
L 107.427534 248.244094 
L 106.947527 248.244094 
" clip-path="url(#p0caf3ec2d7)" style="fill: #e3eaef"/>
    <path d="M 107.427534 248.244094 
L 107.427534 240.23622 
L 107.907542 240.23622 
L 107.907542 248.244094 
L 107.427534 248.244094 
" clip-path="url(#p0caf3ec2d7)" style="fill: #e2eaef"/>
    <path d="M 107.907542 248.244094 
L 107.907542 240.23622 
L 108.387549 240.23622 
L 108.387549 248.244094 
L 107.907542 248.244094 
" clip-path="url(#p0caf3ec2d7)" style="fill: #e1e9ee"/>
    <path d="M 108.387549 248.244094 
L 108.387549 240.23622 
L 108.867557 240.23622 
L 108.867557 248.244094 
L 108.387549 248.244094 
" clip-path="url(#p0caf3ec2d7)" style="fill: #e0e8ee"/>
    <path d="M 108.867557 248.244094 
L 108.867557 240.23622 
L 109.347564 240.23622 
L 109.347564 248.244094 
L 108.867557 248.244094 
" clip-path="url(#p0caf3ec2d7)" style="fill: #dfe8ed"/>
    <path d="M 109.347564 248.244094 
L 109.347564 240.23622 
L 109.827571 240.23622 
L 109.827571 248.244094 
L 109.347564 248.244094 
" clip-path="url(#p0caf3ec2d7)" style="fill: #dfe7ed"/>
    <path d="M 109.827571 248.244094 
L 109.827571 240.23622 
L 110.307579 240.23622 
L 110.307579 248.244094 
L 109.827571 248.244094 
" clip-path="url(#p0caf3ec2d7)" style="fill: #dee7ec"/>
    <path d="M 110.307579 248.244094 
L 110.307579 240.23622 
L 110.787586 240.23622 
L 110.787586 248.244094 
L 110.307579 248.244094 
" clip-path="url(#p0caf3ec2d7)" style="fill: #dde6ec"/>
    <path d="M 110.787586 248.244094 
L 110.787586 240.23622 
L 111.267594 240.23622 
L 111.267594 248.244094 
L 110.787586 248.244094 
" clip-path="url(#p0caf3ec2d7)" style="fill: #dce5eb"/>
    <path d="M 111.267594 248.244094 
L 111.267594 240.23622 
L 111.747601 240.23622 
L 111.747601 248.244094 
L 111.267594 248.244094 
" clip-path="url(#p0caf3ec2d7)" style="fill: #dbe5eb"/>
    <path d="M 111.747601 248.244094 
L 111.747601 240.23622 
L 112.227608 240.23622 
L 112.227608 248.244094 
L 111.747601 248.244094 
" clip-path="url(#p0caf3ec2d7)" style="fill: #dae4ea"/>
    <path d="M 112.227608 248.244094 
L 112.227608 240.23622 
L 112.707616 240.23622 
L 112.707616 248.244094 
L 112.227608 248.244094 
" clip-path="url(#p0caf3ec2d7)" style="fill: #dae3ea"/>
    <path d="M 112.707616 248.244094 
L 112.707616 240.23622 
L 113.187623 240.23622 
L 113.187623 248.244094 
L 112.707616 248.244094 
" clip-path="url(#p0caf3ec2d7)" style="fill: #d9e3e9"/>
    <path d="M 113.187623 248.244094 
L 113.187623 240.23622 
L 113.66763 240.23622 
L 113.66763 248.244094 
L 113.187623 248.244094 
" clip-path="url(#p0caf3ec2d7)" style="fill: #d8e2e9"/>
    <path d="M 113.66763 248.244094 
L 113.66763 240.23622 
L 114.147638 240.23622 
L 114.147638 248.244094 
L 113.66763 248.244094 
" clip-path="url(#p0caf3ec2d7)" style="fill: #d7e2e8"/>
    <path d="M 114.147638 248.244094 
L 114.147638 240.23622 
L 114.627645 240.23622 
L 114.627645 248.244094 
L 114.147638 248.244094 
" clip-path="url(#p0caf3ec2d7)" style="fill: #d6e1e8"/>
    <path d="M 114.627645 248.244094 
L 114.627645 240.23622 
L 115.107653 240.23622 
L 115.107653 248.244094 
L 114.627645 248.244094 
" clip-path="url(#p0caf3ec2d7)" style="fill: #d5e0e7"/>
    <path d="M 115.107653 248.244094 
L 115.107653 240.23622 
L 115.58766 240.23622 
L 115.58766 248.244094 
L 115.107653 248.244094 
" clip-path="url(#p0caf3ec2d7)" style="fill: #d4e0e7"/>
    <path d="M 115.58766 248.244094 
L 115.58766 240.23622 
L 116.067667 240.23622 
L 116.067667 248.244094 
L 115.58766 248.244094 
" clip-path="url(#p0caf3ec2d7)" style="fill: #d4dfe6"/>
    <path d="M 116.067667 248.244094 
L 116.067667 240.23622 
L 116.547675 240.23622 
L 116.547675 248.244094 
L 116.067667 248.244094 
" clip-path="url(#p0caf3ec2d7)" style="fill: #d3dee6"/>
    <path d="M 116.547675 248.244094 
L 116.547675 240.23622 
L 117.027682 240.23622 
L 117.027682 248.244094 
L 116.547675 248.244094 
" clip-path="url(#p0caf3ec2d7)" style="fill: #d2dee5"/>
    <path d="M 117.027682 248.244094 
L 117.027682 240.23622 
L 117.507689 240.23622 
L 117.507689 248.244094 
L 117.027682 248.244094 
" clip-path="url(#p0caf3ec2d7)" style="fill: #d1dde5"/>
    <path d="M 117.507689 248.244094 
L 117.507689 240.23622 
L 117.987697 240.23622 
L 117.987697 248.244094 
L 117.507689 248.244094 
" clip-path="url(#p0caf3ec2d7)" style="fill: #d0dde4"/>
    <path d="M 117.987697 248.244094 
L 117.987697 240.23622 
L 118.467704 240.23622 
L 118.467704 248.244094 
L 117.987697 248.244094 
" clip-path="url(#p0caf3ec2d7)" style="fill: #cfdce4"/>
    <path d="M 118.467704 248.244094 
L 118.467704 240.23622 
L 118.947712 240.23622 
L 118.947712 248.244094 
L 118.467704 248.244094 
" clip-path="url(#p0caf3ec2d7)" style="fill: #cfdbe3"/>
    <path d="M 118.947712 248.244094 
L 118.947712 240.23622 
L 119.427719 240.23622 
L 119.427719 248.244094 
L 118.947712 248.244094 
" clip-path="url(#p0caf3ec2d7)" style="fill: #cedbe3"/>
    <path d="M 119.427719 248.244094 
L 119.427719 240.23622 
L 119.907726 240.23622 
L 119.907726 248.244094 
L 119.427719 248.244094 
" clip-path="url(#p0caf3ec2d7)" style="fill: #cddae2"/>
    <path d="M 119.907726 248.244094 
L 119.907726 240.23622 
L 120.387734 240.23622 
L 120.387734 248.244094 
L 119.907726 248.244094 
" clip-path="url(#p0caf3ec2d7)" style="fill: #ccd9e2"/>
    <path d="M 120.387734 248.244094 
L 120.387734 240.23622 
L 120.867741 240.23622 
L 120.867741 248.244094 
L 120.387734 248.244094 
" clip-path="url(#p0caf3ec2d7)" style="fill: #cbd9e1"/>
    <path d="M 120.867741 248.244094 
L 120.867741 240.23622 
L 121.347749 240.23622 
L 121.347749 248.244094 
L 120.867741 248.244094 
" clip-path="url(#p0caf3ec2d7)" style="fill: #cad8e1"/>
    <path d="M 121.347749 248.244094 
L 121.347749 240.23622 
L 121.827756 240.23622 
L 121.827756 248.244094 
L 121.347749 248.244094 
" clip-path="url(#p0caf3ec2d7)" style="fill: #cad8e0"/>
    <path d="M 121.827756 248.244094 
L 121.827756 240.23622 
L 122.307763 240.23622 
L 122.307763 248.244094 
L 121.827756 248.244094 
" clip-path="url(#p0caf3ec2d7)" style="fill: #c9d7e0"/>
    <path d="M 122.307763 248.244094 
L 122.307763 240.23622 
L 122.787771 240.23622 
L 122.787771 248.244094 
L 122.307763 248.244094 
" clip-path="url(#p0caf3ec2d7)" style="fill: #c8d6df"/>
    <path d="M 122.787771 248.244094 
L 122.787771 240.23622 
L 123.267778 240.23622 
L 123.267778 248.244094 
L 122.787771 248.244094 
" clip-path="url(#p0caf3ec2d7)" style="fill: #c7d6df"/>
    <path d="M 123.267778 248.244094 
L 123.267778 240.23622 
L 123.747785 240.23622 
L 123.747785 248.244094 
L 123.267778 248.244094 
" clip-path="url(#p0caf3ec2d7)" style="fill: #c6d5de"/>
    <path d="M 123.747785 248.244094 
L 123.747785 240.23622 
L 124.227793 240.23622 
L 124.227793 248.244094 
L 123.747785 248.244094 
" clip-path="url(#p0caf3ec2d7)" style="fill: #c5d4de"/>
    <path d="M 124.227793 248.244094 
L 124.227793 240.23622 
L 124.7078 240.23622 
L 124.7078 248.244094 
L 124.227793 248.244094 
" clip-path="url(#p0caf3ec2d7)" style="fill: #c5d4dd"/>
    <path d="M 124.7078 248.244094 
L 124.7078 240.23622 
L 125.187808 240.23622 
L 125.187808 248.244094 
L 124.7078 248.244094 
" clip-path="url(#p0caf3ec2d7)" style="fill: #c4d3dd"/>
    <path d="M 125.187808 248.244094 
L 125.187808 240.23622 
L 125.667815 240.23622 
L 125.667815 248.244094 
L 125.187808 248.244094 
" clip-path="url(#p0caf3ec2d7)" style="fill: #c3d2dc"/>
    <path d="M 125.667815 248.244094 
L 125.667815 240.23622 
L 126.147822 240.23622 
L 126.147822 248.244094 
L 125.667815 248.244094 
" clip-path="url(#p0caf3ec2d7)" style="fill: #c2d2dc"/>
    <path d="M 126.147822 248.244094 
L 126.147822 240.23622 
L 126.62783 240.23622 
L 126.62783 248.244094 
L 126.147822 248.244094 
" clip-path="url(#p0caf3ec2d7)" style="fill: #c1d1db"/>
    <path d="M 126.62783 248.244094 
L 126.62783 240.23622 
L 127.107837 240.23622 
L 127.107837 248.244094 
L 126.62783 248.244094 
" clip-path="url(#p0caf3ec2d7)" style="fill: #c0d1db"/>
    <path d="M 127.107837 248.244094 
L 127.107837 240.23622 
L 127.587844 240.23622 
L 127.587844 248.244094 
L 127.107837 248.244094 
" clip-path="url(#p0caf3ec2d7)" style="fill: #bfd0da"/>
    <path d="M 127.587844 248.244094 
L 127.587844 240.23622 
L 128.067852 240.23622 
L 128.067852 248.244094 
L 127.587844 248.244094 
" clip-path="url(#p0caf3ec2d7)" style="fill: #bfcfda"/>
    <path d="M 128.067852 248.244094 
L 128.067852 240.23622 
L 128.547859 240.23622 
L 128.547859 248.244094 
L 128.067852 248.244094 
" clip-path="url(#p0caf3ec2d7)" style="fill: #becfd9"/>
    <path d="M 128.547859 248.244094 
L 128.547859 240.23622 
L 129.027867 240.23622 
L 129.027867 248.244094 
L 128.547859 248.244094 
" clip-path="url(#p0caf3ec2d7)" style="fill: #bdced9"/>
    <path d="M 129.027867 248.244094 
L 129.027867 240.23622 
L 129.507874 240.23622 
L 129.507874 248.244094 
L 129.027867 248.244094 
" clip-path="url(#p0caf3ec2d7)" style="fill: #bccdd8"/>
    <path d="M 129.507874 248.244094 
L 129.507874 240.23622 
L 129.987881 240.23622 
L 129.987881 248.244094 
L 129.507874 248.244094 
" clip-path="url(#p0caf3ec2d7)" style="fill: #bbcdd8"/>
    <path d="M 129.987881 248.244094 
L 129.987881 240.23622 
L 130.467889 240.23622 
L 130.467889 248.244094 
L 129.987881 248.244094 
" clip-path="url(#p0caf3ec2d7)" style="fill: #baccd7"/>
    <path d="M 130.467889 248.244094 
L 130.467889 240.23622 
L 130.947896 240.23622 
L 130.947896 248.244094 
L 130.467889 248.244094 
" clip-path="url(#p0caf3ec2d7)" style="fill: #baccd7"/>
    <path d="M 130.947896 248.244094 
L 130.947896 240.23622 
L 131.427904 240.23622 
L 131.427904 248.244094 
L 130.947896 248.244094 
" clip-path="url(#p0caf3ec2d7)" style="fill: #b9cbd6"/>
    <path d="M 131.427904 248.244094 
L 131.427904 240.23622 
L 131.907911 240.23622 
L 131.907911 248.244094 
L 131.427904 248.244094 
" clip-path="url(#p0caf3ec2d7)" style="fill: #b8cad6"/>
    <path d="M 131.907911 248.244094 
L 131.907911 240.23622 
L 132.387918 240.23622 
L 132.387918 248.244094 
L 131.907911 248.244094 
" clip-path="url(#p0caf3ec2d7)" style="fill: #b7cad5"/>
    <path d="M 132.387918 248.244094 
L 132.387918 240.23622 
L 132.867926 240.23622 
L 132.867926 248.244094 
L 132.387918 248.244094 
" clip-path="url(#p0caf3ec2d7)" style="fill: #b6c9d5"/>
    <path d="M 132.867926 248.244094 
L 132.867926 240.23622 
L 133.347933 240.23622 
L 133.347933 248.244094 
L 132.867926 248.244094 
" clip-path="url(#p0caf3ec2d7)" style="fill: #b5c8d4"/>
    <path d="M 133.347933 248.244094 
L 133.347933 240.23622 
L 133.82794 240.23622 
L 133.82794 248.244094 
L 133.347933 248.244094 
" clip-path="url(#p0caf3ec2d7)" style="fill: #b5c8d4"/>
    <path d="M 133.82794 248.244094 
L 133.82794 240.23622 
L 134.307948 240.23622 
L 134.307948 248.244094 
L 133.82794 248.244094 
" clip-path="url(#p0caf3ec2d7)" style="fill: #b4c7d3"/>
    <path d="M 134.307948 248.244094 
L 134.307948 240.23622 
L 134.787955 240.23622 
L 134.787955 248.244094 
L 134.307948 248.244094 
" clip-path="url(#p0caf3ec2d7)" style="fill: #b3c7d3"/>
    <path d="M 134.787955 248.244094 
L 134.787955 240.23622 
L 135.267963 240.23622 
L 135.267963 248.244094 
L 134.787955 248.244094 
" clip-path="url(#p0caf3ec2d7)" style="fill: #b2c6d2"/>
    <path d="M 135.267963 248.244094 
L 135.267963 240.23622 
L 135.74797 240.23622 
L 135.74797 248.244094 
L 135.267963 248.244094 
" clip-path="url(#p0caf3ec2d7)" style="fill: #b1c5d2"/>
    <path d="M 135.74797 248.244094 
L 135.74797 240.23622 
L 136.227977 240.23622 
L 136.227977 248.244094 
L 135.74797 248.244094 
" clip-path="url(#p0caf3ec2d7)" style="fill: #b0c5d1"/>
    <path d="M 136.227977 248.244094 
L 136.227977 240.23622 
L 136.707985 240.23622 
L 136.707985 248.244094 
L 136.227977 248.244094 
" clip-path="url(#p0caf3ec2d7)" style="fill: #b0c4d1"/>
    <path d="M 136.707985 248.244094 
L 136.707985 240.23622 
L 137.187992 240.23622 
L 137.187992 248.244094 
L 136.707985 248.244094 
" clip-path="url(#p0caf3ec2d7)" style="fill: #afc3d0"/>
    <path d="M 137.187992 248.244094 
L 137.187992 240.23622 
L 137.668 240.23622 
L 137.668 248.244094 
L 137.187992 248.244094 
" clip-path="url(#p0caf3ec2d7)" style="fill: #aec3d0"/>
    <path d="M 137.668 248.244094 
L 137.668 240.23622 
L 138.148007 240.23622 
L 138.148007 248.244094 
L 137.668 248.244094 
" clip-path="url(#p0caf3ec2d7)" style="fill: #adc2cf"/>
    <path d="M 138.148007 248.244094 
L 138.148007 240.23622 
L 138.628014 240.23622 
L 138.628014 248.244094 
L 138.148007 248.244094 
" clip-path="url(#p0caf3ec2d7)" style="fill: #acc2cf"/>
    <path d="M 138.628014 248.244094 
L 138.628014 240.23622 
L 139.108022 240.23622 
L 139.108022 248.244094 
L 138.628014 248.244094 
" clip-path="url(#p0caf3ec2d7)" style="fill: #abc1ce"/>
    <path d="M 139.108022 248.244094 
L 139.108022 240.23622 
L 139.588029 240.23622 
L 139.588029 248.244094 
L 139.108022 248.244094 
" clip-path="url(#p0caf3ec2d7)" style="fill: #abc0ce"/>
    <path d="M 139.588029 248.244094 
L 139.588029 240.23622 
L 140.068036 240.23622 
L 140.068036 248.244094 
L 139.588029 248.244094 
" clip-path="url(#p0caf3ec2d7)" style="fill: #aac0cd"/>
    <path d="M 140.068036 248.244094 
L 140.068036 240.23622 
L 140.548044 240.23622 
L 140.548044 248.244094 
L 140.068036 248.244094 
" clip-path="url(#p0caf3ec2d7)" style="fill: #a9bfcd"/>
    <path d="M 140.548044 248.244094 
L 140.548044 240.23622 
L 141.028051 240.23622 
L 141.028051 248.244094 
L 140.548044 248.244094 
" clip-path="url(#p0caf3ec2d7)" style="fill: #a8becc"/>
    <path d="M 141.028051 248.244094 
L 141.028051 240.23622 
L 141.508059 240.23622 
L 141.508059 248.244094 
L 141.028051 248.244094 
" clip-path="url(#p0caf3ec2d7)" style="fill: #a7becc"/>
    <path d="M 141.508059 248.244094 
L 141.508059 240.23622 
L 141.988066 240.23622 
L 141.988066 248.244094 
L 141.508059 248.244094 
" clip-path="url(#p0caf3ec2d7)" style="fill: #a6bdcb"/>
    <path d="M 141.988066 248.244094 
L 141.988066 240.23622 
L 142.468073 240.23622 
L 142.468073 248.244094 
L 141.988066 248.244094 
" clip-path="url(#p0caf3ec2d7)" style="fill: #a5bdcb"/>
    <path d="M 142.468073 248.244094 
L 142.468073 240.23622 
L 142.948081 240.23622 
L 142.948081 248.244094 
L 142.468073 248.244094 
" clip-path="url(#p0caf3ec2d7)" style="fill: #a5bcca"/>
    <path d="M 142.948081 248.244094 
L 142.948081 240.23622 
L 143.428088 240.23622 
L 143.428088 248.244094 
L 142.948081 248.244094 
" clip-path="url(#p0caf3ec2d7)" style="fill: #a4bbca"/>
    <path d="M 143.428088 248.244094 
L 143.428088 240.23622 
L 143.908095 240.23622 
L 143.908095 248.244094 
L 143.428088 248.244094 
" clip-path="url(#p0caf3ec2d7)" style="fill: #a3bbc9"/>
    <path d="M 143.908095 248.244094 
L 143.908095 240.23622 
L 144.388103 240.23622 
L 144.388103 248.244094 
L 143.908095 248.244094 
" clip-path="url(#p0caf3ec2d7)" style="fill: #a2bac9"/>
    <path d="M 144.388103 248.244094 
L 144.388103 240.23622 
L 144.86811 240.23622 
L 144.86811 248.244094 
L 144.388103 248.244094 
" clip-path="url(#p0caf3ec2d7)" style="fill: #a1b9c8"/>
    <path d="M 144.86811 248.244094 
L 144.86811 240.23622 
L 145.348118 240.23622 
L 145.348118 248.244094 
L 144.86811 248.244094 
" clip-path="url(#p0caf3ec2d7)" style="fill: #a0b9c8"/>
    <path d="M 145.348118 248.244094 
L 145.348118 240.23622 
L 145.828125 240.23622 
L 145.828125 248.244094 
L 145.348118 248.244094 
" clip-path="url(#p0caf3ec2d7)" style="fill: #a0b8c7"/>
    <path d="M 145.828125 248.244094 
L 145.828125 240.23622 
L 146.308132 240.23622 
L 146.308132 248.244094 
L 145.828125 248.244094 
" clip-path="url(#p0caf3ec2d7)" style="fill: #9fb8c7"/>
    <path d="M 146.308132 248.244094 
L 146.308132 240.23622 
L 146.78814 240.23622 
L 146.78814 248.244094 
L 146.308132 248.244094 
" clip-path="url(#p0caf3ec2d7)" style="fill: #9eb7c6"/>
    <path d="M 146.78814 248.244094 
L 146.78814 240.23622 
L 147.268147 240.23622 
L 147.268147 248.244094 
L 146.78814 248.244094 
" clip-path="url(#p0caf3ec2d7)" style="fill: #9db6c6"/>
    <path d="M 147.268147 248.244094 
L 147.268147 240.23622 
L 147.748155 240.23622 
L 147.748155 248.244094 
L 147.268147 248.244094 
" clip-path="url(#p0caf3ec2d7)" style="fill: #9cb6c5"/>
    <path d="M 147.748155 248.244094 
L 147.748155 240.23622 
L 148.228162 240.23622 
L 148.228162 248.244094 
L 147.748155 248.244094 
" clip-path="url(#p0caf3ec2d7)" style="fill: #9bb5c5"/>
    <path d="M 148.228162 248.244094 
L 148.228162 240.23622 
L 148.708169 240.23622 
L 148.708169 248.244094 
L 148.228162 248.244094 
" clip-path="url(#p0caf3ec2d7)" style="fill: #9bb4c4"/>
    <path d="M 148.708169 248.244094 
L 148.708169 240.23622 
L 149.188177 240.23622 
L 149.188177 248.244094 
L 148.708169 248.244094 
" clip-path="url(#p0caf3ec2d7)" style="fill: #9ab4c4"/>
    <path d="M 149.188177 248.244094 
L 149.188177 240.23622 
L 149.668184 240.23622 
L 149.668184 248.244094 
L 149.188177 248.244094 
" clip-path="url(#p0caf3ec2d7)" style="fill: #99b3c3"/>
    <path d="M 149.668184 248.244094 
L 149.668184 240.23622 
L 150.148191 240.23622 
L 150.148191 248.244094 
L 149.668184 248.244094 
" clip-path="url(#p0caf3ec2d7)" style="fill: #98b2c3"/>
    <path d="M 150.148191 248.244094 
L 150.148191 240.23622 
L 150.628199 240.23622 
L 150.628199 248.244094 
L 150.148191 248.244094 
" clip-path="url(#p0caf3ec2d7)" style="fill: #97b2c2"/>
    <path d="M 150.628199 248.244094 
L 150.628199 240.23622 
L 151.108206 240.23622 
L 151.108206 248.244094 
L 150.628199 248.244094 
" clip-path="url(#p0caf3ec2d7)" style="fill: #96b1c2"/>
    <path d="M 151.108206 248.244094 
L 151.108206 240.23622 
L 151.588214 240.23622 
L 151.588214 248.244094 
L 151.108206 248.244094 
" clip-path="url(#p0caf3ec2d7)" style="fill: #96b1c1"/>
    <path d="M 151.588214 248.244094 
L 151.588214 240.23622 
L 152.068221 240.23622 
L 152.068221 248.244094 
L 151.588214 248.244094 
" clip-path="url(#p0caf3ec2d7)" style="fill: #95b0c1"/>
    <path d="M 152.068221 248.244094 
L 152.068221 240.23622 
L 152.548228 240.23622 
L 152.548228 248.244094 
L 152.068221 248.244094 
" clip-path="url(#p0caf3ec2d7)" style="fill: #94afc0"/>
    <path d="M 152.548228 248.244094 
L 152.548228 240.23622 
L 153.028236 240.23622 
L 153.028236 248.244094 
L 152.548228 248.244094 
" clip-path="url(#p0caf3ec2d7)" style="fill: #93afc0"/>
    <path d="M 153.028236 248.244094 
L 153.028236 240.23622 
L 153.508243 240.23622 
L 153.508243 248.244094 
L 153.028236 248.244094 
" clip-path="url(#p0caf3ec2d7)" style="fill: #92aebf"/>
    <path d="M 153.508243 248.244094 
L 153.508243 240.23622 
L 153.98825 240.23622 
L 153.98825 248.244094 
L 153.508243 248.244094 
" clip-path="url(#p0caf3ec2d7)" style="fill: #91adbf"/>
    <path d="M 153.98825 248.244094 
L 153.98825 240.23622 
L 154.468258 240.23622 
L 154.468258 248.244094 
L 153.98825 248.244094 
" clip-path="url(#p0caf3ec2d7)" style="fill: #90adbe"/>
    <path d="M 154.468258 248.244094 
L 154.468258 240.23622 
L 154.948265 240.23622 
L 154.948265 248.244094 
L 154.468258 248.244094 
" clip-path="url(#p0caf3ec2d7)" style="fill: #90acbe"/>
    <path d="M 154.948265 248.244094 
L 154.948265 240.23622 
L 155.428273 240.23622 
L 155.428273 248.244094 
L 154.948265 248.244094 
" clip-path="url(#p0caf3ec2d7)" style="fill: #8facbd"/>
    <path d="M 155.428273 248.244094 
L 155.428273 240.23622 
L 155.90828 240.23622 
L 155.90828 248.244094 
L 155.428273 248.244094 
" clip-path="url(#p0caf3ec2d7)" style="fill: #8eabbd"/>
    <path d="M 155.90828 248.244094 
L 155.90828 240.23622 
L 156.388287 240.23622 
L 156.388287 248.244094 
L 155.90828 248.244094 
" clip-path="url(#p0caf3ec2d7)" style="fill: #8daabc"/>
    <path d="M 156.388287 248.244094 
L 156.388287 240.23622 
L 156.868295 240.23622 
L 156.868295 248.244094 
L 156.388287 248.244094 
" clip-path="url(#p0caf3ec2d7)" style="fill: #8caabc"/>
    <path d="M 156.868295 248.244094 
L 156.868295 240.23622 
L 157.348302 240.23622 
L 157.348302 248.244094 
L 156.868295 248.244094 
" clip-path="url(#p0caf3ec2d7)" style="fill: #8ba9bb"/>
    <path d="M 157.348302 248.244094 
L 157.348302 240.23622 
L 157.82831 240.23622 
L 157.82831 248.244094 
L 157.348302 248.244094 
" clip-path="url(#p0caf3ec2d7)" style="fill: #8ba8bb"/>
    <path d="M 157.82831 248.244094 
L 157.82831 240.23622 
L 158.308317 240.23622 
L 158.308317 248.244094 
L 157.82831 248.244094 
" clip-path="url(#p0caf3ec2d7)" style="fill: #8aa8ba"/>
    <path d="M 158.308317 248.244094 
L 158.308317 240.23622 
L 158.788324 240.23622 
L 158.788324 248.244094 
L 158.308317 248.244094 
" clip-path="url(#p0caf3ec2d7)" style="fill: #89a7ba"/>
    <path d="M 158.788324 248.244094 
L 158.788324 240.23622 
L 159.268332 240.23622 
L 159.268332 248.244094 
L 158.788324 248.244094 
" clip-path="url(#p0caf3ec2d7)" style="fill: #88a7b9"/>
    <path d="M 159.268332 248.244094 
L 159.268332 240.23622 
L 159.748339 240.23622 
L 159.748339 248.244094 
L 159.268332 248.244094 
" clip-path="url(#p0caf3ec2d7)" style="fill: #87a6b9"/>
    <path d="M 159.748339 248.244094 
L 159.748339 240.23622 
L 160.228346 240.23622 
L 160.228346 248.244094 
L 159.748339 248.244094 
" clip-path="url(#p0caf3ec2d7)" style="fill: #86a5b8"/>
    <path d="M 160.228346 248.244094 
L 160.228346 240.23622 
L 160.708354 240.23622 
L 160.708354 248.244094 
L 160.228346 248.244094 
" clip-path="url(#p0caf3ec2d7)" style="fill: #86a5b8"/>
    <path d="M 160.708354 248.244094 
L 160.708354 240.23622 
L 161.188361 240.23622 
L 161.188361 248.244094 
L 160.708354 248.244094 
" clip-path="url(#p0caf3ec2d7)" style="fill: #85a4b7"/>
    <path d="M 161.188361 248.244094 
L 161.188361 240.23622 
L 161.668369 240.23622 
L 161.668369 248.244094 
L 161.188361 248.244094 
" clip-path="url(#p0caf3ec2d7)" style="fill: #84a3b7"/>
    <path d="M 161.668369 248.244094 
L 161.668369 240.23622 
L 162.148376 240.23622 
L 162.148376 248.244094 
L 161.668369 248.244094 
" clip-path="url(#p0caf3ec2d7)" style="fill: #83a3b6"/>
    <path d="M 162.148376 248.244094 
L 162.148376 240.23622 
L 162.628383 240.23622 
L 162.628383 248.244094 
L 162.148376 248.244094 
" clip-path="url(#p0caf3ec2d7)" style="fill: #82a2b6"/>
    <path d="M 162.628383 248.244094 
L 162.628383 240.23622 
L 163.108391 240.23622 
L 163.108391 248.244094 
L 162.628383 248.244094 
" clip-path="url(#p0caf3ec2d7)" style="fill: #81a2b5"/>
    <path d="M 163.108391 248.244094 
L 163.108391 240.23622 
L 163.588398 240.23622 
L 163.588398 248.244094 
L 163.108391 248.244094 
" clip-path="url(#p0caf3ec2d7)" style="fill: #81a1b5"/>
    <path d="M 163.588398 248.244094 
L 163.588398 240.23622 
L 164.068406 240.23622 
L 164.068406 248.244094 
L 163.588398 248.244094 
" clip-path="url(#p0caf3ec2d7)" style="fill: #80a0b4"/>
    <path d="M 164.068406 248.244094 
L 164.068406 240.23622 
L 164.548413 240.23622 
L 164.548413 248.244094 
L 164.068406 248.244094 
" clip-path="url(#p0caf3ec2d7)" style="fill: #7fa0b4"/>
    <path d="M 164.548413 248.244094 
L 164.548413 240.23622 
L 165.02842 240.23622 
L 165.02842 248.244094 
L 164.548413 248.244094 
" clip-path="url(#p0caf3ec2d7)" style="fill: #7e9fb3"/>
    <path d="M 165.02842 248.244094 
L 165.02842 240.23622 
L 165.508428 240.23622 
L 165.508428 248.244094 
L 165.02842 248.244094 
" clip-path="url(#p0caf3ec2d7)" style="fill: #7d9eb3"/>
    <path d="M 165.508428 248.244094 
L 165.508428 240.23622 
L 165.988435 240.23622 
L 165.988435 248.244094 
L 165.508428 248.244094 
" clip-path="url(#p0caf3ec2d7)" style="fill: #7c9eb2"/>
    <path d="M 165.988435 248.244094 
L 165.988435 240.23622 
L 166.468442 240.23622 
L 166.468442 248.244094 
L 165.988435 248.244094 
" clip-path="url(#p0caf3ec2d7)" style="fill: #7c9db2"/>
    <path d="M 166.468442 248.244094 
L 166.468442 240.23622 
L 166.94845 240.23622 
L 166.94845 248.244094 
L 166.468442 248.244094 
" clip-path="url(#p0caf3ec2d7)" style="fill: #7b9db1"/>
    <path d="M 166.94845 248.244094 
L 166.94845 240.23622 
L 167.428457 240.23622 
L 167.428457 248.244094 
L 166.94845 248.244094 
" clip-path="url(#p0caf3ec2d7)" style="fill: #7a9cb1"/>
    <path d="M 167.428457 248.244094 
L 167.428457 240.23622 
L 167.908465 240.23622 
L 167.908465 248.244094 
L 167.428457 248.244094 
" clip-path="url(#p0caf3ec2d7)" style="fill: #799bb0"/>
    <path d="M 167.908465 248.244094 
L 167.908465 240.23622 
L 168.388472 240.23622 
L 168.388472 248.244094 
L 167.908465 248.244094 
" clip-path="url(#p0caf3ec2d7)" style="fill: #789bb0"/>
    <path d="M 168.388472 248.244094 
L 168.388472 240.23622 
L 168.868479 240.23622 
L 168.868479 248.244094 
L 168.388472 248.244094 
" clip-path="url(#p0caf3ec2d7)" style="fill: #779aaf"/>
    <path d="M 168.868479 248.244094 
L 168.868479 240.23622 
L 169.348487 240.23622 
L 169.348487 248.244094 
L 168.868479 248.244094 
" clip-path="url(#p0caf3ec2d7)" style="fill: #7699af"/>
    <path d="M 169.348487 248.244094 
L 169.348487 240.23622 
L 169.828494 240.23622 
L 169.828494 248.244094 
L 169.348487 248.244094 
" clip-path="url(#p0caf3ec2d7)" style="fill: #7699ae"/>
    <path d="M 169.828494 248.244094 
L 169.828494 240.23622 
L 170.308501 240.23622 
L 170.308501 248.244094 
L 169.828494 248.244094 
" clip-path="url(#p0caf3ec2d7)" style="fill: #7598ae"/>
    <path d="M 170.308501 248.244094 
L 170.308501 240.23622 
L 170.788509 240.23622 
L 170.788509 248.244094 
L 170.308501 248.244094 
" clip-path="url(#p0caf3ec2d7)" style="fill: #7498ad"/>
    <path d="M 170.788509 248.244094 
L 170.788509 240.23622 
L 171.268516 240.23622 
L 171.268516 248.244094 
L 170.788509 248.244094 
" clip-path="url(#p0caf3ec2d7)" style="fill: #7397ad"/>
    <path d="M 171.268516 248.244094 
L 171.268516 240.23622 
L 171.748524 240.23622 
L 171.748524 248.244094 
L 171.268516 248.244094 
" clip-path="url(#p0caf3ec2d7)" style="fill: #7296ac"/>
    <path d="M 171.748524 248.244094 
L 171.748524 240.23622 
L 172.228531 240.23622 
L 172.228531 248.244094 
L 171.748524 248.244094 
" clip-path="url(#p0caf3ec2d7)" style="fill: #7196ac"/>
    <path d="M 172.228531 248.244094 
L 172.228531 240.23622 
L 172.708538 240.23622 
L 172.708538 248.244094 
L 172.228531 248.244094 
" clip-path="url(#p0caf3ec2d7)" style="fill: #7195ab"/>
    <path d="M 172.708538 248.244094 
L 172.708538 240.23622 
L 173.188546 240.23622 
L 173.188546 248.244094 
L 172.708538 248.244094 
" clip-path="url(#p0caf3ec2d7)" style="fill: #7094ab"/>
    <path d="M 173.188546 248.244094 
L 173.188546 240.23622 
L 173.668553 240.23622 
L 173.668553 248.244094 
L 173.188546 248.244094 
" clip-path="url(#p0caf3ec2d7)" style="fill: #6f94aa"/>
    <path d="M 173.668553 248.244094 
L 173.668553 240.23622 
L 174.148561 240.23622 
L 174.148561 248.244094 
L 173.668553 248.244094 
" clip-path="url(#p0caf3ec2d7)" style="fill: #6e93aa"/>
    <path d="M 174.148561 248.244094 
L 174.148561 240.23622 
L 174.628568 240.23622 
L 174.628568 248.244094 
L 174.148561 248.244094 
" clip-path="url(#p0caf3ec2d7)" style="fill: #6d92a9"/>
    <path d="M 174.628568 248.244094 
L 174.628568 240.23622 
L 175.108575 240.23622 
L 175.108575 248.244094 
L 174.628568 248.244094 
" clip-path="url(#p0caf3ec2d7)" style="fill: #6c92a9"/>
    <path d="M 175.108575 248.244094 
L 175.108575 240.23622 
L 175.588583 240.23622 
L 175.588583 248.244094 
L 175.108575 248.244094 
" clip-path="url(#p0caf3ec2d7)" style="fill: #6c91a8"/>
    <path d="M 175.588583 248.244094 
L 175.588583 240.23622 
L 176.06859 240.23622 
L 176.06859 248.244094 
L 175.588583 248.244094 
" clip-path="url(#p0caf3ec2d7)" style="fill: #6b91a8"/>
    <path d="M 176.06859 248.244094 
L 176.06859 240.23622 
L 176.548597 240.23622 
L 176.548597 248.244094 
L 176.06859 248.244094 
" clip-path="url(#p0caf3ec2d7)" style="fill: #6a90a7"/>
    <path d="M 176.548597 248.244094 
L 176.548597 240.23622 
L 177.028605 240.23622 
L 177.028605 248.244094 
L 176.548597 248.244094 
" clip-path="url(#p0caf3ec2d7)" style="fill: #698fa7"/>
    <path d="M 177.028605 248.244094 
L 177.028605 240.23622 
L 177.508612 240.23622 
L 177.508612 248.244094 
L 177.028605 248.244094 
" clip-path="url(#p0caf3ec2d7)" style="fill: #688fa6"/>
    <path d="M 177.508612 248.244094 
L 177.508612 240.23622 
L 177.98862 240.23622 
L 177.98862 248.244094 
L 177.508612 248.244094 
" clip-path="url(#p0caf3ec2d7)" style="fill: #678ea6"/>
    <path d="M 177.98862 248.244094 
L 177.98862 240.23622 
L 178.468627 240.23622 
L 178.468627 248.244094 
L 177.98862 248.244094 
" clip-path="url(#p0caf3ec2d7)" style="fill: #678da5"/>
    <path d="M 178.468627 248.244094 
L 178.468627 240.23622 
L 178.948634 240.23622 
L 178.948634 248.244094 
L 178.468627 248.244094 
" clip-path="url(#p0caf3ec2d7)" style="fill: #668da5"/>
    <path d="M 178.948634 248.244094 
L 178.948634 240.23622 
L 179.428642 240.23622 
L 179.428642 248.244094 
L 178.948634 248.244094 
" clip-path="url(#p0caf3ec2d7)" style="fill: #658ca4"/>
    <path d="M 179.428642 248.244094 
L 179.428642 240.23622 
L 179.908649 240.23622 
L 179.908649 248.244094 
L 179.428642 248.244094 
" clip-path="url(#p0caf3ec2d7)" style="fill: #648ca4"/>
    <path d="M 179.908649 248.244094 
L 179.908649 240.23622 
L 180.388656 240.23622 
L 180.388656 248.244094 
L 179.908649 248.244094 
" clip-path="url(#p0caf3ec2d7)" style="fill: #638ba3"/>
    <path d="M 180.388656 248.244094 
L 180.388656 240.23622 
L 180.868664 240.23622 
L 180.868664 248.244094 
L 180.388656 248.244094 
" clip-path="url(#p0caf3ec2d7)" style="fill: #628aa3"/>
    <path d="M 180.868664 248.244094 
L 180.868664 240.23622 
L 181.348671 240.23622 
L 181.348671 248.244094 
L 180.868664 248.244094 
" clip-path="url(#p0caf3ec2d7)" style="fill: #618aa2"/>
    <path d="M 181.348671 248.244094 
L 181.348671 240.23622 
L 181.828679 240.23622 
L 181.828679 248.244094 
L 181.348671 248.244094 
" clip-path="url(#p0caf3ec2d7)" style="fill: #6189a2"/>
    <path d="M 181.828679 248.244094 
L 181.828679 240.23622 
L 182.308686 240.23622 
L 182.308686 248.244094 
L 181.828679 248.244094 
" clip-path="url(#p0caf3ec2d7)" style="fill: #6088a1"/>
    <path d="M 182.308686 248.244094 
L 182.308686 240.23622 
L 182.788693 240.23622 
L 182.788693 248.244094 
L 182.308686 248.244094 
" clip-path="url(#p0caf3ec2d7)" style="fill: #5f88a1"/>
    <path d="M 182.788693 248.244094 
L 182.788693 240.23622 
L 183.268701 240.23622 
L 183.268701 248.244094 
L 182.788693 248.244094 
" clip-path="url(#p0caf3ec2d7)" style="fill: #5e87a0"/>
    <path d="M 183.268701 248.244094 
L 183.268701 240.23622 
L 183.748708 240.23622 
L 183.748708 248.244094 
L 183.268701 248.244094 
" clip-path="url(#p0caf3ec2d7)" style="fill: #5d87a0"/>
    <path d="M 183.748708 248.244094 
L 183.748708 240.23622 
L 184.228716 240.23622 
L 184.228716 248.244094 
L 183.748708 248.244094 
" clip-path="url(#p0caf3ec2d7)" style="fill: #5c869f"/>
    <path d="M 184.228716 248.244094 
L 184.228716 240.23622 
L 184.708723 240.23622 
L 184.708723 248.244094 
L 184.228716 248.244094 
" clip-path="url(#p0caf3ec2d7)" style="fill: #5c859f"/>
    <path d="M 184.708723 248.244094 
L 184.708723 240.23622 
L 185.18873 240.23622 
L 185.18873 248.244094 
L 184.708723 248.244094 
" clip-path="url(#p0caf3ec2d7)" style="fill: #5b859e"/>
    <path d="M 185.18873 248.244094 
L 185.18873 240.23622 
L 185.668738 240.23622 
L 185.668738 248.244094 
L 185.18873 248.244094 
" clip-path="url(#p0caf3ec2d7)" style="fill: #5a849e"/>
    <path d="M 185.668738 248.244094 
L 185.668738 240.23622 
L 186.148745 240.23622 
L 186.148745 248.244094 
L 185.668738 248.244094 
" clip-path="url(#p0caf3ec2d7)" style="fill: #59839d"/>
    <path d="M 186.148745 248.244094 
L 186.148745 240.23622 
L 186.628752 240.23622 
L 186.628752 248.244094 
L 186.148745 248.244094 
" clip-path="url(#p0caf3ec2d7)" style="fill: #58839d"/>
    <path d="M 186.628752 248.244094 
L 186.628752 240.23622 
L 187.10876 240.23622 
L 187.10876 248.244094 
L 186.628752 248.244094 
" clip-path="url(#p0caf3ec2d7)" style="fill: #57829c"/>
    <path d="M 187.10876 248.244094 
L 187.10876 240.23622 
L 187.588767 240.23622 
L 187.588767 248.244094 
L 187.10876 248.244094 
" clip-path="url(#p0caf3ec2d7)" style="fill: #57829c"/>
    <path d="M 187.588767 248.244094 
L 187.588767 240.23622 
L 188.068775 240.23622 
L 188.068775 248.244094 
L 187.588767 248.244094 
" clip-path="url(#p0caf3ec2d7)" style="fill: #56819b"/>
    <path d="M 188.068775 248.244094 
L 188.068775 240.23622 
L 188.548782 240.23622 
L 188.548782 248.244094 
L 188.068775 248.244094 
" clip-path="url(#p0caf3ec2d7)" style="fill: #55809b"/>
    <path d="M 188.548782 248.244094 
L 188.548782 240.23622 
L 189.028789 240.23622 
L 189.028789 248.244094 
L 188.548782 248.244094 
" clip-path="url(#p0caf3ec2d7)" style="fill: #54809a"/>
    <path d="M 189.028789 248.244094 
L 189.028789 240.23622 
L 189.508797 240.23622 
L 189.508797 248.244094 
L 189.028789 248.244094 
" clip-path="url(#p0caf3ec2d7)" style="fill: #537f9a"/>
    <path d="M 189.508797 248.244094 
L 189.508797 240.23622 
L 189.988804 240.23622 
L 189.988804 248.244094 
L 189.508797 248.244094 
" clip-path="url(#p0caf3ec2d7)" style="fill: #527e99"/>
    <path d="M 189.988804 248.244094 
L 189.988804 240.23622 
L 190.468812 240.23622 
L 190.468812 248.244094 
L 189.988804 248.244094 
" clip-path="url(#p0caf3ec2d7)" style="fill: #527e99"/>
    <path d="M 190.468812 248.244094 
L 190.468812 240.23622 
L 190.948819 240.23622 
L 190.948819 248.244094 
L 190.468812 248.244094 
" clip-path="url(#p0caf3ec2d7)" style="fill: #517d98"/>
    <path d="M 190.948819 248.244094 
L 190.948819 240.23622 
L 191.428826 240.23622 
L 191.428826 248.244094 
L 190.948819 248.244094 
" clip-path="url(#p0caf3ec2d7)" style="fill: #507d98"/>
    <path d="M 191.428826 248.244094 
L 191.428826 240.23622 
L 191.908834 240.23622 
L 191.908834 248.244094 
L 191.428826 248.244094 
" clip-path="url(#p0caf3ec2d7)" style="fill: #4f7c97"/>
    <path d="M 191.908834 248.244094 
L 191.908834 240.23622 
L 192.388841 240.23622 
L 192.388841 248.244094 
L 191.908834 248.244094 
" clip-path="url(#p0caf3ec2d7)" style="fill: #4e7b97"/>
    <path d="M 192.388841 248.244094 
L 192.388841 240.23622 
L 192.868848 240.23622 
L 192.868848 248.244094 
L 192.388841 248.244094 
" clip-path="url(#p0caf3ec2d7)" style="fill: #4d7b96"/>
    <path d="M 192.868848 248.244094 
L 192.868848 240.23622 
L 193.348856 240.23622 
L 193.348856 248.244094 
L 192.868848 248.244094 
" clip-path="url(#p0caf3ec2d7)" style="fill: #4d7a96"/>
    <path d="M 193.348856 248.244094 
L 193.348856 240.23622 
L 193.828863 240.23622 
L 193.828863 248.244094 
L 193.348856 248.244094 
" clip-path="url(#p0caf3ec2d7)" style="fill: #4c7995"/>
    <path d="M 193.828863 248.244094 
L 193.828863 240.23622 
L 194.308871 240.23622 
L 194.308871 248.244094 
L 193.828863 248.244094 
" clip-path="url(#p0caf3ec2d7)" style="fill: #4b7995"/>
    <path d="M 194.308871 248.244094 
L 194.308871 240.23622 
L 194.788878 240.23622 
L 194.788878 248.244094 
L 194.308871 248.244094 
" clip-path="url(#p0caf3ec2d7)" style="fill: #4a7894"/>
    <path d="M 194.788878 248.244094 
L 194.788878 240.23622 
L 195.268885 240.23622 
L 195.268885 248.244094 
L 194.788878 248.244094 
" clip-path="url(#p0caf3ec2d7)" style="fill: #497894"/>
    <path d="M 195.268885 248.244094 
L 195.268885 240.23622 
L 195.748893 240.23622 
L 195.748893 248.244094 
L 195.268885 248.244094 
" clip-path="url(#p0caf3ec2d7)" style="fill: #487793"/>
    <path d="M 195.748893 248.244094 
L 195.748893 240.23622 
L 196.2289 240.23622 
L 196.2289 248.244094 
L 195.748893 248.244094 
" clip-path="url(#p0caf3ec2d7)" style="fill: #477693"/>
    <path d="M 196.2289 248.244094 
L 196.2289 240.23622 
L 196.708907 240.23622 
L 196.708907 248.244094 
L 196.2289 248.244094 
" clip-path="url(#p0caf3ec2d7)" style="fill: #477692"/>
    <path d="M 196.708907 248.244094 
L 196.708907 240.23622 
L 197.188915 240.23622 
L 197.188915 248.244094 
L 196.708907 248.244094 
" clip-path="url(#p0caf3ec2d7)" style="fill: #467592"/>
    <path d="M 197.188915 248.244094 
L 197.188915 240.23622 
L 197.668922 240.23622 
L 197.668922 248.244094 
L 197.188915 248.244094 
" clip-path="url(#p0caf3ec2d7)" style="fill: #457491"/>
    <path d="M 197.668922 248.244094 
L 197.668922 240.23622 
L 198.14893 240.23622 
L 198.14893 248.244094 
L 197.668922 248.244094 
" clip-path="url(#p0caf3ec2d7)" style="fill: #447491"/>
    <path d="M 198.14893 248.244094 
L 198.14893 240.23622 
L 198.628937 240.23622 
L 198.628937 248.244094 
L 198.14893 248.244094 
" clip-path="url(#p0caf3ec2d7)" style="fill: #437390"/>
    <path d="M 198.628937 248.244094 
L 198.628937 240.23622 
L 199.108944 240.23622 
L 199.108944 248.244094 
L 198.628937 248.244094 
" clip-path="url(#p0caf3ec2d7)" style="fill: #427290"/>
    <path d="M 199.108944 248.244094 
L 199.108944 240.23622 
L 199.588952 240.23622 
L 199.588952 248.244094 
L 199.108944 248.244094 
" clip-path="url(#p0caf3ec2d7)" style="fill: #42728f"/>
    <path d="M 199.588952 248.244094 
L 199.588952 240.23622 
L 200.068959 240.23622 
L 200.068959 248.244094 
L 199.588952 248.244094 
" clip-path="url(#p0caf3ec2d7)" style="fill: #41718f"/>
    <path d="M 200.068959 248.244094 
L 200.068959 240.23622 
L 200.548967 240.23622 
L 200.548967 248.244094 
L 200.068959 248.244094 
" clip-path="url(#p0caf3ec2d7)" style="fill: #40718e"/>
    <path d="M 200.548967 248.244094 
L 200.548967 240.23622 
L 201.028974 240.23622 
L 201.028974 248.244094 
L 200.548967 248.244094 
" clip-path="url(#p0caf3ec2d7)" style="fill: #3f708e"/>
    <path d="M 201.028974 248.244094 
L 201.028974 240.23622 
L 201.508981 240.23622 
L 201.508981 248.244094 
L 201.028974 248.244094 
" clip-path="url(#p0caf3ec2d7)" style="fill: #3e6f8d"/>
    <path d="M 201.508981 248.244094 
L 201.508981 240.23622 
L 201.988989 240.23622 
L 201.988989 248.244094 
L 201.508981 248.244094 
" clip-path="url(#p0caf3ec2d7)" style="fill: #3d6f8d"/>
    <path d="M 201.988989 248.244094 
L 201.988989 240.23622 
L 202.468996 240.23622 
L 202.468996 248.244094 
L 201.988989 248.244094 
" clip-path="url(#p0caf3ec2d7)" style="fill: #3d6e8c"/>
    <path d="M 202.468996 248.244094 
L 202.468996 240.23622 
L 202.949003 240.23622 
L 202.949003 248.244094 
L 202.468996 248.244094 
" clip-path="url(#p0caf3ec2d7)" style="fill: #3c6d8c"/>
    <path d="M 202.949003 248.244094 
L 202.949003 240.23622 
L 203.429011 240.23622 
L 203.429011 248.244094 
L 202.949003 248.244094 
" clip-path="url(#p0caf3ec2d7)" style="fill: #3b6d8b"/>
    <path d="M 203.429011 248.244094 
L 203.429011 240.23622 
L 203.909018 240.23622 
L 203.909018 248.244094 
L 203.429011 248.244094 
" clip-path="url(#p0caf3ec2d7)" style="fill: #3a6c8b"/>
    <path d="M 203.909018 248.244094 
L 203.909018 240.23622 
L 204.389026 240.23622 
L 204.389026 248.244094 
L 203.909018 248.244094 
" clip-path="url(#p0caf3ec2d7)" style="fill: #396c8a"/>
    <path d="M 204.389026 248.244094 
L 204.389026 240.23622 
L 204.869033 240.23622 
L 204.869033 248.244094 
L 204.389026 248.244094 
" clip-path="url(#p0caf3ec2d7)" style="fill: #386b8a"/>
    <path d="M 204.869033 248.244094 
L 204.869033 240.23622 
L 205.34904 240.23622 
L 205.34904 248.244094 
L 204.869033 248.244094 
" clip-path="url(#p0caf3ec2d7)" style="fill: #386a89"/>
    <path d="M 205.34904 248.244094 
L 205.34904 240.23622 
L 205.829048 240.23622 
L 205.829048 248.244094 
L 205.34904 248.244094 
" clip-path="url(#p0caf3ec2d7)" style="fill: #376a89"/>
    <path d="M 205.829048 248.244094 
L 205.829048 240.23622 
L 206.309055 240.23622 
L 206.309055 248.244094 
L 205.829048 248.244094 
" clip-path="url(#p0caf3ec2d7)" style="fill: #366988"/>
    <path d="M 206.309055 248.244094 
L 206.309055 240.23622 
L 206.789062 240.23622 
L 206.789062 248.244094 
L 206.309055 248.244094 
" clip-path="url(#p0caf3ec2d7)" style="fill: #356888"/>
    <path d="M 206.789062 248.244094 
L 206.789062 240.23622 
L 207.26907 240.23622 
L 207.26907 248.244094 
L 206.789062 248.244094 
" clip-path="url(#p0caf3ec2d7)" style="fill: #346887"/>
    <path d="M 207.26907 248.244094 
L 207.26907 240.23622 
L 207.749077 240.23622 
L 207.749077 248.244094 
L 207.26907 248.244094 
" clip-path="url(#p0caf3ec2d7)" style="fill: #336787"/>
    <path d="M 207.749077 248.244094 
L 207.749077 240.23622 
L 208.229085 240.23622 
L 208.229085 248.244094 
L 207.749077 248.244094 
" clip-path="url(#p0caf3ec2d7)" style="fill: #326786"/>
    <path d="M 208.229085 248.244094 
L 208.229085 240.23622 
L 208.709092 240.23622 
L 208.709092 248.244094 
L 208.229085 248.244094 
" clip-path="url(#p0caf3ec2d7)" style="fill: #326686"/>
    <path d="M 208.709092 248.244094 
L 208.709092 240.23622 
L 209.189099 240.23622 
L 209.189099 248.244094 
L 208.709092 248.244094 
" clip-path="url(#p0caf3ec2d7)" style="fill: #316585"/>
    <path d="M 209.189099 248.244094 
L 209.189099 240.23622 
L 209.669107 240.23622 
L 209.669107 248.244094 
L 209.189099 248.244094 
" clip-path="url(#p0caf3ec2d7)" style="fill: #306585"/>
    <path d="M 209.669107 248.244094 
L 209.669107 240.23622 
L 210.149114 240.23622 
L 210.149114 248.244094 
L 209.669107 248.244094 
" clip-path="url(#p0caf3ec2d7)" style="fill: #2f6484"/>
    <path d="M 210.149114 248.244094 
L 210.149114 240.23622 
L 210.629122 240.23622 
L 210.629122 248.244094 
L 210.149114 248.244094 
" clip-path="url(#p0caf3ec2d7)" style="fill: #2e6384"/>
    <path d="M 210.629122 248.244094 
L 210.629122 240.23622 
L 211.109129 240.23622 
L 211.109129 248.244094 
L 210.629122 248.244094 
" clip-path="url(#p0caf3ec2d7)" style="fill: #2d6383"/>
    <path d="M 211.109129 248.244094 
L 211.109129 240.23622 
L 211.589136 240.23622 
L 211.589136 248.244094 
L 211.109129 248.244094 
" clip-path="url(#p0caf3ec2d7)" style="fill: #2d6283"/>
    <path d="M 211.589136 248.244094 
L 211.589136 240.23622 
L 212.069144 240.23622 
L 212.069144 248.244094 
L 211.589136 248.244094 
" clip-path="url(#p0caf3ec2d7)" style="fill: #2c6282"/>
    <path d="M 212.069144 248.244094 
L 212.069144 240.23622 
L 212.549151 240.23622 
L 212.549151 248.244094 
L 212.069144 248.244094 
" clip-path="url(#p0caf3ec2d7)" style="fill: #2b6182"/>
    <path d="M 212.549151 248.244094 
L 212.549151 240.23622 
L 213.029158 240.23622 
L 213.029158 248.244094 
L 212.549151 248.244094 
" clip-path="url(#p0caf3ec2d7)" style="fill: #2a6081"/>
    <path d="M 213.029158 248.244094 
L 213.029158 240.23622 
L 213.509166 240.23622 
L 213.509166 248.244094 
L 213.029158 248.244094 
" clip-path="url(#p0caf3ec2d7)" style="fill: #296081"/>
    <path d="M 213.509166 248.244094 
L 213.509166 240.23622 
L 213.989173 240.23622 
L 213.989173 248.244094 
L 213.509166 248.244094 
" clip-path="url(#p0caf3ec2d7)" style="fill: #285f80"/>
    <path d="M 213.989173 248.244094 
L 213.989173 240.23622 
L 214.469181 240.23622 
L 214.469181 248.244094 
L 213.989173 248.244094 
" clip-path="url(#p0caf3ec2d7)" style="fill: #285e80"/>
    <path d="M 214.469181 248.244094 
L 214.469181 240.23622 
L 214.949188 240.23622 
L 214.949188 248.244094 
L 214.469181 248.244094 
" clip-path="url(#p0caf3ec2d7)" style="fill: #275e7f"/>
    <path d="M 214.949188 248.244094 
L 214.949188 240.23622 
L 215.429195 240.23622 
L 215.429195 248.244094 
L 214.949188 248.244094 
" clip-path="url(#p0caf3ec2d7)" style="fill: #265d7f"/>
    <path d="M 215.429195 248.244094 
L 215.429195 240.23622 
L 215.909203 240.23622 
L 215.909203 248.244094 
L 215.429195 248.244094 
" clip-path="url(#p0caf3ec2d7)" style="fill: #255d7e"/>
    <path d="M 215.909203 248.244094 
L 215.909203 240.23622 
L 216.38921 240.23622 
L 216.38921 248.244094 
L 215.909203 248.244094 
" clip-path="url(#p0caf3ec2d7)" style="fill: #245c7e"/>
    <path d="M 216.38921 248.244094 
L 216.38921 240.23622 
L 216.869218 240.23622 
L 216.869218 248.244094 
L 216.38921 248.244094 
" clip-path="url(#p0caf3ec2d7)" style="fill: #235b7d"/>
    <path d="M 216.869218 248.244094 
L 216.869218 240.23622 
L 217.349225 240.23622 
L 217.349225 248.244094 
L 216.869218 248.244094 
" clip-path="url(#p0caf3ec2d7)" style="fill: #235b7d"/>
    <path d="M 217.349225 248.244094 
L 217.349225 240.23622 
L 217.829232 240.23622 
L 217.829232 248.244094 
L 217.349225 248.244094 
" clip-path="url(#p0caf3ec2d7)" style="fill: #225a7c"/>
    <path d="M 217.829232 248.244094 
L 217.829232 240.23622 
L 218.30924 240.23622 
L 218.30924 248.244094 
L 217.829232 248.244094 
" clip-path="url(#p0caf3ec2d7)" style="fill: #21597c"/>
    <path d="M 218.30924 248.244094 
L 218.30924 240.23622 
L 218.789247 240.23622 
L 218.789247 248.244094 
L 218.30924 248.244094 
" clip-path="url(#p0caf3ec2d7)" style="fill: #20597b"/>
    <path d="M 218.789247 248.244094 
L 218.789247 240.23622 
L 219.269254 240.23622 
L 219.269254 248.244094 
L 218.789247 248.244094 
" clip-path="url(#p0caf3ec2d7)" style="fill: #1f587b"/>
    <path d="M 219.269254 248.244094 
L 219.269254 240.23622 
L 219.749262 240.23622 
L 219.749262 248.244094 
L 219.269254 248.244094 
" clip-path="url(#p0caf3ec2d7)" style="fill: #1e587a"/>
    <path d="M 219.749262 248.244094 
L 219.749262 240.23622 
L 220.229269 240.23622 
L 220.229269 248.244094 
L 219.749262 248.244094 
" clip-path="url(#p0caf3ec2d7)" style="fill: #1e577a"/>
    <path d="M 220.229269 248.244094 
L 220.229269 240.23622 
L 220.709277 240.23622 
L 220.709277 248.244094 
L 220.229269 248.244094 
" clip-path="url(#p0caf3ec2d7)" style="fill: #1d5679"/>
    <path d="M 220.709277 248.244094 
L 220.709277 240.23622 
L 221.189284 240.23622 
L 221.189284 248.244094 
L 220.709277 248.244094 
" clip-path="url(#p0caf3ec2d7)" style="fill: #1c5679"/>
    <path d="M 221.189284 248.244094 
L 221.189284 240.23622 
L 221.669291 240.23622 
L 221.669291 248.244094 
L 221.189284 248.244094 
" clip-path="url(#p0caf3ec2d7)" style="fill: #1b5578"/>
   </g>
   <g id="matplotlib.axis_3">
    <g id="xtick_3">
     <g id="line2d_7">
      <defs>
       <path id="mbc009a919c" d="M 0 0 
L 0 3.5 
" style="stroke: #000000; stroke-width: 0.8"/>
      </defs>
      <g>
       <use xlink:href="#mbc009a919c" x="98.787402" y="248.244094" style="stroke: #000000; stroke-width: 0.8"/>
      </g>
     </g>
     <g id="text_15">
      <text style="font-size: 8px; font-family: 'DejaVu Sans'; text-anchor: middle" x="98.787402" y="261.322844" transform="rotate(-0 98.787402 261.322844)">0</text>
     </g>
    </g>
    <g id="xtick_4">
     <g id="line2d_8">
      <g>
       <use xlink:href="#mbc009a919c" x="160.228346" y="248.244094" style="stroke: #000000; stroke-width: 0.8"/>
      </g>
     </g>
     <g id="text_16">
      <text style="font-size: 8px; font-family: 'DejaVu Sans'; text-anchor: middle" x="160.228346" y="261.322844" transform="rotate(-0 160.228346 261.322844)">50</text>
     </g>
    </g>
    <g id="xtick_5">
     <g id="line2d_9">
      <g>
       <use xlink:href="#mbc009a919c" x="221.669291" y="248.244094" style="stroke: #000000; stroke-width: 0.8"/>
      </g>
     </g>
     <g id="text_17">
      <text style="font-size: 8px; font-family: 'DejaVu Sans'; text-anchor: middle" x="221.669291" y="261.322844" transform="rotate(-0 221.669291 261.322844)">100</text>
     </g>
    </g>
    <g id="text_18">
     <text style="font-size: 8px; font-family: 'DejaVu Sans'; text-anchor: middle" x="160.228346" y="238.23622" transform="rotate(-0 160.228346 238.23622)">Detected modifications (%)</text>
    </g>
   </g>
   <g id="matplotlib.axis_4"/>
   <g id="LineCollection_1"/>
   <g id="patch_4">
    <path d="M 98.787402 248.244094 
L 98.787402 244.240157 
L 98.787402 240.23622 
L 221.669291 240.23622 
L 221.669291 244.240157 
L 221.669291 248.244094 
L 98.787402 248.244094 
z
" style="fill: none; stroke: #000000; stroke-width: 0.8; stroke-linejoin: miter; stroke-linecap: square"/>
   </g>
  </g>
  <g id="text_19">
   <text style="font-weight: 700; font-size: 10px; font-family: 'DejaVu Sans'; text-anchor: middle" x="120.472441" y="15.606312" transform="rotate(-0 120.472441 15.606312)">Language and timezone</text>
  </g>
  <g id="text_20">
   <text style="font-size: 8px; font-family: 'DejaVu Sans'; text-anchor: middle" x="120.472441" y="24.023622" transform="rotate(-0 120.472441 24.023622)">Modification detection (T/N)</text>
  </g>
  <g id="text_21">
   <text style="font-size: 8px; font-family: 'DejaVu Sans'; text-anchor: start" x="9.637795" y="273.869291" transform="rotate(-0 9.637795 273.869291)">Normal (N=46): both methods</text>
  </g>
  <g id="text_22">
   <text style="font-size: 8px; font-family: 'DejaVu Sans'; text-anchor: start" x="9.637795" y="285.40063" transform="rotate(-0 9.637795 285.40063)">T=0, F=46, U=0, FAILED=0</text>
  </g>
  <g id="text_23">
   <text style="font-size: 8px; font-family: 'DejaVu Sans'; text-anchor: start" x="9.637795" y="302.057008" transform="rotate(-0 9.637795 302.057008)">Counts agree in configurations 01, 02, 03.</text>
  </g>
  <g id="text_24">
   <text style="font-size: 8px; font-family: 'DejaVu Sans'; text-anchor: start" x="9.637795" y="313.268031" transform="rotate(-0 9.637795 313.268031)">Old pilot + matched controls; development.</text>
  </g>
 </g>
 <defs>
  <clipPath id="paa0f5c02cc">
   <rect x="96.377953" y="51.250394" width="132.519685" height="150.548031"/>
  </clipPath>
  <clipPath id="p0caf3ec2d7">
   <rect x="98.787402" y="240.23622" width="122.88189" height="8.007874"/>
  </clipPath>
 </defs>
</svg>
