<svg xmlns="http://www.w3.org/2000/svg" width="15cm" height="9.2075cm" viewBox="0 62 566.929 348.000">
  <defs>
    <marker id="arrow" markerWidth="5.8" markerHeight="5.2" refX="5.3" refY="2.6" orient="auto" markerUnits="strokeWidth">
      <path d="M0,0 L5.8,2.6 L0,5.2 Z" fill="#5D6B76"/>
    </marker>
    <filter id="softShadow" x="-15%" y="-15%" width="130%" height="130%">
      <feDropShadow dx="0" dy="1.2" stdDeviation="1.2" flood-color="#8AA0B4" flood-opacity="0.14"/>
    </filter>
  </defs>
  <style>
    .text { font-family: "Times New Roman", "Songti SC", "STSong", "SimSun", serif; font-size: 10.5pt; fill: #1F3142; letter-spacing: 0; }
    .medium { font-weight: 600; }
  </style>
  <rect width="566.929" height="440.000" fill="#FFFFFF"/>
  <rect x="28.00" y="70.00" width="512.00" height="332.00" fill="#FFFFFF" stroke="#DDE5EC" stroke-width="1"/>
  <rect x="28.00" y="70.00" width="512.00" height="34.00" fill="#F7FAFC" stroke="#DDE5EC" stroke-width="1"/>
  <line x1="194.00" y1="70.00" x2="194.00" y2="402.00" stroke="#DDE5EC" stroke-width="1"/>
  <line x1="374.00" y1="70.00" x2="374.00" y2="402.00" stroke="#DDE5EC" stroke-width="1"/>
  <text x="111.00" y="92.90" text-anchor="middle" class="text medium">
    <tspan x="111.00" dy="0.00">原始字段</tspan>
  </text>
  <text x="284.00" y="92.90" text-anchor="middle" class="text medium">
    <tspan x="284.00" dy="0.00">特征构造</tspan>
  </text>
  <text x="457.00" y="92.90" text-anchor="middle" class="text medium">
    <tspan x="457.00" dy="0.00">下游使用</tspan>
  </text>

  <rect x="48.00" y="116.00" width="126.00" height="64.00" fill="#EAF2F8" stroke="#4E79A7" stroke-width="1.15"/>
  <text x="111.00" y="135.90" text-anchor="middle" class="text medium">
    <tspan x="111.00" dy="0.00">三端原始特征</tspan>
    <tspan x="111.00" dy="18.00">Native / WebView</tspan>
    <tspan x="111.00" dy="18.00">/ Web</tspan>
  </text>

  <rect x="226.00" y="112.00" width="116.00" height="48.00" fill="#E7F4F1" stroke="#2A9D8F" stroke-width="1.15"/>
  <text x="284.00" y="131.90" text-anchor="middle" class="text medium">
    <tspan x="284.00" dy="0.00">字段解析与</tspan>
    <tspan x="284.00" dy="18.00">标准化</tspan>
  </text>
  <rect x="226.00" y="190.00" width="116.00" height="48.00" fill="#E7F4F1" stroke="#2A9D8F" stroke-width="1.15"/>
  <text x="284.00" y="209.90" text-anchor="middle" class="text medium">
    <tspan x="284.00" dy="0.00">跨层语义</tspan>
    <tspan x="284.00" dy="18.00">比对</tspan>
  </text>
  <rect x="226.00" y="272.00" width="116.00" height="50.00" fill="#F1EFF8" stroke="#7B6FB2" stroke-width="1.15"/>
  <text x="284.00" y="301.90" text-anchor="middle" class="text medium">
    <tspan x="284.00" dy="0.00">一致性特征</tspan>
  </text>

  <rect x="394.00" y="112.00" width="126.00" height="178.00" fill="#F7FAFC" stroke="#DDE5EC" stroke-width="1"/>
  <text x="457.00" y="136.90" text-anchor="middle" class="text medium">
    <tspan x="457.00" dy="0.00">特征含义</tspan>
  </text>
  <text x="412.00" y="166.90" text-anchor="start" class="text">
    <tspan x="412.00" dy="0.00">屏幕匹配</tspan>
  </text>
  <text x="412.00" y="194.90" text-anchor="start" class="text">
    <tspan x="412.00" dy="0.00">UA呼应</tspan>
  </text>
  <text x="412.00" y="222.90" text-anchor="start" class="text">
    <tspan x="412.00" dy="0.00">Provider一致</tspan>
  </text>
  <text x="412.00" y="250.90" text-anchor="start" class="text">
    <tspan x="412.00" dy="0.00">渲染环境、传感</tspan>
    <tspan x="412.00" dy="18.00">器/调试</tspan>
  </text>

  <rect x="394.00" y="298.00" width="126.00" height="38.00" fill="#FFF3E0" stroke="#E69F00" stroke-width="1.15"/>
  <text x="457.00" y="321.90" text-anchor="middle" class="text medium">
    <tspan x="457.00" dy="0.00">风险标签生成</tspan>
  </text>
  <rect x="394.00" y="352.00" width="126.00" height="38.00" fill="#F1EFF8" stroke="#7B6FB2" stroke-width="1.15"/>
  <text x="457.00" y="375.90" text-anchor="middle" class="text medium">
    <tspan x="457.00" dy="0.00">轻量评分模型</tspan>
  </text>

  <polyline points="174.00,148.00 194.00,148.00 194.00,136.00 226.00,136.00" fill="none" stroke="#5D6B76" stroke-width="1.12" marker-end="url(#arrow)"/>
  <line x1="284.00" y1="160.00" x2="284.00" y2="190.00" stroke="#5D6B76" stroke-width="1.12" marker-end="url(#arrow)"/>
  <line x1="284.00" y1="238.00" x2="284.00" y2="272.00" stroke="#5D6B76" stroke-width="1.12" marker-end="url(#arrow)"/>
  <polyline points="342.00,297.00 374.00,297.00 374.00,188.00 394.00,188.00" fill="none" stroke="#5D6B76" stroke-width="1.12" marker-end="url(#arrow)"/>
  <polyline points="342.00,297.00 374.00,297.00 374.00,317.00 394.00,317.00" fill="none" stroke="#5D6B76" stroke-width="1.12" marker-end="url(#arrow)"/>
  <polyline points="342.00,297.00 374.00,297.00 374.00,371.00 394.00,371.00" fill="none" stroke="#5D6B76" stroke-width="1.12" marker-end="url(#arrow)"/>
</svg>
