<svg width="960" height="384" viewBox="0 0 720 288" xmlns="http://www.w3.org/2000/svg" xmlns:xlink="http://www.w3.org/1999/xlink" stroke-linejoin="round" overflow="hidden"><defs></defs><defs><clipPath id="p0e588b5cb5"><rect x="52.4609" y="10.8" width="311.317" height="230.976"/></clipPath><clipPath id="p7cedf364c8"><rect x="397.883" y="10.8" width="311.317" height="230.976"/></clipPath></defs><g id="figure_1"><g id="patch_1"><path d="M0 288 720 288 720 0 0 0Z" fill="#FFFFFF"/></g><g id="axes_1"><g id="patch_2"><path d="M52.4609 241.776 363.777 241.776 363.777 10.8 52.4609 10.8Z" fill="#FFFFFF"/></g><g id="matplotlib.axis_1"><g id="xtick_1"><g id="line2d_1"><path d="M66.6117 241.776 66.6117 10.8" stroke="#B0B0B0" stroke-width="0.8" stroke-linecap="square" fill="none" clip-path="url(#p0e588b5cb5)"/></g><g id="line2d_2"><defs><path d="M0 0 0 3.5" id="ma5a850e85b" stroke="#000000" stroke-width="0.8"/></defs><g><use x="66.6117" y="241.776" width="100%" height="100%" xlink:href="#ma5a850e85b" stroke="#000000" stroke-width="0.8"></use></g></g><g id="text_1"><g transform="matrix(0.1 0 0 -0.1 63.4304 256.375)"><defs><path d="M691 4666 3169 4666 3169 4134 1269 4134 1269 2991C1360.33 3022.33 1451.67 3045.67 1543 3061 1635 3076.33 1727 3084 1819 3084 2339.67 3084 2752 2941.33 3056 2656 3360.67 2370.67 3513 1984.33 3513 1497 3513 995 3356.67 604.667 3044 326 2731.33 48 2290.67-91 1722-91 1526-91 1326.33-74.3333 1123-41 920.333-7.66667 710.667 42.3333 494 109L494 744C681.333 642 875 566 1075 516 1275 466 1486.33 441 1709 441 2069.67 441 2355 535.667 2565 725 2775.67 914.333 2881 1171.67 2881 1497 2881 1821.67 2775.67 2078.67 2565 2268 2355 2458 2069.67 2553 1709 2553 1540.33 2553 1372 2534.33 1204 2497 1036.67 2459.67 865.667 2401.33 691 2322L691 4666Z" id="DejaVuSans-35" transform="scale(0.015625 0.015625)"/></defs><use width="100%" height="100%" xlink:href="#DejaVuSans-35"></use></g></g></g><g id="xtick_2"><g id="line2d_3"><path d="M160.95 241.776 160.95 10.8" stroke="#B0B0B0" stroke-width="0.8" stroke-linecap="square" fill="none" clip-path="url(#p0e588b5cb5)"/></g><g id="line2d_4"><g><use x="160.95" y="241.776" width="100%" height="100%" xlink:href="#ma5a850e85b" stroke="#000000" stroke-width="0.8"></use></g></g><g id="text_2"><g transform="matrix(0.1 0 0 -0.1 154.588 256.375)"><defs><path d="M794 531 1825 531 1825 4091 703 3866 703 4441 1819 4666 2450 4666 2450 531 3481 531 3481 0 794 0 794 531Z" id="DejaVuSans-31" transform="scale(0.015625 0.015625)"/><path d="M2034 4250C1709.33 4250 1465 4090 1301 3770 1137.67 3450.67 1056 2970 1056 2328 1056 1688.67 1137.67 1209 1301 889 1465 569 1709.33 409 2034 409 2361.33 409 2606.67 569 2770 889 2934 1209 3016 1688.67 3016 2328 3016 2970 2934 3450.67 2770 3770 2606.67 4090 2361.33 4250 2034 4250ZM2034 4750C2557.33 4750 2957 4543 3233 4129 3509 3715.67 3647 3115.33 3647 2328 3647 1542.67 3509 943 3233 529 2957 115.667 2557.33-91 2034-91 1511.33-91 1112 115.667 836 529 560 943 422 1542.67 422 2328 422 3115.33 560 3715.67 836 4129 1112 4543 1511.33 4750 2034 4750Z" id="DejaVuSans-30" transform="scale(0.015625 0.015625)"/></defs><use width="100%" height="100%" xlink:href="#DejaVuSans-31"></use><use width="100%" height="100%" xlink:href="#DejaVuSans-30" transform="translate(63.623 0)"></use></g></g></g><g id="xtick_3"><g id="line2d_5"><path d="M255.288 241.776 255.288 10.8" stroke="#B0B0B0" stroke-width="0.8" stroke-linecap="square" fill="none" clip-path="url(#p0e588b5cb5)"/></g><g id="line2d_6"><g><use x="255.288" y="241.776" width="100%" height="100%" xlink:href="#ma5a850e85b" stroke="#000000" stroke-width="0.8"></use></g></g><g id="text_3"><g transform="matrix(0.1 0 0 -0.1 248.926 256.375)"><use width="100%" height="100%" xlink:href="#DejaVuSans-31"></use><use width="100%" height="100%" xlink:href="#DejaVuSans-35" transform="translate(63.623 0)"></use></g></g></g><g id="xtick_4"><g id="line2d_7"><path d="M349.627 241.776 349.627 10.8" stroke="#B0B0B0" stroke-width="0.8" stroke-linecap="square" fill="none" clip-path="url(#p0e588b5cb5)"/></g><g id="line2d_8"><g><use x="349.627" y="241.776" width="100%" height="100%" xlink:href="#ma5a850e85b" stroke="#000000" stroke-width="0.8"></use></g></g><g id="text_4"><g transform="matrix(0.1 0 0 -0.1 343.264 256.375)"><defs><path d="M1228 531 3431 531 3431 0 469 0 469 531C708.333 779 1034.67 1111.67 1448 1529 1862 1947 2122 2216.67 2228 2338 2430 2564.67 2571 2756.67 2651 2914 2731.67 3071.33 2772 3226 2772 3378 2772 3626 2685 3828 2511 3984 2337 4140.67 2110.33 4219 1831 4219 1633 4219 1424 4184.67 1204 4116 984.667 4047.33 750 3943 500 3803L500 4441C754 4543 991.333 4620 1212 4672 1433.33 4724 1635.67 4750 1819 4750 2302.33 4750 2687.67 4629 2975 4387 3262.33 4145.67 3406 3823 3406 3419 3406 3227 3370 3045 3298 2873 3226.67 2701.67 3096 2499.33 2906 2266 2854 2205.33 2688.33 2030.67 2409 1742 2130.33 1453.33 1736.67 1049.67 1228 531Z" id="DejaVuSans-32" transform="scale(0.015625 0.015625)"/></defs><use width="100%" height="100%" xlink:href="#DejaVuSans-32"></use><use width="100%" height="100%" xlink:href="#DejaVuSans-30" transform="translate(63.623 0)"></use></g></g></g><g id="text_5"><g transform="matrix(0.15 0 0 -0.15 106.869 274.408)"><defs><path d="M600 4225 600 4375 2600 4375 2600 4225 2025 4225C1958.33 4225 1904 4208.33 1862 4175 1820.67 4141.67 1800 4091.67 1800 4025L1800 450C1800 383.333 1820.67 333.333 1862 300 1904 266.667 1958.33 250 2025 250L2600 250 2600 100 600 100 600 250 1175 250C1258.33 250 1316.67 266.667 1350 300 1383.33 333.333 1400 383.333 1400 450L1400 4025C1400 4091.67 1383.33 4141.67 1350 4175 1316.67 4208.33 1258.33 4225 1175 4225L600 4225Z" id="SimSun-49" transform="scale(0.015625 0.015625)"/><path d="M1500 2150C1050 2350 741.667 2525 575 2675 408.333 2825 325 3058.33 325 3375 325 3625 429 3862.33 637 4087 845.667 4312.33 1141.67 4425 1525 4425 1691.67 4425 1850 4400 2000 4350 2150 4283.33 2258.33 4250 2325 4250 2375 4250 2420.67 4262.33 2462 4287 2504 4312.33 2541.67 4358.33 2575 4425L2675 3400 2550 3350C2400 3700 2245.67 3937.33 2087 4062 1929 4187.33 1725 4250 1475 4250 1158.33 4250 941.667 4162.33 825 3987 708.333 3812.33 650 3625 650 3425 650 3241.67 704 3095.67 812 2987 920.667 2879 1216.67 2716.67 1700 2500 2100 2333.33 2387.33 2145.67 2562 1937 2737.33 1729 2825 1483.33 2825 1200 2825 900 2720.67 633.333 2512 400 2304 166.667 2000 50 1600 50 1433.33 50 1283.33 83.3333 1150 150 1000 200 883.333 225 800 225 750 225 700 208.333 650 175 600 141.667 541.667 100 475 50L275 1275 425 1325C541.667 908.333 704 620.667 912 462 1120.67 304 1358.33 225 1625 225 1908.33 225 2120.67 308.333 2262 475 2404 641.667 2475 883.333 2475 1200 2475 1366.67 2395.67 1529 2237 1687 2079 1845.67 1833.33 2000 1500 2150Z" id="SimSun-53" transform="scale(0.015625 0.015625)"/><path d="M1725 50C1258.33 50 887.333 225 612 575 337.333 925 200 1475 200 2225 200 2858.33 345.667 3383.33 637 3800 929 4216.67 1325 4425 1825 4425 1941.67 4425 2058.33 4408.33 2175 4375 2291.67 4325 2391.67 4300 2475 4300 2541.67 4300 2595.67 4308.33 2637 4325 2679 4341.67 2716.67 4375 2750 4425L2975 3325 2825 3275C2725 3591.67 2591.67 3833.33 2425 4000 2258.33 4166.67 2041.67 4250 1775 4250 1425 4250 1154 4058.33 962 3675 770.667 3291.67 675 2816.67 675 2250 675 1633.33 758.333 1150 925 800 1091.67 450 1366.67 275 1750 275 2016.67 275 2245.67 370.667 2437 562 2629 754 2758.33 1008.33 2825 1325L2975 1250C2891.67 900 2737.33 612.333 2512 387 2287.33 162.333 2025 50 1725 50Z" id="SimSun-43" transform="scale(0.015625 0.015625)"/><path d="M1750 2400 2625 525C2675 425 2729 354 2787 312 2845.67 270.667 2908.33 250 2975 250L3050 250 3050 100 1975 100 1975 250 2075 250C2158.33 250 2208.33 262.333 2225 287 2241.67 312.333 2250 341.667 2250 375 2250 408.333 2241.67 441.667 2225 475L1550 1950 975 750C941.667 666.667 916.667 600 900 550 866.667 483.333 850 441.667 850 425 850 358.333 870.667 312.333 912 287 954 262.333 1008.33 250 1075 250L1125 250 1125 100 175 100 175 250 275 250C358.333 250 433.333 275 500 325 566.667 375 616.667 433.333 650 500L1450 2200 600 4050C583.333 4100 554 4141.67 512 4175 470.667 4208.33 416.667 4225 350 4225L250 4225 250 4375 1275 4375 1275 4225 1200 4225C1100 4225 1041.67 4200 1025 4150 1008.33 4100 1016.67 4025 1050 3925L1650 2600 2250 3875C2300 3991.67 2316.67 4079 2300 4137 2283.33 4195.67 2225 4225 2125 4225L1975 4225 1975 4375 2950 4375 2950 4225 2800 4225C2766.67 4225 2725 4208.33 2675 4175 2625 4141.67 2575 4091.67 2525 4025L1750 2400ZM525 250 525 250ZM750 250 750 250ZM2625 4225 2625 4225ZM2325 4225 2325 4225ZM2325 250 2325 250ZM2750 250 2750 250ZM925 4225 925 4225ZM525 4225 525 4225Z" id="SimSun-58" transform="scale(0.015625 0.015625)"/><path d="M200 2225 200 2450 2975 2450 2975 2225 200 2225Z" id="SimSun-2d" transform="scale(0.015625 0.015625)"/><path d="M2125 4225 2125 4375 3025 4375 3025 4225 2925 4225C2858.33 4225 2795.67 4200 2737 4150 2679 4100 2633.33 4008.33 2600 3875L1575 100 1425 100 500 3875C483.333 3991.67 454 4079 412 4137 370.667 4195.67 308.333 4225 225 4225L100 4225 100 4375 1175 4375 1175 4225 1075 4225C991.667 4225 937.333 4200 912 4150 887.333 4100 883.333 4033.33 900 3950L1600 1025 1650 1025 2400 3875C2416.67 3941.67 2425 3991.67 2425 4025 2425 4075 2412.33 4120.67 2387 4162 2362.33 4204 2300 4225 2200 4225L2125 4225ZM825 4225 825 4225ZM425 4225 425 4225ZM2700 4225 2700 4225ZM2500 4225 2500 4225Z" id="SimSun-56" transform="scale(0.015625 0.015625)"/><path d="M950 2100 950 450C950 383.333 970.667 333.333 1012 300 1054 266.667 1108.33 250 1175 250L1350 250 1350 100 150 100 150 250 325 250C408.333 250 466.667 266.667 500 300 533.333 333.333 550 383.333 550 450L550 4025C550 4091.67 533.333 4141.67 500 4175 466.667 4208.33 408.333 4225 325 4225L175 4225 175 4375 1650 4375C2066.67 4375 2387.33 4270.67 2612 4062 2837.33 3854 2950 3591.67 2950 3275 2950 2891.67 2829 2600 2587 2400 2345.67 2200 2058.33 2100 1725 2100L950 2100ZM1575 2250C1825 2250 2045.67 2325 2237 2475 2429 2625 2525 2883.33 2525 3250 2525 3583.33 2445.67 3829 2287 3987 2129 4145.67 1875 4225 1525 4225L1175 4225C1108.33 4225 1054 4208.33 1012 4175 970.667 4141.67 950 4091.67 950 4025L950 2250 1575 2250Z" id="SimSun-50" transform="scale(0.015625 0.015625)"/><path d="M2525 1100 2575 1100 2575 4025C2575 4091.67 2558.33 4141.67 2525 4175 2491.67 4208.33 2433.33 4225 2350 4225L2150 4225 2150 4375 3150 4375 3150 4225 2950 4225C2883.33 4225 2829 4208.33 2787 4175 2745.67 4141.67 2725 4091.67 2725 4025L2725 100 2575 100 675 3825 625 3825 625 450C625 383.333 645.667 333.333 687 300 729 266.667 783.333 250 850 250L1050 250 1050 100 50 100 50 250 250 250C333.333 250 391.667 266.667 425 300 458.333 333.333 475 383.333 475 450L475 4025C475 4091.67 458.333 4141.67 425 4175 391.667 4208.33 333.333 4225 250 4225L100 4225 100 4375 825 4375 2525 1100Z" id="SimSun-4e" transform="scale(0.015625 0.015625)"/><path d="M2325 3325C2325 3625 2258.33 3854 2125 4012 1991.67 4170.67 1791.67 4250 1525 4250 1325 4250 1154 4195.67 1012 4087 870.667 3979 800 3841.67 800 3675 800 3575 833.333 3491.67 900 3425 950 3358.33 975 3291.67 975 3225 975 3141.67 954 3079 912 3037 870.667 2995.67 808.333 2975 725 2975 625 2975 545.667 3004 487 3062 429 3120.67 400 3216.67 400 3350 400 3700 525 3966.67 775 4150 1025 4333.33 1291.67 4425 1575 4425 1975 4425 2270.67 4325 2462 4125 2654 3925 2750 3675 2750 3375 2750 3175 2704 2975 2612 2775 2520.67 2575 2375 2383.33 2175 2200 1691.67 1733.33 1320.67 1354 1062 1062 804 770.667 650 575 600 475L2075 475C2225 475 2350 533.333 2450 650 2550 766.667 2616.67 941.667 2650 1175L2800 1175 2650 100 325 100 325 425C408.333 575 545.667 766.667 737 1000 929 1233.33 1183.33 1508.33 1500 1825 1783.33 2108.33 1991.67 2375 2125 2625 2258.33 2875 2325 3108.33 2325 3325Z" id="SimSun-32" transform="scale(0.015625 0.015625)"/><path d="M1600 4225C1366.67 4225 1170.67 4045.67 1012 3687 854 3329 775 2850 775 2250 775 1616.67 854 1125 1012 775 1170.67 425 1366.67 250 1600 250 1850 250 2045.67 425 2187 775 2329 1125 2400 1616.67 2400 2250 2400 2850 2333.33 3329 2200 3687 2066.67 4045.67 1866.67 4225 1600 4225ZM1600 50C1233.33 50 925 241.667 675 625 425 1008.33 300 1550 300 2250 300 2900 420.667 3425 662 3825 904 4225 1216.67 4425 1600 4425 1966.67 4425 2270.67 4233.33 2512 3850 2754 3466.67 2875 2933.33 2875 2250 2875 1566.67 2754 1029 2512 637 2270.67 245.667 1966.67 50 1600 50Z" id="SimSun-30" transform="scale(0.015625 0.015625)"/><path d="M1825 4450 1825 650C1825 516.667 1866.67 416.667 1950 350 2033.33 283.333 2150 250 2300 250L2550 250 2550 100 725 100 725 250 950 250C1116.67 250 1237.33 283.333 1312 350 1387.33 416.667 1425 516.667 1425 650L1425 3675C1425 3741.67 1404 3795.67 1362 3837 1320.67 3879 1258.33 3900 1175 3900L725 3900 725 4050 950 4050C1150 4050 1312.33 4083.33 1437 4150 1562.33 4216.67 1658.33 4316.67 1725 4450L1825 4450Z" id="SimSun-31" transform="scale(0.015625 0.015625)"/><path d="M775 1800C775 1300 862.333 912.333 1037 637 1212.33 362.333 1425 225 1675 225 1925 225 2116.67 316.667 2250 500 2383.33 683.333 2450 1025 2450 1525 2450 1858.33 2379 2116.67 2237 2300 2095.67 2483.33 1925 2575 1725 2575 1541.67 2575 1370.67 2520.67 1212 2412 1054 2304 908.333 2100 775 1800ZM1750 2825C2150 2825 2437.33 2691.67 2612 2425 2787.33 2158.33 2875 1858.33 2875 1525 2875 1025 2754 654 2512 412 2270.67 170.667 1991.67 50 1675 50 1225 50 883.333 220.667 650 562 416.667 904 300 1400 300 2050 300 2816.67 441.667 3404 725 3812 1008.33 4220.67 1391.67 4425 1875 4425 2108.33 4425 2295.67 4358.33 2437 4225 2579 4091.67 2650 3975 2650 3875 2650 3775 2629 3700 2587 3650 2545.67 3600 2475 3575 2375 3575 2291.67 3575 2229 3595.67 2187 3637 2145.67 3679 2125 3741.67 2125 3825 2125 3858.33 2133.33 3891.67 2150 3925 2150 3958.33 2150 3991.67 2150 4025 2150 4091.67 2125 4145.67 2075 4187 2025 4229 1933.33 4250 1800 4250 1516.67 4250 1275 4120.67 1075 3862 875 3604 775 3041.67 775 2175 875 2391.67 1012.33 2554 1187 2662 1362.33 2770.67 1550 2825 1750 2825Z" id="SimSun-36" transform="scale(0.015625 0.015625)"/><path d="M0 0C0 0 0 0 0 0Z" id="SimSun-20" transform="scale(0.015625 0.015625)"/><path d="M3475 3750C3475 4483.33 3466.67 4975 3450 5225L4000 4950 3800 4775 3800 3750 4800 3750 5025 3975 5350 3650 5175 3525 5175 2025 5375 2025 5700 2350 6150 1875 4050 1875C4266.67 1225 4537.33 737.333 4862 412 5187.33 87.3333 5566.67-125 6000-225L6000-300C5733.33-333.333 5550-433.333 5450-600 5133.33-400 4833.33-108.333 4550 275 4266.67 658.333 4058.33 1191.67 3925 1875L3700 1875C3566.67 1241.67 3316.67 725 2950 325 2583.33-75 2091.67-400 1475-650L1450-550C1950-300 2362.33 20.6667 2687 412 3012.33 804 3241.67 1291.67 3375 1875L2425 1875 2075 1825 1875 2025 3400 2025C3450 2558.33 3475 3083.33 3475 3600L3025 3600 2700 3550 2500 3750 3475 3750ZM3800 3600C3800 3100 3775 2575 3725 2025L4850 2025 4850 3600 3800 3600ZM775 4775C1341.67 4475 1633.33 4233.33 1650 4050 1666.67 3866.67 1641.67 3750 1575 3700 1508.33 3650 1466.67 3625 1450 3625 1383.33 3625 1325 3708.33 1275 3875 1191.67 4091.67 1008.33 4375 725 4725L775 4775ZM450 1600 450 1725C750 1708.33 941.667 1704 1025 1712 1108.33 1720.67 1191.67 1775 1275 1875 1358.33 1975 1691.67 2766.67 2275 4250L2375 4200C1775 2516.67 1470.67 1516.67 1462 1200 1454 883.333 1466.67 583.333 1500 300 1533.33 16.6667 1491.67-125 1375-125 1258.33-125 1162.33-75 1087 25 1012.33 125 991.667 266.667 1025 450 1058.33 633.333 1087.33 825 1112 1025 1137.33 1225 1104 1358.33 1012 1425 920.667 1491.67 733.333 1550 450 1600Z" id="SimSun-51b3" transform="scale(0.015625 0.015625)"/><path d="M1700 5225 2150 4900 2000 4800C1850 4616.67 1741.67 4483.33 1675 4400L2775 4400 3050 4675 3450 4250 2075 4250C2208.33 4166.67 2325 4070.67 2425 3962 2525 3854 2570.67 3750 2562 3650 2554 3550 2525 3483.33 2475 3450 2425 3416.67 2383.33 3400 2350 3400 2300 3400 2266.67 3450 2250 3550 2216.67 3700 2175 3829 2125 3937 2075 4045.67 2008.33 4150 1925 4250L1600 4250C1450 4083.33 1295.67 3925 1137 3775 979 3625 775 3466.67 525 3300L475 3375C775 3658.33 1029 3966.67 1237 4300 1445.67 4633.33 1600 4941.67 1700 5225ZM3975 5200 4425 4875 4275 4800C4141.67 4633.33 4033.33 4500 3950 4400L5200 4400 5500 4700 5925 4250 4325 4250C4508.33 4150 4650 4050 4750 3950 4850 3850 4883.33 3745.67 4850 3637 4816.67 3529 4762.33 3450 4687 3400 4612.33 3350 4566.67 3391.67 4550 3525 4516.67 3658.33 4475 3779 4425 3887 4375 3995.67 4300 4116.67 4200 4250L3875 4250C3708.33 4066.67 3491.67 3875 3225 3675L3175 3750C3375 3983.33 3545.67 4237.33 3687 4512 3829 4787.33 3925 5016.67 3975 5200ZM3100 3075C3100 3308.33 3091.67 3500 3075 3650L3600 3425 3425 3250 3425 3075 5125 3075 5525 3450 6025 2925 3425 2925 3425 2375 4750 2375 5000 2625 5325 2300 5125 2150 5125 1450C5125 1283.33 5100 1162.33 5050 1087 5000 1012.33 4883.33 933.333 4700 850 4600 1066.67 4383.33 1216.67 4050 1300L4050 1400C4300 1366.67 4458.33 1350 4525 1350 4575 1333.33 4633.33 1329 4700 1337 4766.67 1345.67 4800 1408.33 4800 1525L4800 2225 3425 2225 3425 1625C3741.67 1225 4058.33 916.667 4375 700 4691.67 483.333 4979 333.333 5237 250 5495.67 166.667 5791.67 108.333 6125 75L6125 0C5841.67-66.6667 5675-183.333 5625-350 5375-266.667 5125-146 4875 12 4625 170.667 4387.33 350 4162 550 3937.33 750 3691.67 1041.67 3425 1425L3425 100C3425-83.3333 3433.33-266.667 3450-450L3075-625C3091.67-158.333 3100 175 3100 375L3100 1275C2750 891.667 2325 545.667 1825 237 1325-71 825-316.667 325-500L300-400C883.333-116.667 1408.33 200 1875 550 2341.67 900 2750 1308.33 3100 1775L3100 2225 1700 2225 1700 950 1350 800C1366.67 1083.33 1375 1379 1375 1687 1375 1995.67 1366.67 2283.33 1350 2550L1700 2375 3100 2375 3100 2925 1300 2925C1083.33 2925 883.333 2900 700 2850L475 3075 3100 3075Z" id="SimSun-7b56" transform="scale(0.015625 0.015625)"/><path d="M2200 4225 3575 4225 3775 4450 4175 4125 3950 3975C3816.67 3358.33 3633.33 2750 3400 2150 3583.33 1866.67 3700 1650 3750 1500 3800 1350 3825 1216.67 3825 1100 3825 983.333 3800 883.333 3750 800 3700 716.667 3666.67 675 3650 675 3600 675 3550 783.333 3500 1000 3416.67 1316.67 3325 1608.33 3225 1875 2841.67 1191.67 2400 658.333 1900 275L1850 350C2316.67 833.333 2716.67 1441.67 3050 2175 2866.67 2575 2683.33 2950 2500 3300L2575 3350C2708.33 3166.67 2908.33 2866.67 3175 2450 3325 2833.33 3466.67 3375 3600 4075L2675 4075 2400 4025 2200 4225ZM4875 5200 5500 4900 5250 4750 5250 3650 5450 3650 5725 3925 6150 3500 5250 3500 5250-75C5216.67-308.333 5016.67-483.333 4650-600 4650-383.333 4366.67-183.333 3800 0L3800 100C4166.67 33.3333 4445.67 0 4637 0 4829 0 4916.67 100 4900 300L4900 3500 4350 3500 4125 3450 3925 3650 4900 3650C4900 4150 4891.67 4666.67 4875 5200ZM3925 2775C4191.67 2541.67 4366.67 2345.67 4450 2187 4533.33 2029 4575 1900 4575 1800 4575 1700 4541.67 1608.33 4475 1525 4408.33 1441.67 4366.67 1400 4350 1400 4283.33 1400 4233.33 1508.33 4200 1725 4150 2041.67 4033.33 2375 3850 2725L3925 2775ZM1650 2700C1650 950 1658.33-116.667 1675-500L1275-650C1291.67 116.667 1300 1075 1300 2225 1016.67 1608.33 691.667 1100 325 700L250 750C733.333 1483.33 1083.33 2383.33 1300 3450L675 3450 450 3400 250 3600 1300 3600C1300 4033.33 1291.67 4575 1275 5225L1875 4925 1650 4775 1650 3600 1900 3600 2175 3875 2600 3450 1650 3450 1650 2825C2000 2675 2225 2550 2325 2450 2425 2350 2475 2250 2475 2150 2475 2083.33 2454 2008.33 2412 1925 2370.67 1841.67 2341.67 1800 2325 1800 2275 1800 2225 1858.33 2175 1975 2091.67 2158.33 1916.67 2400 1650 2700Z" id="SimSun-6811" transform="scale(0.015625 0.015625)"/><path d="M1550 2725 1550 2200 2725 2200 2725 2725 1550 2725ZM1550 2050 1550 1475 2725 1475 2725 2050 1550 2050ZM1550 1325 1550 525 2725 725 2725 1325 1550 1325ZM3800 2125C3866.67 1891.67 3958.33 1658.33 4075 1425 4191.67 1191.67 4316.67 1000 4450 850 4583.33 1050 4704 1258.33 4812 1475 4920.67 1691.67 5016.67 1908.33 5100 2125L3800 2125ZM325 2875 5100 2875 5500 3275 6050 2725 3050 2725 3050 800 3775 950 3800 850 3050 625 3050-450 2725-650 2725 525C1791.67 291.667 1225 137.333 1025 62 825-12.6667 708.333-83.3333 675-150L375 325C608.333 358.333 883.333 400 1200 450L1200 2725 850 2725 525 2675 325 2875ZM3150 2275 5075 2275 5275 2525 5675 2175 5450 2050C5200 1483.33 4933.33 1008.33 4650 625 4916.67 375 5150 200 5350 100 5550 0 5791.67-58.3333 6075-75L6075-175C5808.33-208.333 5641.67-308.333 5575-475 5391.67-391.667 5208.33-279 5025-137 4841.67 4.33333 4650 183.333 4450 400 4116.67 66.6667 3675-258.333 3125-575L3050-500C3533.33-166.667 3941.67 200 4275 600 4125 833.333 4004 1070.67 3912 1312 3820.67 1554 3741.67 1825 3675 2125L3350 2075 3150 2275ZM1900 4800 1900 4250 4600 4250 4600 4800 1900 4800ZM1900 4100 1900 3550 4600 3550 4600 4100 1900 4100ZM1525 5150 1900 4950 4550 4950 4725 5225 5150 4925 4950 4750C4950 3933.33 4958.33 3441.67 4975 3275L4600 3100 4600 3400 1900 3400 1900 3200 1525 3075C1541.67 3391.67 1550 3737.33 1550 4112 1550 4487.33 1541.67 4833.33 1525 5150Z" id="SimSun-6700" transform="scale(0.015625 0.015625)"/><path d="M2925 3475C2925 4358.33 2916.67 4950 2900 5250L3500 4975 3300 4775 3300 3475 5150 3475 5550 3875 6100 3325 3300 3325 3300 3125C3466.67 2508.33 3770.67 1887.33 4212 1262 4654 637.333 5275 216.667 6075 0L6075-100C5825-116.667 5641.67-225 5525-425 4975-91.6667 4500 366.667 4100 950 3700 1533.33 3416.67 2141.67 3250 2775 3100 1758.33 2783.33 1004 2300 512 1816.67 20.6667 1166.67-358.333 350-625L325-525C908.333-275 1400 41.6667 1800 425 2200 808.333 2479 1250 2637 1750 2795.67 2250 2891.67 2775 2925 3325L950 3325 600 3275 400 3475 2925 3475Z" id="SimSun-5927" transform="scale(0.015625 0.015625)"/><path d="M2700 4875 2725 4575 5275 4575 5500 4800 5900 4400C5700 4400 5441.67 4208.33 5125 3825L5050 3875 5300 4425 2725 4425C2741.67 4208.33 2729 4062.33 2687 3987 2645.67 3912.33 2595.67 3866.67 2537 3850 2479 3833.33 2433.33 3825 2400 3825 2350 3825 2308.33 3833.33 2275 3850 2241.67 3866.67 2225 3883.33 2225 3900 2225 3950 2258.33 4016.67 2325 4100 2425 4216.67 2508.33 4475 2575 4875L2700 4875ZM3225 4075 3675 3725C3491.67 3658.33 3283.33 3516.67 3050 3300 2816.67 3066.67 2558.33 2841.67 2275 2625L2225 2700C2725 3216.67 3058.33 3675 3225 4075ZM4325 4000C4908.33 3766.67 5250 3595.67 5350 3487 5450 3379 5500 3275 5500 3175 5500 3108.33 5483.33 3033.33 5450 2950 5416.67 2866.67 5383.33 2825 5350 2825 5300 2825 5233.33 2908.33 5150 3075 5016.67 3308.33 4725 3591.67 4275 3925L4325 4000ZM4175 2100 4175 475C4175 191.667 4183.33-91.6667 4200-375L3800-550C3816.67-233.333 3825 600 3825 1950 3258.33 950 2541.67 266.667 1675-100L1625-25C2391.67 458.333 3016.67 1166.67 3500 2100L3000 2100C2783.33 2100 2583.33 2075 2400 2025L2175 2250 3825 2250C3825 2716.67 3816.67 3075 3800 3325L4375 3050 4175 2875 4175 2250 5275 2250 5600 2600 6025 2100 4350 2100C4850 1166.67 5416.67 591.667 6050 375L6050 275C5816.67 291.667 5633.33 208.333 5500 25 4933.33 575 4508.33 1266.67 4225 2100L4175 2100ZM2100 4075C1616.67 2391.67 1350 1425 1300 1175 1250 925 1225 650 1225 350 1225 50 1225-145.667 1225-237 1225-329 1183.33-375 1100-375 1033.33-375 954-358.333 862-325 770.667-291.667 725-216.667 725-100 725-16.6667 750 108.333 800 275 850 441.667 875 575 875 675 875 791.667 837.333 883.333 762 950 687.333 1016.67 525 1083.33 275 1150L275 1250C575 1216.67 754 1204 812 1212 870.667 1220.67 945.667 1295.67 1037 1437 1129 1579 1450 2466.67 2000 4100L2100 4075ZM300 3525C850 3258.33 1125 3041.67 1125 2875 1125 2708.33 1095.67 2600 1037 2550 979 2500 941.667 2475 925 2475 875 2475 825 2558.33 775 2725 691.667 2925 516.667 3175 250 3475L300 3525ZM875 4975C1325 4741.67 1575 4575 1625 4475 1675 4375 1700 4308.33 1700 4275 1700 4208.33 1670.67 4137.33 1612 4062 1554 3987.33 1508.33 3950 1475 3950 1408.33 3950 1358.33 4016.67 1325 4150 1241.67 4350 1075 4600 825 4900L875 4975Z" id="SimSun-6df1" transform="scale(0.015625 0.015625)"/><path d="M2550 2025C2566.67 2358.33 2575 2741.67 2575 3175L1925 3175 1625 3125 1425 3325 2575 3325C2575 3575 2566.67 3850 2550 4150L3100 3875 2900 3750 2900 3325 4300 3325C4300 3608.33 4291.67 3875 4275 4125L4850 3875 4625 3725 4625 3325 5100 3325 5425 3650 5900 3175 4625 3175C4625 2691.67 4633.33 2375 4650 2225L4300 2075 4300 2300 2900 2300 2900 2175 2550 2025ZM4875 1500C4491.67 1016.67 4166.67 658.333 3900 425 4433.33 91.6667 5141.67-91.6667 6025-125L6025-225C5758.33-275 5600-383.333 5550-550 4766.67-400 4141.67-141.667 3675 225 2875-225 2008.33-508.333 1075-625L1050-525C1933.33-358.333 2733.33-33.3333 3450 450 3133.33 766.667 2841.67 1158.33 2575 1625L2325 1625 2100 1575 1900 1775 4525 1775 4750 2000 5125 1625 4875 1500ZM2700 1625C3016.67 1191.67 3333.33 858.333 3650 625 3983.33 941.667 4266.67 1275 4500 1625L2700 1625ZM2900 3175 2900 2450 4300 2450 4300 3175 2900 3175ZM975 4650 1400 4400 3375 4400C3358.33 4500 3320.67 4608.33 3262 4725 3204 4841.67 3083.33 5008.33 2900 5225L2975 5275C3358.33 5108.33 3579 4979 3637 4887 3695.67 4795.67 3725 4741.67 3725 4725 3725 4625 3658.33 4516.67 3525 4400L5150 4400 5500 4750 6000 4250 1375 4250C1391.67 3250 1362.33 2470.67 1287 1912 1212.33 1354 1091.67 875 925 475 758.333 75 550-291.667 300-625L225-575C558.333 8.33333 770.667 616.667 862 1250 954 1883.33 1004 2529 1012 3187 1020.67 3845.67 1008.33 4333.33 975 4650Z" id="SimSun-5ea6" transform="scale(0.015625 0.015625)"/></defs><use width="100%" height="100%" xlink:href="#SimSun-49"></use><use width="100%" height="100%" xlink:href="#SimSun-53" transform="translate(50 0)"></use><use width="100%" height="100%" xlink:href="#SimSun-43" transform="translate(100 0)"></use><use width="100%" height="100%" xlink:href="#SimSun-58" transform="translate(150 0)"></use><use width="100%" height="100%" xlink:href="#SimSun-2d" transform="translate(200 0)"></use><use width="100%" height="100%" xlink:href="#SimSun-56" transform="translate(250 0)"></use><use width="100%" height="100%" xlink:href="#SimSun-50" transform="translate(300 0)"></use><use width="100%" height="100%" xlink:href="#SimSun-4e" transform="translate(350 0)"></use><use width="100%" height="100%" xlink:href="#SimSun-32" transform="translate(400 0)"></use><use width="100%" height="100%" xlink:href="#SimSun-30" transform="translate(450 0)"></use><use width="100%" height="100%" xlink:href="#SimSun-31" transform="translate(500 0)"></use><use width="100%" height="100%" xlink:href="#SimSun-36" transform="translate(550 0)"></use><use width="100%" height="100%" xlink:href="#SimSun-20" transform="translate(600 0)"></use><use width="100%" height="100%" xlink:href="#SimSun-51b3" transform="translate(650 0)"></use><use width="100%" height="100%" xlink:href="#SimSun-7b56" transform="translate(750 0)"></use><use width="100%" height="100%" xlink:href="#SimSun-6811" transform="translate(850 0)"></use><use width="100%" height="100%" xlink:href="#SimSun-6700" transform="translate(950 0)"></use><use width="100%" height="100%" xlink:href="#SimSun-5927" transform="translate(1050 0)"></use><use width="100%" height="100%" xlink:href="#SimSun-6df1" transform="translate(1150 0)"></use><use width="100%" height="100%" xlink:href="#SimSun-5ea6" transform="translate(1250 0)"></use></g></g></g><g id="matplotlib.axis_2"><g id="ytick_1"><g id="line2d_9"><path d="M52.4609 226.696 363.777 226.696" stroke="#B0B0B0" stroke-width="0.8" stroke-linecap="square" fill="none" clip-path="url(#p0e588b5cb5)"/></g><g id="line2d_10"><defs><path d="M0 0-3.5 0" id="m0f3d4296a0" stroke="#000000" stroke-width="0.8"/></defs><g><use x="52.4609" y="226.696" width="100%" height="100%" xlink:href="#m0f3d4296a0" stroke="#000000" stroke-width="0.8"></use></g></g><g id="text_6"><g transform="matrix(0.1 0 0 -0.1 34.2609 230.496)"><defs><path d="M2113 2584C1829.67 2584 1605 2487 1439 2293 1273.67 2099.67 1191 1834.33 1191 1497 1191 1161.67 1273.67 896.333 1439 701 1605 506.333 1829.67 409 2113 409 2396.33 409 2620.67 506.333 2786 701 2951.33 896.333 3034 1161.67 3034 1497 3034 1834.33 2951.33 2099.67 2786 2293 2620.67 2487 2396.33 2584 2113 2584ZM3366 4563 3366 3988C3207.33 4062.67 3047.33 4119.67 2886 4159 2724.67 4199 2564.67 4219 2406 4219 1989.33 4219 1671 4078.33 1451 3797 1231.67 3515.67 1106.33 3090.67 1075 2522 1197.67 2703.33 1351.67 2842.33 1537 2939 1723 3035.67 1927.33 3084 2150 3084 2618.67 3084 2989 2941.67 3261 2657 3533 2373 3669 1986.33 3669 1497 3669 1017.67 3527.33 633 3244 343 2960.67 53.6667 2583.67-91 2113-91 1573-91 1160.33 115.667 875 529 589.667 943 447 1542.67 447 2328 447 3065.33 622 3653.33 972 4092 1322 4530.67 1791.67 4750 2381 4750 2539.67 4750 2699.67 4734.33 2861 4703 3022.33 4671.67 3190.67 4625 3366 4563Z" id="DejaVuSans-36" transform="scale(0.015625 0.015625)"/></defs><use width="100%" height="100%" xlink:href="#DejaVuSans-32" transform="matrix(1 0 0 1 0 0.765625)"></use><use width="100%" height="100%" xlink:href="#DejaVuSans-36" transform="matrix(0.7 0 0 0.7 64.5801 39.0469)"></use></g></g></g><g id="ytick_2"><g id="line2d_11"><path d="M52.4609 199.283 363.777 199.283" stroke="#B0B0B0" stroke-width="0.8" stroke-linecap="square" fill="none" clip-path="url(#p0e588b5cb5)"/></g><g id="line2d_12"><g><use x="52.4609" y="199.283" width="100%" height="100%" xlink:href="#m0f3d4296a0" stroke="#000000" stroke-width="0.8"></use></g></g><g id="text_7"><g transform="matrix(0.1 0 0 -0.1 34.2609 203.083)"><defs><path d="M525 4666 3525 4666 3525 4397 1831 0 1172 0 2766 4134 525 4134 525 4666Z" id="DejaVuSans-37" transform="scale(0.015625 0.015625)"/></defs><use width="100%" height="100%" xlink:href="#DejaVuSans-32" transform="matrix(1 0 0 1 0 0.684375)"></use><use width="100%" height="100%" xlink:href="#DejaVuSans-37" transform="matrix(0.7 0 0 0.7 64.5801 38.9656)"></use></g></g></g><g id="ytick_3"><g id="line2d_13"><path d="M52.4609 171.871 363.777 171.871" stroke="#B0B0B0" stroke-width="0.8" stroke-linecap="square" fill="none" clip-path="url(#p0e588b5cb5)"/></g><g id="line2d_14"><g><use x="52.4609" y="171.871" width="100%" height="100%" xlink:href="#m0f3d4296a0" stroke="#000000" stroke-width="0.8"></use></g></g><g id="text_8"><g transform="matrix(0.1 0 0 -0.1 34.2609 175.67)"><defs><path d="M2034 2216C1734 2216 1498 2135.67 1326 1975 1154.67 1814.33 1069 1593.67 1069 1313 1069 1031.67 1154.67 810.667 1326 650 1498 489.333 1734 409 2034 409 2334 409 2570.33 489.667 2743 651 2916.33 813 3003 1033.67 3003 1313 3003 1593.67 2917 1814.33 2745 1975 2573.67 2135.67 2336.67 2216 2034 2216ZM1403 2484C1132.33 2550.67 921.333 2676.67 770 2862 619.333 3048 544 3274.33 544 3541 544 3913.67 676.667 4208.33 942 4425 1208 4641.67 1572 4750 2034 4750 2498.67 4750 2863.33 4641.67 3128 4425 3392.67 4208.33 3525 3913.67 3525 3541 3525 3274.33 3449.33 3048 3298 2862 3147.33 2676.67 2937.67 2550.67 2669 2484 2973 2413.33 3209.67 2274.67 3379 2068 3549 1862 3634 1610.33 3634 1313 3634 860.333 3496 513 3220 271 2944 29.6667 2548.67-91 2034-91 1520-91 1124.67 29.6667 848 271 572 513 434 860.333 434 1313 434 1610.33 519.333 1862 690 2068 861.333 2274.67 1099 2413.33 1403 2484ZM1172 3481C1172 3239.67 1247.33 3051.33 1398 2916 1549.33 2780.67 1761.33 2713 2034 2713 2305.33 2713 2517.33 2780.67 2670 2916 2823.33 3051.33 2900 3239.67 2900 3481 2900 3723 2823.33 3911.67 2670 4047 2517.33 4182.33 2305.33 4250 2034 4250 1761.33 4250 1549.33 4182.33 1398 4047 1247.33 3911.67 1172 3723 1172 3481Z" id="DejaVuSans-38" transform="scale(0.015625 0.015625)"/></defs><use width="100%" height="100%" xlink:href="#DejaVuSans-32" transform="matrix(1 0 0 1 0 0.765625)"></use><use width="100%" height="100%" xlink:href="#DejaVuSans-38" transform="matrix(0.7 0 0 0.7 64.5801 39.0469)"></use></g></g></g><g id="ytick_4"><g id="line2d_15"><path d="M52.4609 144.458 363.777 144.458" stroke="#B0B0B0" stroke-width="0.8" stroke-linecap="square" fill="none" clip-path="url(#p0e588b5cb5)"/></g><g id="line2d_16"><g><use x="52.4609" y="144.458" width="100%" height="100%" xlink:href="#m0f3d4296a0" stroke="#000000" stroke-width="0.8"></use></g></g><g id="text_9"><g transform="matrix(0.1 0 0 -0.1 34.2609 148.257)"><defs><path d="M703 97 703 672C861.667 596.667 1022 539.333 1184 500 1346.67 460.667 1506.33 441 1663 441 2079.67 441 2397.67 581 2617 861 2837 1141 2962.67 1566.67 2994 2138 2873.33 1958.67 2720 1821 2534 1725 2348.67 1629 2143.67 1581 1919 1581 1452.33 1581 1083 1722 811 2004 539 2286.67 403 2673 403 3163 403 3641.67 544.667 4025.67 828 4315 1111.33 4605 1488.33 4750 1959 4750 2499 4750 2911 4543 3195 4129 3479.67 3715.67 3622 3115.33 3622 2328 3622 1592.67 3447.33 1005.67 3098 567 2749.33 128.333 2280.33-91 1691-91 1532.33-91 1371.67-75.3333 1209-44 1047-12.6667 878.333 34.3333 703 97ZM1959 2075C2242.33 2075 2466.67 2171.67 2632 2365 2798 2559 2881 2825 2881 3163 2881 3498.33 2798 3763.33 2632 3958 2466.67 4152.67 2242.33 4250 1959 4250 1675.67 4250 1451.33 4152.67 1286 3958 1120.67 3763.33 1038 3498.33 1038 3163 1038 2825 1120.67 2559 1286 2365 1451.33 2171.67 1675.67 2075 1959 2075Z" id="DejaVuSans-39" transform="scale(0.015625 0.015625)"/></defs><use width="100%" height="100%" xlink:href="#DejaVuSans-32" transform="matrix(1 0 0 1 0 0.765625)"></use><use width="100%" height="100%" xlink:href="#DejaVuSans-39" transform="matrix(0.7 0 0 0.7 64.5801 39.0469)"></use></g></g></g><g id="ytick_5"><g id="line2d_17"><path d="M52.4609 117.045 363.777 117.045" stroke="#B0B0B0" stroke-width="0.8" stroke-linecap="square" fill="none" clip-path="url(#p0e588b5cb5)"/></g><g id="line2d_18"><g><use x="52.4609" y="117.045" width="100%" height="100%" xlink:href="#m0f3d4296a0" stroke="#000000" stroke-width="0.8"></use></g></g><g id="text_10"><g transform="matrix(0.1 0 0 -0.1 29.7609 120.844)"><use width="100%" height="100%" xlink:href="#DejaVuSans-32" transform="matrix(1 0 0 1 0 0.765625)"></use><use width="100%" height="100%" xlink:href="#DejaVuSans-31" transform="matrix(0.7 0 0 0.7 64.5801 39.0469)"></use><use width="100%" height="100%" xlink:href="#DejaVuSans-30" transform="matrix(0.7 0 0 0.7 109.116 39.0469)"></use></g></g></g><g id="ytick_6"><g id="line2d_19"><path d="M52.4609 89.6319 363.777 89.6319" stroke="#B0B0B0" stroke-width="0.8" stroke-linecap="square" fill="none" clip-path="url(#p0e588b5cb5)"/></g><g id="line2d_20"><g><use x="52.4609" y="89.6319" width="100%" height="100%" xlink:href="#m0f3d4296a0" stroke="#000000" stroke-width="0.8"></use></g></g><g id="text_11"><g transform="matrix(0.1 0 0 -0.1 29.7609 93.4311)"><use width="100%" height="100%" xlink:href="#DejaVuSans-32" transform="matrix(1 0 0 1 0 0.684375)"></use><use width="100%" height="100%" xlink:href="#DejaVuSans-31" transform="matrix(0.7 0 0 0.7 64.5801 38.9656)"></use><use width="100%" height="100%" xlink:href="#DejaVuSans-31" transform="matrix(0.7 0 0 0.7 109.116 38.9656)"></use></g></g></g><g id="ytick_7"><g id="line2d_21"><path d="M52.4609 62.219 363.777 62.219" stroke="#B0B0B0" stroke-width="0.8" stroke-linecap="square" fill="none" clip-path="url(#p0e588b5cb5)"/></g><g id="line2d_22"><g><use x="52.4609" y="62.219" width="100%" height="100%" xlink:href="#m0f3d4296a0" stroke="#000000" stroke-width="0.8"></use></g></g><g id="text_12"><g transform="matrix(0.1 0 0 -0.1 29.7609 66.0182)"><use width="100%" height="100%" xlink:href="#DejaVuSans-32" transform="matrix(1 0 0 1 0 0.765625)"></use><use width="100%" height="100%" xlink:href="#DejaVuSans-31" transform="matrix(0.7 0 0 0.7 64.5801 39.0469)"></use><use width="100%" height="100%" xlink:href="#DejaVuSans-32" transform="matrix(0.7 0 0 0.7 109.116 39.0469)"></use></g></g></g><g id="ytick_8"><g id="line2d_23"><path d="M52.4609 34.8061 363.777 34.8061" stroke="#B0B0B0" stroke-width="0.8" stroke-linecap="square" fill="none" clip-path="url(#p0e588b5cb5)"/></g><g id="line2d_24"><g><use x="52.4609" y="34.8061" width="100%" height="100%" xlink:href="#m0f3d4296a0" stroke="#000000" stroke-width="0.8"></use></g></g><g id="text_13"><g transform="matrix(0.1 0 0 -0.1 29.7609 38.6053)"><defs><path d="M2597 2516C2899 2451.33 3134.67 2316.67 3304 2112 3474 1908 3559 1656 3559 1356 3559 896 3400.67 539.667 3084 287 2767.33 35 2317.33-91 1734-91 1538.67-91 1337.33-71.6667 1130-33 922.667 5.66667 708.667 63.6667 488 141L488 750C662.667 648 854 571 1062 519 1270.67 467 1488.67 441 1716 441 2111.33 441 2412.67 519 2620 675 2827.33 831 2931 1058 2931 1356 2931 1631.33 2834.67 1846.33 2642 2001 2449.33 2156.33 2181.33 2234 1838 2234L1294 2234 1294 2753 1863 2753C2173 2753 2410.33 2815 2575 2939 2739.67 3063 2822 3241.67 2822 3475 2822 3714.33 2737 3898 2567 4026 2397.67 4154.67 2154.67 4219 1838 4219 1664.67 4219 1479 4200 1281 4162 1083 4124.67 865.333 4066.67 628 3988L628 4550C868 4616.67 1092.67 4666.67 1302 4700 1511.33 4733.33 1708.67 4750 1894 4750 2373.33 4750 2752.33 4641 3031 4423 3310.33 4205.67 3450 3911.67 3450 3541 3450 3282.33 3376 3064 3228 2886 3080 2708 2869.67 2584.67 2597 2516Z" id="DejaVuSans-33" transform="scale(0.015625 0.015625)"/></defs><use width="100%" height="100%" xlink:href="#DejaVuSans-32" transform="matrix(1 0 0 1 0 0.765625)"></use><use width="100%" height="100%" xlink:href="#DejaVuSans-31" transform="matrix(0.7 0 0 0.7 64.5801 39.0469)"></use><use width="100%" height="100%" xlink:href="#DejaVuSans-33" transform="matrix(0.7 0 0 0.7 109.116 39.0469)"></use></g></g></g><g id="text_14"><g transform="matrix(9.18485e-18 -0.15 -0.15 -9.18485e-18 23.8273 156.288)"><defs><path d="M2300-25 3600 525 3650 425C2916.67-8.33333 2400-350 2100-600L1800-200C1883.33-133.333 1925 0 1925 200L1925 1175C1458.33 841.667 900 575 250 375L225 475C825 741.667 1325 1041.67 1725 1375 2125 1708.33 2475 2083.33 2775 2500L1150 2500C933.333 2500 733.333 2475 550 2425L325 2650 2925 2650 2925 3375 1950 3375C1733.33 3375 1533.33 3350 1350 3300L1125 3525 2925 3525 2925 4200 1525 4200C1308.33 4200 1108.33 4175 925 4125L700 4350 2925 4350C2925 4666.67 2916.67 4958.33 2900 5225L3475 4975 3275 4800 3275 4350 4900 4350 5250 4700 5725 4200 3275 4200 3275 3525 4550 3525 4875 3850 5325 3375 3275 3375 3275 2650 5150 2650 5525 3025 6025 2500 3250 2500C3416.67 2066.67 3625 1666.67 3875 1300 4358.33 1683.33 4708.33 2041.67 4925 2375L5350 1950 5100 1925C4666.67 1658.33 4283.33 1416.67 3950 1200 4216.67 883.333 4516.67 637.333 4850 462 5183.33 287.333 5600 175 6100 125L6100 25C5833.33-8.33333 5641.67-125 5525-325 5041.67-141.667 4587.33 150 4162 550 3737.33 950 3391.67 1558.33 3125 2375 2891.67 2058.33 2616.67 1750 2300 1450L2300-25Z" id="SimSun-8868" transform="scale(0.015625 0.015625)"/><path d="M1700 1400 2700 1725 2750 1625C1716.67 1175 1116.67 895.667 950 787 783.333 679 683.333 583.333 650 500L350 1000C533.333 1033.33 875 1133.33 1375 1300L1375 4100 1175 4100C958.333 4100 758.333 4075 575 4025L350 4250 2025 4250 2350 4550 2750 4100 1700 4100 1700 1400ZM2900 825C2916.67 1258.33 2925 1762.33 2925 2337 2925 2912.33 2916.67 3450 2900 3950L3250 3750 3825 3750C3891.67 4216.67 3933.33 4541.67 3950 4725L3250 4725C3033.33 4725 2833.33 4700 2650 4650L2425 4875 5225 4875 5575 5200 6000 4725 4400 4725C4300 4558.33 4150 4233.33 3950 3750L5175 3750 5400 4000 5800 3675 5575 3525 5575 2000C5575 1716.67 5583.33 1425 5600 1125L5250 925 5250 3600 3250 3600 3250 1050 2900 825ZM4625 2900 4425 2700C4425 1800 4354 1179 4212 837 4070.67 495.667 3841.67 208.333 3525-25 3208.33-258.333 2750-458.333 2150-625L2100-550C2883.33-200 3383.33 125 3600 425 3816.67 725 3954 1095.67 4012 1537 4070.67 1979 4083.33 2525 4050 3175L4625 2900ZM4450 1025C5150 658.333 5566.67 420.667 5700 312 5833.33 204 5900 75 5900-75 5900-158.333 5883.33-254 5850-362 5816.67-470.667 5791.67-525 5775-525 5725-525 5666.67-466.667 5600-350 5466.67-150 5316.67 45.6667 5150 237 4983.33 429 4733.33 666.667 4400 950L4450 1025Z" id="SimSun-9879" transform="scale(0.015625 0.015625)"/><path d="M1875 1525C1741.67 1308.33 1616.67 1100 1500 900 1716.67 850 1975 791.667 2275 725 2425 891.667 2575 1158.33 2725 1525L1875 1525ZM850 4900C1166.67 4700 1358.33 4550 1425 4450 1491.67 4350 1525 4275 1525 4225 1525 4141.67 1495.67 4058.33 1437 3975 1379 3891.67 1333.33 3850 1300 3850 1250 3850 1200 3933.33 1150 4100 1083.33 4333.33 958.333 4583.33 775 4850L850 4900ZM3000 4975 3450 4675C3316.67 4641.67 3200 4558.33 3100 4425 2983.33 4291.67 2791.67 4091.67 2525 3825L2450 3875C2766.67 4375 2950 4741.67 3000 4975ZM1875 5250 2425 5000 2225 4825 2225 3675 2850 3675 3125 3950 3550 3525 2225 3525 2225 3300C2608.33 3216.67 2845.67 3137.33 2937 3062 3029 2987.33 3075 2891.67 3075 2775 3075 2725 3066.67 2662.33 3050 2587 3033.33 2512.33 3008.33 2475 2975 2475 2941.67 2475 2883.33 2533.33 2800 2650 2666.67 2833.33 2475 3008.33 2225 3175L2225 2400 1925 2200 2275 2050C2191.67 2016.67 2083.33 1891.67 1950 1675L2725 1675 2900 1900 3275 1575 3050 1450C2883.33 1066.67 2733.33 800 2600 650 2866.67 583.333 3045.67 512.333 3137 437 3229 362.333 3275 266.667 3275 150 3275 33.3333 3250-25 3200-25 3150-25 3091.67 8.33333 3025 75 2841.67 208.333 2633.33 325 2400 425 1816.67-41.6667 1125-350 325-500L300-425C1066.67-175 1666.67 150 2100 550 1766.67 666.667 1441.67 750 1125 800 1191.67 900 1325 1141.67 1525 1525L1200 1525C983.333 1525 783.333 1500 600 1450L375 1675 1575 1675C1641.67 1841.67 1708.33 2041.67 1775 2275L1900 2225 1900 3250C1450 2733.33 933.333 2333.33 350 2050L300 2125C916.667 2558.33 1383.33 3025 1700 3525L1250 3525C1033.33 3525 833.333 3500 650 3450L425 3675 1900 3675C1900 4275 1891.67 4800 1875 5250ZM3925 3525C4008.33 2558.33 4208.33 1750 4525 1100 4791.67 1666.67 4958.33 2475 5025 3525L3925 3525ZM4050 5250 4625 4925C4491.67 4875 4391.67 4775 4325 4625 4258.33 4475 4133.33 4158.33 3950 3675L5375 3675 5675 3975 6125 3525 5400 3525C5300 2291.67 5083.33 1375 4750 775 5133.33 308.333 5583.33 16.6667 6100-100L6100-200C5783.33-250 5616.67-350 5600-500 5166.67-200 4808.33 141.667 4525 525 3975-8.33333 3316.67-400 2550-650L2500-575C3266.67-225 3875 233.333 4325 800 4008.33 1583.33 3841.67 2441.67 3825 3375 3658.33 2941.67 3416.67 2533.33 3100 2150L3025 2200C3425 2866.67 3766.67 3883.33 4050 5250Z" id="SimSun-6570" transform="scale(0.015625 0.015625)"/><path d="M1700 2400 1700 1875 3025 1875 3025 2400 1700 2400ZM3350 2400 3350 1875 4625 1875 4625 2400 3350 2400ZM1700 1725 1700 1225 3025 1225 3025 1725 1700 1725ZM3350 1725 3350 1225 4625 1225 4625 1725 3350 1725ZM4950 2325C4950 1675 4958.33 1241.67 4975 1025L4625 875 4625 1075 3350 1075 3350 525 4700 525 5050 825 5450 375 3350 375 3350-225 5275-225 5650 125 6075-375 1175-375C958.333-375 758.333-400 575-450L350-225 3025-225 3025 375 1725 375C1508.33 375 1308.33 350 1125 300L900 525 3025 525 3025 1075 1700 1075 1700 925 1350 800C1366.67 1133.33 1375 1462.33 1375 1787 1375 2112.33 1366.67 2433.33 1350 2750L1700 2550 4600 2550 4750 2750 5125 2475 4950 2325ZM1775 4800 1775 4375 4550 4375 4550 4800 1775 4800ZM1775 4225 1775 3775 4550 3775 4550 4225 1775 4225ZM4875 4750C4875 4133.33 4883.33 3725 4900 3525L4550 3375 4550 3625 1775 3625 1775 3400 1425 3250C1441.67 3516.67 1450 3854 1450 4262 1450 4670.67 1441.67 4958.33 1425 5125L1800 4950 4500 4950 4650 5175 5050 4900 4875 4750ZM250 3125 5375 3125 5725 3450 6150 2975 950 2975C816.667 2975 658.333 2950 475 2900L250 3125Z" id="SimSun-91cf" transform="scale(0.015625 0.015625)"/></defs><use width="100%" height="100%" xlink:href="#SimSun-8868"></use><use width="100%" height="100%" xlink:href="#SimSun-9879" transform="translate(100 0)"></use><use width="100%" height="100%" xlink:href="#SimSun-6570" transform="translate(200 0)"></use><use width="100%" height="100%" xlink:href="#SimSun-91cf" transform="translate(300 0)"></use></g></g></g><g id="line2d_25"><defs><path d="M0 3C0.795609 3 1.55874 2.6839 2.12132 2.12132 2.6839 1.55874 3 0.795609 3 0 3-0.795609 2.6839-1.55874 2.12132-2.12132 1.55874-2.6839 0.795609-3 0-3-0.795609-3-1.55874-2.6839-2.12132-2.12132-2.6839-1.55874-3-0.795609-3 0-3 0.795609-2.6839 1.55874-2.12132 2.12132-1.55874 2.6839-0.795609 3 0 3Z" id="m890d94f335" stroke="#800080"/></defs><path d="M66.6117 231.277 160.95 135.141 255.288 60.1407 349.627 21.2989" stroke="#0000FF" stroke-width="1.5" stroke-linecap="square" fill="none" clip-path="url(#p0e588b5cb5)"/><g clip-path="url(#p0e588b5cb5)"><use x="66.6117" y="231.277" width="100%" height="100%" xlink:href="#m890d94f335" stroke="#800080" fill="#800080"></use><use x="160.95" y="135.141" width="100%" height="100%" xlink:href="#m890d94f335" stroke="#800080" fill="#800080"></use><use x="255.288" y="60.1407" width="100%" height="100%" xlink:href="#m890d94f335" stroke="#800080" fill="#800080"></use><use x="349.627" y="21.2989" width="100%" height="100%" xlink:href="#m890d94f335" stroke="#800080" fill="#800080"></use></g></g><g id="line2d_26"><defs><path d="M0 3C0.795609 3 1.55874 2.6839 2.12132 2.12132 2.6839 1.55874 3 0.795609 3 0 3-0.795609 2.6839-1.55874 2.12132-2.12132 1.55874-2.6839 0.795609-3 0-3-0.795609-3-1.55874-2.6839-2.12132-2.12132-2.6839-1.55874-3-0.795609-3 0-3 0.795609-2.6839 1.55874-2.12132 2.12132-1.55874 2.6839-0.795609 3 0 3Z" id="m1fa69220fa" stroke="#FF0000"/></defs><path d="M66.6117 225.479 160.95 121.539 255.288 62.5486 349.627 32.7049" stroke="#FFA500" stroke-width="1.5" stroke-linecap="square" fill="none" clip-path="url(#p0e588b5cb5)"/><g clip-path="url(#p0e588b5cb5)"><use x="66.6117" y="225.479" width="100%" height="100%" xlink:href="#m1fa69220fa" stroke="#FF0000" fill="#FF0000"></use><use x="160.95" y="121.539" width="100%" height="100%" xlink:href="#m1fa69220fa" stroke="#FF0000" fill="#FF0000"></use><use x="255.288" y="62.5486" width="100%" height="100%" xlink:href="#m1fa69220fa" stroke="#FF0000" fill="#FF0000"></use><use x="349.627" y="32.7049" width="100%" height="100%" xlink:href="#m1fa69220fa" stroke="#FF0000" fill="#FF0000"></use></g></g><g id="patch_3"><path d="M52.4609 241.776 52.4609 10.8" stroke="#000000" stroke-width="0.8" stroke-linecap="square" stroke-linejoin="miter" fill="none"/></g><g id="patch_4"><path d="M363.777 241.776 363.777 10.8" stroke="#000000" stroke-width="0.8" stroke-linecap="square" stroke-linejoin="miter" fill="none"/></g><g id="patch_5"><path d="M52.4609 241.776 363.777 241.776" stroke="#000000" stroke-width="0.8" stroke-linecap="square" stroke-linejoin="miter" fill="none"/></g><g id="patch_6"><path d="M52.4609 10.8 363.777 10.8" stroke="#000000" stroke-width="0.8" stroke-linecap="square" stroke-linejoin="miter" fill="none"/></g><g id="legend_1"><g id="patch_7"><path d="M59.4609 47.3156 131.461 47.3156C132.794 47.3156 133.461 46.649 133.461 45.3156L133.461 17.8C133.461 16.4667 132.794 15.8 131.461 15.8L59.4609 15.8C58.1276 15.8 57.4609 16.4667 57.4609 17.8L57.4609 45.3156C57.4609 46.649 58.1276 47.3156 59.4609 47.3156Z" stroke="#CCCCCC" stroke-linejoin="miter" fill="#FFFFFF" opacity="0.8"/></g><g id="line2d_27"><path d="M61.4609 24.2687 71.4609 24.2687 81.4609 24.2687" stroke="#0000FF" stroke-width="1.5" stroke-linecap="square" fill="none"/><g><use x="71.4609" y="24.2688" width="100%" height="100%" xlink:href="#m890d94f335" stroke="#800080" fill="#800080"></use></g></g><g id="text_15"><g transform="matrix(0.1 0 0 -0.1 89.4609 27.7688)"><defs><path d="M1600 3800 1600 2975 2950 2975 2950 3800 1600 3800ZM3300 3800 3300 2975 4725 2975 4725 3800 3300 3800ZM1600 2825 1600 1975 2950 1975 2950 2825 1600 2825ZM3300 2825 3300 1975 4725 1975 4725 2825 3300 2825ZM1825 5150 1875 5225C2108.33 5091.67 2312.33 4954 2487 4812 2662.33 4670.67 2745.67 4541.67 2737 4425 2729 4308.33 2695.67 4220.67 2637 4162 2579 4104 2541.67 4075 2525 4075 2458.33 4075 2391.67 4175 2325 4375 2225 4625 2058.33 4883.33 1825 5150ZM3300 900C3300 216.667 3308.33-233.333 3325-450L2925-625C2941.67-41.6667 2950 466.667 2950 900L825 900 500 850 300 1050 2950 1050 2950 1825 1600 1825 1600 1525 1225 1375C1241.67 1841.67 1250 2308.33 1250 2775 1250 3241.67 1241.67 3708.33 1225 4175L1625 3950 3525 3950C3641.67 4133.33 3762.33 4354 3887 4612 4012.33 4870.67 4100 5091.67 4150 5275L4650 4900C4516.67 4850 4370.67 4741.67 4212 4575 4054 4408.33 3875 4200 3675 3950L4675 3950 4875 4175 5275 3875 5050 3700C5050 2683.33 5058.33 2016.67 5075 1700L4725 1550 4725 1825 3300 1825 3300 1050 5175 1050 5575 1450 6125 900 3300 900Z" id="SimSun-5355" transform="scale(0.015625 0.015625)"/><path d="M1475 2025C1475 2491.67 1466.67 2925 1450 3325L1825 3125 3400 3125 3550 3350 3950 3050 3750 2875C3750 2141.67 3758.33 1683.33 3775 1500L3425 1400 3425 1675 1800 1675 1800 425C1800 191.667 1870.67 50 2012 0 2154-50 2475-79 2975-87 3475-95.6667 3958.33-95.6667 4425-87 4891.67-79 5179-50 5287 0 5395.67 50 5466.67 137.333 5500 262 5533.33 387.333 5558.33 741.667 5575 1325L5700 1325C5716.67 858.333 5750 541.667 5800 375 5850 208.333 5950 100 6100 50 5950-166.667 5758.33-295.667 5525-337 5291.67-379 4916.67-400 4400-400 3883.33-400 3404-395.667 2962-387 2520.67-379 2162.33-350 1887-300 1612.33-250 1475-25 1475 375L1475 2025ZM5125 3925C5108.33 3058.33 5091.67 2408.33 5075 1975 5058.33 1541.67 5008.33 1254 4925 1112 4841.67 970.667 4666.67 841.667 4400 725 4350 958.333 4133.33 1125 3750 1225L3750 1325C4050 1275 4250 1250 4350 1250 4450 1250 4541.67 1283.33 4625 1350 4708.33 1416.67 4758.33 2308.33 4775 4025L1900 4025C1416.67 3291.67 891.667 2691.67 325 2225L250 2300C683.333 2783.33 1050 3275 1350 3775 1650 4275 1883.33 4750 2050 5200L2550 4900C2433.33 4850 2241.67 4608.33 1975 4175L4725 4175 4975 4425 5325 4075 5125 3925ZM1800 2975 1800 1825 3425 1825 3425 2975 1800 2975Z" id="SimSun-5305" transform="scale(0.015625 0.015625)"/><path d="M2600 4225 3800 4225C3800 4658.33 3791.67 5008.33 3775 5275L4325 5050 4150 4900 4150 4225 4850 4225 5200 4525 5625 4075 4150 4075 4150 3025 5300 3025 5675 3375 6125 2875 3100 2875C2883.33 2875 2683.33 2850 2500 2800L2275 3025 3800 3025 3800 4075 3425 4075C3208.33 4075 3008.33 4050 2825 4000L2600 4225ZM3475 50C3858.33 16.6667 4125 0 4275 0 4358.33 0 4429 8.33333 4487 25 4545.67 41.6667 4575 108.333 4575 225L4575 1800 3200 1800C2983.33 1800 2783.33 1775 2600 1725L2375 1950 4575 1950C4575 2350 4566.67 2641.67 4550 2825L5125 2550 4925 2375 4925 1950 5400 1950 5725 2275 6175 1800 4925 1800 4925 150C4941.67-233.333 4741.67-483.333 4325-600 4308.33-350 4025-166.667 3475-50L3475 50ZM2875 1550C3175 1350 3375 1187.33 3475 1062 3575 937.333 3625 833.333 3625 750 3625 666.667 3587.33 575 3512 475 3437.33 375 3383.33 325 3350 325 3300 325 3250 425 3200 625 3133.33 908.333 3000 1200 2800 1500L2875 1550ZM1475-650C1491.67-333.333 1500 425 1500 1625 1266.67 1491.67 1025 1350 775 1200L625 975 300 1450C466.667 1483.33 866.667 1633.33 1500 1900L1500 3275 800 3275C666.667 2908.33 508.333 2575 325 2275L250 2325C383.333 2741.67 483.333 3145.67 550 3537 616.667 3929 650 4233.33 650 4450L1200 4250C1100 4183.33 1025 4066.67 975 3900 925 3733.33 875 3575 825 3425L1500 3425C1500 4375 1491.67 4975 1475 5225L2050 4950 1850 4775 1850 3425 2150 3425 2450 3725 2875 3275 1850 3275 1850 2075 2750 2450 2800 2375 1850 1825C1850 558.333 1858.33-216.667 1875-500L1475-650Z" id="SimSun-7279" transform="scale(0.015625 0.015625)"/><path d="M1600 5200 2075 4825 1825 4700C1208.33 3933.33 733.333 3441.67 400 3225L350 3300C633.333 3600 883.333 3920.67 1100 4262 1316.67 4604 1483.33 4916.67 1600 5200ZM1600 2600 1600-475 1225-650C1241.67-300 1250 50 1250 400L1250 2200C983.333 1900 691.667 1633.33 375 1400L325 1475C625 1775 933.333 2158.33 1250 2625 1566.67 3091.67 1808.33 3533.33 1975 3950L2425 3550 2200 3450C1983.33 3166.67 1783.33 2883.33 1600 2600ZM2750 2200C2750 2500 2741.67 2808.33 2725 3125L3300 2825 3075 2625 3075 25 4000 25 4000 4450 3200 4450C2983.33 4450 2783.33 4425 2600 4375L2375 4600 5175 4600 5500 4925 5975 4450 4325 4450 4325 2500 5125 2500 5425 2800 5875 2350 4325 2350 4325 25 5250 25 5600 375 6100-125 2600-125C2383.33-125 2183.33-150 2000-200L1775 25 2750 25 2750 2200Z" id="SimSun-5f81" transform="scale(0.015625 0.015625)"/></defs><use width="100%" height="100%" xlink:href="#SimSun-5355"></use><use width="100%" height="100%" xlink:href="#SimSun-5305" transform="translate(100 0)"></use><use width="100%" height="100%" xlink:href="#SimSun-7279" transform="translate(200 0)"></use><use width="100%" height="100%" xlink:href="#SimSun-5f81" transform="translate(300 0)"></use></g></g><g id="line2d_28"><path d="M61.4609 38.5266 71.4609 38.5266 81.4609 38.5266" stroke="#FFA500" stroke-width="1.5" stroke-linecap="square" fill="none"/><g><use x="71.4609" y="38.5266" width="100%" height="100%" xlink:href="#m1fa69220fa" stroke="#FF0000" fill="#FF0000"></use></g></g><g id="text_16"><g transform="matrix(0.1 0 0 -0.1 89.4609 42.0266)"><defs><path d="M3500-475C3516.67-225 3525 16.6667 3525 250L3525 1850C3525 2050 3516.67 2241.67 3500 2425L4075 2175 3850 2000 3850 375C3850 141.667 3858.33-91.6667 3875-325L3500-475ZM2525 2525 3075 2250 2875 2100C2858.33 1383.33 2770.67 845.667 2612 487 2454 129 2066.67-208.333 1450-525L1400-450C1866.67-133.333 2175 208.333 2325 575 2475 941.667 2541.67 1591.67 2525 2525ZM4575 150 4575 1800C4575 2066.67 4566.67 2291.67 4550 2475L5100 2225 4900 2050 4900 250C4883.33 66.6667 4958.33-25 5125-25L5475-25C5608.33-25 5683.33 58.3333 5700 225 5716.67 391.667 5733.33 650 5750 1000L5850 1000C5850 666.667 5866.67 433.333 5900 300 5933.33 166.667 6008.33 83.3333 6125 50 6025-183.333 5841.67-300 5575-300L4950-300C4700-300 4575-150 4575 150ZM4925 3025C4775 3291.67 4625 3516.67 4475 3700L4525 3750C4908.33 3500 5158.33 3308.33 5275 3175 5391.67 3041.67 5450 2933.33 5450 2850 5450 2766.67 5420.67 2683.33 5362 2600 5304 2516.67 5258.33 2475 5225 2475 5191.67 2475 5166.67 2500 5150 2550 5100 2666.67 5041.67 2791.67 4975 2925 4325 2875 3812.33 2825 3437 2775 3062.33 2725 2800 2650 2650 2550L2400 3000C2550 3016.67 2733.33 3141.67 2950 3375 3166.67 3608.33 3375 3900 3575 4250L2975 4250C2758.33 4250 2558.33 4225 2375 4175L2150 4400 3725 4400C3691.67 4666.67 3541.67 4925 3275 5175L3300 5250C3716.67 5083.33 3945.67 4962.33 3987 4887 4029 4812.33 4050 4741.67 4050 4675 4050 4591.67 4008.33 4500 3925 4400L5125 4400 5475 4725 5900 4250 3700 4250 4075 3975 3775 3925C3341.67 3475 3025 3166.67 2825 3000 3175 3000 3875 3008.33 4925 3025ZM2275 3850C1708.33 2233.33 1404 1320.67 1362 1112 1320.67 904 1295.67 645.667 1287 337 1279 29 1275-183.333 1275-300 1275-350 1241.67-375 1175-375 1125-375 1045.67-354 937-312 829-270.667 775-191.667 775-75 775 25 800 150 850 300 900 466.667 925 600 925 700 925 800 887.333 883.333 812 950 737.333 1016.67 575 1083.33 325 1150L325 1250C625 1233.33 808.333 1229 875 1237 941.667 1245.67 1025 1316.67 1125 1450 1225 1583.33 1575 2400 2175 3900L2275 3850ZM325 3500C891.667 3233.33 1175 3020.67 1175 2862 1175 2704 1145.67 2591.67 1087 2525 1029 2458.33 991.667 2425 975 2425 925 2425 875 2500 825 2650 741.667 2850 558.333 3116.67 275 3450L325 3500ZM925 4925C1391.67 4691.67 1650 4525 1700 4425 1750 4325 1775 4258.33 1775 4225 1775 4141.67 1745.67 4058.33 1687 3975 1629 3891.67 1583.33 3850 1550 3850 1483.33 3850 1425 3925 1375 4075 1291.67 4308.33 1125 4566.67 875 4850L925 4925Z" id="SimSun-6d41" transform="scale(0.015625 0.015625)"/></defs><use width="100%" height="100%" xlink:href="#SimSun-6d41"></use><use width="100%" height="100%" xlink:href="#SimSun-7279" transform="translate(100 0)"></use><use width="100%" height="100%" xlink:href="#SimSun-5f81" transform="translate(200 0)"></use></g></g></g></g><g id="axes_2"><g id="patch_8"><path d="M397.883 241.776 709.2 241.776 709.2 10.8 397.883 10.8Z" fill="#FFFFFF"/></g><g id="matplotlib.axis_3"><g id="xtick_5"><g id="line2d_29"><path d="M412.034 241.776 412.034 10.8" stroke="#B0B0B0" stroke-width="0.8" stroke-linecap="square" fill="none" clip-path="url(#p7cedf364c8)"/></g><g id="line2d_30"><g><use x="412.034" y="241.776" width="100%" height="100%" xlink:href="#ma5a850e85b" stroke="#000000" stroke-width="0.8"></use></g></g><g id="text_17"><g transform="matrix(0.1 0 0 -0.1 408.853 256.375)"><use width="100%" height="100%" xlink:href="#DejaVuSans-35"></use></g></g></g><g id="xtick_6"><g id="line2d_31"><path d="M506.373 241.776 506.373 10.8" stroke="#B0B0B0" stroke-width="0.8" stroke-linecap="square" fill="none" clip-path="url(#p7cedf364c8)"/></g><g id="line2d_32"><g><use x="506.373" y="241.776" width="100%" height="100%" xlink:href="#ma5a850e85b" stroke="#000000" stroke-width="0.8"></use></g></g><g id="text_18"><g transform="matrix(0.1 0 0 -0.1 500.01 256.375)"><use width="100%" height="100%" xlink:href="#DejaVuSans-31"></use><use width="100%" height="100%" xlink:href="#DejaVuSans-30" transform="translate(63.623 0)"></use></g></g></g><g id="xtick_7"><g id="line2d_33"><path d="M600.711 241.776 600.711 10.8" stroke="#B0B0B0" stroke-width="0.8" stroke-linecap="square" fill="none" clip-path="url(#p7cedf364c8)"/></g><g id="line2d_34"><g><use x="600.711" y="241.776" width="100%" height="100%" xlink:href="#ma5a850e85b" stroke="#000000" stroke-width="0.8"></use></g></g><g id="text_19"><g transform="matrix(0.1 0 0 -0.1 594.348 256.375)"><use width="100%" height="100%" xlink:href="#DejaVuSans-31"></use><use width="100%" height="100%" xlink:href="#DejaVuSans-35" transform="translate(63.623 0)"></use></g></g></g><g id="xtick_8"><g id="line2d_35"><path d="M695.049 241.776 695.049 10.8" stroke="#B0B0B0" stroke-width="0.8" stroke-linecap="square" fill="none" clip-path="url(#p7cedf364c8)"/></g><g id="line2d_36"><g><use x="695.049" y="241.776" width="100%" height="100%" xlink:href="#ma5a850e85b" stroke="#000000" stroke-width="0.8"></use></g></g><g id="text_20"><g transform="matrix(0.1 0 0 -0.1 688.687 256.375)"><use width="100%" height="100%" xlink:href="#DejaVuSans-32"></use><use width="100%" height="100%" xlink:href="#DejaVuSans-30" transform="translate(63.623 0)"></use></g></g></g><g id="text_21"><g transform="matrix(0.15 0 0 -0.15 456.042 274.408)"><defs><path d="M2500 2275C2500 2991.67 2391.67 3495.67 2175 3787 1958.33 4079 1658.33 4225 1275 4225 1158.33 4225 1070.67 4208.33 1012 4175 954 4141.67 925 4091.67 925 4025L925 450C925 383.333 950 333.333 1000 300 1050 266.667 1116.67 250 1200 250 1566.67 250 1875 387.333 2125 662 2375 937.333 2500 1475 2500 2275ZM525 4025C525 4091.67 508.333 4141.67 475 4175 441.667 4208.33 383.333 4225 300 4225L150 4225 150 4375 1275 4375C1791.67 4375 2204 4208.33 2512 3875 2820.67 3541.67 2975 3025 2975 2325 2975 1558.33 2825 995.667 2525 637 2225 279 1783.33 100 1200 100L125 100 125 250 300 250C383.333 250 441.667 266.667 475 300 508.333 333.333 525 383.333 525 450L525 4025Z" id="SimSun-44" transform="scale(0.015625 0.015625)"/><path d="M2825 4200C2475 3633.33 2195.67 3079 1987 2537 1779 1995.67 1675 1525 1675 1125 1675 1058.33 1683.33 966.667 1700 850 1700 716.667 1700 566.667 1700 400 1700 266.667 1679 175 1637 125 1595.67 75 1525 50 1425 50 1341.67 50 1270.67 79 1212 137 1154 195.667 1125 300 1125 450 1125 766.667 1195.67 1158.33 1337 1625 1479 2091.67 1858.33 2883.33 2475 4000L1225 4000C1041.67 4000 895.667 3941.67 787 3825 679 3708.33 600 3533.33 550 3300L400 3325 575 4375 2825 4375 2825 4200Z" id="SimSun-37" transform="scale(0.015625 0.015625)"/></defs><use width="100%" height="100%" xlink:href="#SimSun-43"></use><use width="100%" height="100%" xlink:href="#SimSun-49" transform="translate(50 0)"></use><use width="100%" height="100%" xlink:href="#SimSun-43" transform="translate(100 0)"></use><use width="100%" height="100%" xlink:href="#SimSun-2d" transform="translate(150 0)"></use><use width="100%" height="100%" xlink:href="#SimSun-49" transform="translate(200 0)"></use><use width="100%" height="100%" xlink:href="#SimSun-44" transform="translate(250 0)"></use><use width="100%" height="100%" xlink:href="#SimSun-53" transform="translate(300 0)"></use><use width="100%" height="100%" xlink:href="#SimSun-32" transform="translate(350 0)"></use><use width="100%" height="100%" xlink:href="#SimSun-30" transform="translate(400 0)"></use><use width="100%" height="100%" xlink:href="#SimSun-31" transform="translate(450 0)"></use><use width="100%" height="100%" xlink:href="#SimSun-37" transform="translate(500 0)"></use><use width="100%" height="100%" xlink:href="#SimSun-20" transform="translate(550 0)"></use><use width="100%" height="100%" xlink:href="#SimSun-51b3" transform="translate(600 0)"></use><use width="100%" height="100%" xlink:href="#SimSun-7b56" transform="translate(700 0)"></use><use width="100%" height="100%" xlink:href="#SimSun-6811" transform="translate(800 0)"></use><use width="100%" height="100%" xlink:href="#SimSun-6700" transform="translate(900 0)"></use><use width="100%" height="100%" xlink:href="#SimSun-5927" transform="translate(1000 0)"></use><use width="100%" height="100%" xlink:href="#SimSun-6df1" transform="translate(1100 0)"></use><use width="100%" height="100%" xlink:href="#SimSun-5ea6" transform="translate(1200 0)"></use></g></g></g><g id="matplotlib.axis_4"><g id="ytick_9"><g id="line2d_37"><path d="M397.883 223.715 709.2 223.715" stroke="#B0B0B0" stroke-width="0.8" stroke-linecap="square" fill="none" clip-path="url(#p7cedf364c8)"/></g><g id="line2d_38"><g><use x="397.883" y="223.715" width="100%" height="100%" xlink:href="#m0f3d4296a0" stroke="#000000" stroke-width="0.8"></use></g></g><g id="text_22"><g transform="matrix(0.1 0 0 -0.1 379.683 227.514)"><use width="100%" height="100%" xlink:href="#DejaVuSans-32" transform="matrix(1 0 0 1 0 0.765625)"></use><use width="100%" height="100%" xlink:href="#DejaVuSans-36" transform="matrix(0.7 0 0 0.7 64.5801 39.0469)"></use></g></g></g><g id="ytick_10"><g id="line2d_39"><path d="M397.883 195.921 709.2 195.921" stroke="#B0B0B0" stroke-width="0.8" stroke-linecap="square" fill="none" clip-path="url(#p7cedf364c8)"/></g><g id="line2d_40"><g><use x="397.883" y="195.921" width="100%" height="100%" xlink:href="#m0f3d4296a0" stroke="#000000" stroke-width="0.8"></use></g></g><g id="text_23"><g transform="matrix(0.1 0 0 -0.1 379.683 199.72)"><use width="100%" height="100%" xlink:href="#DejaVuSans-32" transform="matrix(1 0 0 1 0 0.684375)"></use><use width="100%" height="100%" xlink:href="#DejaVuSans-37" transform="matrix(0.7 0 0 0.7 64.5801 38.9656)"></use></g></g></g><g id="ytick_11"><g id="line2d_41"><path d="M397.883 168.127 709.2 168.127" stroke="#B0B0B0" stroke-width="0.8" stroke-linecap="square" fill="none" clip-path="url(#p7cedf364c8)"/></g><g id="line2d_42"><g><use x="397.883" y="168.127" width="100%" height="100%" xlink:href="#m0f3d4296a0" stroke="#000000" stroke-width="0.8"></use></g></g><g id="text_24"><g transform="matrix(0.1 0 0 -0.1 379.683 171.926)"><use width="100%" height="100%" xlink:href="#DejaVuSans-32" transform="matrix(1 0 0 1 0 0.765625)"></use><use width="100%" height="100%" xlink:href="#DejaVuSans-38" transform="matrix(0.7 0 0 0.7 64.5801 39.0469)"></use></g></g></g><g id="ytick_12"><g id="line2d_43"><path d="M397.883 140.332 709.2 140.332" stroke="#B0B0B0" stroke-width="0.8" stroke-linecap="square" fill="none" clip-path="url(#p7cedf364c8)"/></g><g id="line2d_44"><g><use x="397.883" y="140.332" width="100%" height="100%" xlink:href="#m0f3d4296a0" stroke="#000000" stroke-width="0.8"></use></g></g><g id="text_25"><g transform="matrix(0.1 0 0 -0.1 379.683 144.131)"><use width="100%" height="100%" xlink:href="#DejaVuSans-32" transform="matrix(1 0 0 1 0 0.765625)"></use><use width="100%" height="100%" xlink:href="#DejaVuSans-39" transform="matrix(0.7 0 0 0.7 64.5801 39.0469)"></use></g></g></g><g id="ytick_13"><g id="line2d_45"><path d="M397.883 112.538 709.2 112.538" stroke="#B0B0B0" stroke-width="0.8" stroke-linecap="square" fill="none" clip-path="url(#p7cedf364c8)"/></g><g id="line2d_46"><g><use x="397.883" y="112.538" width="100%" height="100%" xlink:href="#m0f3d4296a0" stroke="#000000" stroke-width="0.8"></use></g></g><g id="text_26"><g transform="matrix(0.1 0 0 -0.1 375.183 116.337)"><use width="100%" height="100%" xlink:href="#DejaVuSans-32" transform="matrix(1 0 0 1 0 0.765625)"></use><use width="100%" height="100%" xlink:href="#DejaVuSans-31" transform="matrix(0.7 0 0 0.7 64.5801 39.0469)"></use><use width="100%" height="100%" xlink:href="#DejaVuSans-30" transform="matrix(0.7 0 0 0.7 109.116 39.0469)"></use></g></g></g><g id="ytick_14"><g id="line2d_47"><path d="M397.883 84.7437 709.2 84.7437" stroke="#B0B0B0" stroke-width="0.8" stroke-linecap="square" fill="none" clip-path="url(#p7cedf364c8)"/></g><g id="line2d_48"><g><use x="397.883" y="84.7437" width="100%" height="100%" xlink:href="#m0f3d4296a0" stroke="#000000" stroke-width="0.8"></use></g></g><g id="text_27"><g transform="matrix(0.1 0 0 -0.1 375.183 88.5429)"><use width="100%" height="100%" xlink:href="#DejaVuSans-32" transform="matrix(1 0 0 1 0 0.684375)"></use><use width="100%" height="100%" xlink:href="#DejaVuSans-31" transform="matrix(0.7 0 0 0.7 64.5801 38.9656)"></use><use width="100%" height="100%" xlink:href="#DejaVuSans-31" transform="matrix(0.7 0 0 0.7 109.116 38.9656)"></use></g></g></g><g id="ytick_15"><g id="line2d_49"><path d="M397.883 56.9494 709.2 56.9494" stroke="#B0B0B0" stroke-width="0.8" stroke-linecap="square" fill="none" clip-path="url(#p7cedf364c8)"/></g><g id="line2d_50"><g><use x="397.883" y="56.9494" width="100%" height="100%" xlink:href="#m0f3d4296a0" stroke="#000000" stroke-width="0.8"></use></g></g><g id="text_28"><g transform="matrix(0.1 0 0 -0.1 375.183 60.7486)"><use width="100%" height="100%" xlink:href="#DejaVuSans-32" transform="matrix(1 0 0 1 0 0.765625)"></use><use width="100%" height="100%" xlink:href="#DejaVuSans-31" transform="matrix(0.7 0 0 0.7 64.5801 39.0469)"></use><use width="100%" height="100%" xlink:href="#DejaVuSans-32" transform="matrix(0.7 0 0 0.7 109.116 39.0469)"></use></g></g></g><g id="ytick_16"><g id="line2d_51"><path d="M397.883 29.1551 709.2 29.1551" stroke="#B0B0B0" stroke-width="0.8" stroke-linecap="square" fill="none" clip-path="url(#p7cedf364c8)"/></g><g id="line2d_52"><g><use x="397.883" y="29.1551" width="100%" height="100%" xlink:href="#m0f3d4296a0" stroke="#000000" stroke-width="0.8"></use></g></g><g id="text_29"><g transform="matrix(0.1 0 0 -0.1 375.183 32.9543)"><use width="100%" height="100%" xlink:href="#DejaVuSans-32" transform="matrix(1 0 0 1 0 0.765625)"></use><use width="100%" height="100%" xlink:href="#DejaVuSans-31" transform="matrix(0.7 0 0 0.7 64.5801 39.0469)"></use><use width="100%" height="100%" xlink:href="#DejaVuSans-33" transform="matrix(0.7 0 0 0.7 109.116 39.0469)"></use></g></g></g></g><g id="line2d_53"><path d="M412.034 231.277 506.373 142.92 600.711 72.6635 695.049 21.2989" stroke="#0000FF" stroke-width="1.5" stroke-linecap="square" fill="none" clip-path="url(#p7cedf364c8)"/><g clip-path="url(#p7cedf364c8)"><use x="412.034" y="231.277" width="100%" height="100%" xlink:href="#m890d94f335" stroke="#800080" fill="#800080"></use><use x="506.373" y="142.92" width="100%" height="100%" xlink:href="#m890d94f335" stroke="#800080" fill="#800080"></use><use x="600.711" y="72.6635" width="100%" height="100%" xlink:href="#m890d94f335" stroke="#800080" fill="#800080"></use><use x="695.049" y="21.2989" width="100%" height="100%" xlink:href="#m890d94f335" stroke="#800080" fill="#800080"></use></g></g><g id="line2d_54"><path d="M412.034 223.093 506.373 169.078 600.711 139.943 695.049 132.016" stroke="#FFA500" stroke-width="1.5" stroke-linecap="square" fill="none" clip-path="url(#p7cedf364c8)"/><g clip-path="url(#p7cedf364c8)"><use x="412.034" y="223.093" width="100%" height="100%" xlink:href="#m1fa69220fa" stroke="#FF0000" fill="#FF0000"></use><use x="506.373" y="169.078" width="100%" height="100%" xlink:href="#m1fa69220fa" stroke="#FF0000" fill="#FF0000"></use><use x="600.711" y="139.943" width="100%" height="100%" xlink:href="#m1fa69220fa" stroke="#FF0000" fill="#FF0000"></use><use x="695.049" y="132.016" width="100%" height="100%" xlink:href="#m1fa69220fa" stroke="#FF0000" fill="#FF0000"></use></g></g><g id="patch_9"><path d="M397.883 241.776 397.883 10.8" stroke="#000000" stroke-width="0.8" stroke-linecap="square" stroke-linejoin="miter" fill="none"/></g><g id="patch_10"><path d="M709.2 241.776 709.2 10.8" stroke="#000000" stroke-width="0.8" stroke-linecap="square" stroke-linejoin="miter" fill="none"/></g><g id="patch_11"><path d="M397.883 241.776 709.2 241.776" stroke="#000000" stroke-width="0.8" stroke-linecap="square" stroke-linejoin="miter" fill="none"/></g><g id="patch_12"><path d="M397.883 10.8 709.2 10.8" stroke="#000000" stroke-width="0.8" stroke-linecap="square" stroke-linejoin="miter" fill="none"/></g><g id="legend_2"><g id="patch_13"><path d="M404.883 47.3156 476.883 47.3156C478.217 47.3156 478.883 46.649 478.883 45.3156L478.883 17.8C478.883 16.4667 478.217 15.8 476.883 15.8L404.883 15.8C403.55 15.8 402.883 16.4667 402.883 17.8L402.883 45.3156C402.883 46.649 403.55 47.3156 404.883 47.3156Z" stroke="#CCCCCC" stroke-linejoin="miter" fill="#FFFFFF" opacity="0.8"/></g><g id="line2d_55"><path d="M406.883 24.2687 416.883 24.2687 426.883 24.2687" stroke="#0000FF" stroke-width="1.5" stroke-linecap="square" fill="none"/><g><use x="416.883" y="24.2688" width="100%" height="100%" xlink:href="#m890d94f335" stroke="#800080" fill="#800080"></use></g></g><g id="text_30"><g transform="matrix(0.1 0 0 -0.1 434.883 27.7688)"><use width="100%" height="100%" xlink:href="#SimSun-5355"></use><use width="100%" height="100%" xlink:href="#SimSun-5305" transform="translate(100 0)"></use><use width="100%" height="100%" xlink:href="#SimSun-7279" transform="translate(200 0)"></use><use width="100%" height="100%" xlink:href="#SimSun-5f81" transform="translate(300 0)"></use></g></g><g id="line2d_56"><path d="M406.883 38.5266 416.883 38.5266 426.883 38.5266" stroke="#FFA500" stroke-width="1.5" stroke-linecap="square" fill="none"/><g><use x="416.883" y="38.5266" width="100%" height="100%" xlink:href="#m1fa69220fa" stroke="#FF0000" fill="#FF0000"></use></g></g><g id="text_31"><g transform="matrix(0.1 0 0 -0.1 434.883 42.0266)"><use width="100%" height="100%" xlink:href="#SimSun-6d41"></use><use width="100%" height="100%" xlink:href="#SimSun-7279" transform="translate(100 0)"></use><use width="100%" height="100%" xlink:href="#SimSun-5f81" transform="translate(200 0)"></use></g></g></g></g></g></svg>